G04 EAGLE Gerber RS-274X export*
G75*
%MOMM*%
%FSLAX34Y34*%
%LPD*%
%INTop Copper*%
%IPPOS*%
%AMOC8*
5,1,8,0,0,1.08239X$1,22.5*%
G01*
%ADD10R,1.100000X1.000000*%
%ADD11R,1.600000X1.400000*%
%ADD12C,0.300000*%
%ADD13R,1.000000X1.100000*%
%ADD14R,1.200000X0.550000*%
%ADD15C,1.879600*%
%ADD16R,1.270000X0.558800*%
%ADD17R,0.558800X1.270000*%
%ADD18C,0.635000*%
%ADD19R,1.270000X0.635000*%
%ADD20R,1.524000X0.762000*%
%ADD21C,0.450000*%
%ADD22C,0.254000*%
%ADD23C,1.016000*%
%ADD24C,0.203200*%

G36*
X21447Y199971D02*
X21447Y199971D01*
X21566Y199975D01*
X21604Y199986D01*
X21645Y199990D01*
X21757Y200030D01*
X21871Y200064D01*
X21906Y200084D01*
X21944Y200098D01*
X22043Y200165D01*
X22145Y200225D01*
X22190Y200265D01*
X22207Y200276D01*
X22221Y200292D01*
X22266Y200331D01*
X28499Y206565D01*
X31471Y206565D01*
X31480Y206566D01*
X31489Y206565D01*
X31638Y206586D01*
X31786Y206605D01*
X31795Y206608D01*
X31804Y206609D01*
X31956Y206661D01*
X34089Y207545D01*
X50747Y207545D01*
X52880Y206661D01*
X52889Y206659D01*
X52897Y206654D01*
X53042Y206617D01*
X53186Y206577D01*
X53196Y206577D01*
X53205Y206575D01*
X53365Y206565D01*
X54072Y206565D01*
X54190Y206580D01*
X54309Y206587D01*
X54347Y206600D01*
X54388Y206605D01*
X54498Y206648D01*
X54611Y206685D01*
X54646Y206707D01*
X54683Y206722D01*
X54779Y206791D01*
X54880Y206855D01*
X54908Y206885D01*
X54941Y206908D01*
X55017Y207000D01*
X55098Y207087D01*
X55118Y207122D01*
X55143Y207153D01*
X55194Y207261D01*
X55252Y207365D01*
X55262Y207405D01*
X55279Y207441D01*
X55301Y207558D01*
X55331Y207673D01*
X55335Y207733D01*
X55339Y207753D01*
X55337Y207774D01*
X55341Y207834D01*
X55341Y209550D01*
X55545Y210309D01*
X55562Y210434D01*
X55585Y210558D01*
X55583Y210591D01*
X55588Y210625D01*
X55573Y210750D01*
X55566Y210875D01*
X55555Y210907D01*
X55551Y210940D01*
X55506Y211058D01*
X55468Y211177D01*
X55450Y211206D01*
X55437Y211237D01*
X55365Y211340D01*
X55297Y211446D01*
X55273Y211469D01*
X55253Y211497D01*
X55157Y211578D01*
X55066Y211664D01*
X55036Y211680D01*
X55011Y211702D01*
X54897Y211757D01*
X54787Y211818D01*
X54755Y211826D01*
X54724Y211841D01*
X54601Y211866D01*
X54479Y211897D01*
X54431Y211900D01*
X54413Y211904D01*
X54391Y211903D01*
X54319Y211907D01*
X39377Y211907D01*
X37578Y213706D01*
X37576Y213783D01*
X37559Y213841D01*
X37551Y213901D01*
X37515Y213993D01*
X37487Y214088D01*
X37457Y214140D01*
X37434Y214197D01*
X37376Y214277D01*
X37326Y214362D01*
X37260Y214437D01*
X37248Y214454D01*
X37238Y214462D01*
X37220Y214483D01*
X32511Y219191D01*
X32511Y237979D01*
X35570Y241037D01*
X35630Y241115D01*
X35698Y241188D01*
X35727Y241241D01*
X35764Y241288D01*
X35804Y241379D01*
X35852Y241466D01*
X35867Y241525D01*
X35891Y241580D01*
X35906Y241678D01*
X35931Y241774D01*
X35937Y241874D01*
X35941Y241894D01*
X35939Y241907D01*
X35941Y241935D01*
X35941Y254613D01*
X37727Y256399D01*
X49105Y256399D01*
X49204Y256411D01*
X49303Y256414D01*
X49361Y256431D01*
X49421Y256439D01*
X49513Y256475D01*
X49608Y256503D01*
X49660Y256533D01*
X49717Y256556D01*
X49797Y256614D01*
X49882Y256664D01*
X49957Y256730D01*
X49974Y256742D01*
X49982Y256752D01*
X50003Y256770D01*
X55000Y261767D01*
X55060Y261845D01*
X55128Y261918D01*
X55157Y261971D01*
X55194Y262018D01*
X55234Y262109D01*
X55282Y262196D01*
X55297Y262255D01*
X55321Y262310D01*
X55336Y262408D01*
X55361Y262504D01*
X55367Y262604D01*
X55371Y262624D01*
X55369Y262637D01*
X55371Y262665D01*
X55371Y263540D01*
X55356Y263658D01*
X55349Y263777D01*
X55336Y263815D01*
X55331Y263856D01*
X55288Y263966D01*
X55251Y264079D01*
X55229Y264114D01*
X55214Y264151D01*
X55145Y264247D01*
X55081Y264348D01*
X55051Y264376D01*
X55028Y264409D01*
X54936Y264485D01*
X54849Y264566D01*
X54814Y264586D01*
X54783Y264611D01*
X54675Y264662D01*
X54571Y264720D01*
X54531Y264730D01*
X54495Y264747D01*
X54378Y264769D01*
X54263Y264799D01*
X54203Y264803D01*
X54183Y264807D01*
X54162Y264805D01*
X54102Y264809D01*
X49529Y264809D01*
X49529Y271811D01*
X57673Y271811D01*
X57688Y271774D01*
X57717Y271734D01*
X57739Y271689D01*
X57810Y271606D01*
X57874Y271517D01*
X57913Y271485D01*
X57945Y271447D01*
X58035Y271384D01*
X58119Y271314D01*
X58164Y271293D01*
X58205Y271264D01*
X58308Y271225D01*
X58407Y271179D01*
X58456Y271169D01*
X58502Y271152D01*
X58612Y271139D01*
X58719Y271119D01*
X58769Y271122D01*
X58818Y271116D01*
X58927Y271132D01*
X59037Y271139D01*
X59084Y271154D01*
X59133Y271161D01*
X59286Y271213D01*
X61883Y272289D01*
X65117Y272289D01*
X68105Y271051D01*
X69685Y269471D01*
X69795Y269386D01*
X69901Y269297D01*
X69920Y269289D01*
X69936Y269276D01*
X70064Y269221D01*
X70189Y269162D01*
X70209Y269158D01*
X70228Y269150D01*
X70366Y269128D01*
X70502Y269102D01*
X70522Y269103D01*
X70542Y269100D01*
X70681Y269113D01*
X70819Y269122D01*
X70838Y269128D01*
X70858Y269130D01*
X70990Y269177D01*
X71121Y269220D01*
X71139Y269231D01*
X71158Y269238D01*
X71273Y269316D01*
X71390Y269390D01*
X71404Y269405D01*
X71421Y269416D01*
X71513Y269520D01*
X71608Y269622D01*
X71618Y269639D01*
X71631Y269655D01*
X71695Y269779D01*
X71762Y269900D01*
X71767Y269920D01*
X71776Y269938D01*
X71806Y270074D01*
X71841Y270208D01*
X71843Y270236D01*
X71846Y270248D01*
X71845Y270269D01*
X71851Y270369D01*
X71851Y272963D01*
X73637Y274749D01*
X87163Y274749D01*
X88362Y273550D01*
X88456Y273477D01*
X88545Y273398D01*
X88581Y273380D01*
X88613Y273355D01*
X88722Y273308D01*
X88828Y273253D01*
X88868Y273245D01*
X88905Y273229D01*
X89023Y273210D01*
X89139Y273184D01*
X89179Y273185D01*
X89219Y273179D01*
X89338Y273190D01*
X89457Y273194D01*
X89495Y273205D01*
X89536Y273209D01*
X89648Y273249D01*
X89762Y273282D01*
X89797Y273302D01*
X89835Y273316D01*
X89933Y273383D01*
X90036Y273443D01*
X90081Y273483D01*
X90098Y273495D01*
X90112Y273510D01*
X90157Y273550D01*
X90340Y273733D01*
X90919Y274068D01*
X91566Y274241D01*
X94901Y274241D01*
X94901Y267930D01*
X94916Y267812D01*
X94923Y267693D01*
X94935Y267655D01*
X94941Y267615D01*
X94984Y267504D01*
X95021Y267391D01*
X95043Y267357D01*
X95058Y267319D01*
X95127Y267223D01*
X95191Y267122D01*
X95221Y267094D01*
X95244Y267062D01*
X95336Y266986D01*
X95423Y266904D01*
X95458Y266885D01*
X95489Y266859D01*
X95597Y266808D01*
X95701Y266751D01*
X95741Y266741D01*
X95777Y266723D01*
X95894Y266701D01*
X96009Y266671D01*
X96069Y266667D01*
X96089Y266664D01*
X96110Y266665D01*
X96170Y266661D01*
X98630Y266661D01*
X98748Y266676D01*
X98867Y266683D01*
X98905Y266696D01*
X98946Y266701D01*
X99056Y266745D01*
X99169Y266781D01*
X99204Y266803D01*
X99241Y266818D01*
X99337Y266888D01*
X99438Y266951D01*
X99466Y266981D01*
X99499Y267005D01*
X99575Y267096D01*
X99656Y267183D01*
X99676Y267218D01*
X99701Y267250D01*
X99752Y267357D01*
X99810Y267462D01*
X99820Y267501D01*
X99837Y267537D01*
X99859Y267654D01*
X99889Y267770D01*
X99893Y267830D01*
X99897Y267850D01*
X99895Y267870D01*
X99899Y267930D01*
X99899Y274241D01*
X103234Y274241D01*
X103881Y274068D01*
X104460Y273733D01*
X104933Y273260D01*
X105268Y272681D01*
X105441Y272034D01*
X105441Y269701D01*
X105447Y269651D01*
X105445Y269602D01*
X105467Y269494D01*
X105481Y269385D01*
X105499Y269339D01*
X105509Y269290D01*
X105557Y269191D01*
X105598Y269089D01*
X105627Y269049D01*
X105649Y269004D01*
X105720Y268921D01*
X105784Y268832D01*
X105823Y268800D01*
X105855Y268762D01*
X105945Y268699D01*
X106029Y268629D01*
X106074Y268608D01*
X106115Y268579D01*
X106218Y268540D01*
X106317Y268494D01*
X106366Y268484D01*
X106412Y268467D01*
X106522Y268454D01*
X106629Y268434D01*
X106679Y268437D01*
X106728Y268431D01*
X106837Y268447D01*
X106947Y268454D01*
X106994Y268469D01*
X107043Y268476D01*
X107196Y268528D01*
X110143Y269749D01*
X113377Y269749D01*
X114576Y269252D01*
X114624Y269239D01*
X114669Y269218D01*
X114777Y269197D01*
X114883Y269168D01*
X114933Y269167D01*
X114982Y269158D01*
X115091Y269165D01*
X115201Y269163D01*
X115249Y269175D01*
X115299Y269178D01*
X115403Y269211D01*
X115510Y269237D01*
X115554Y269260D01*
X115601Y269276D01*
X115694Y269334D01*
X115791Y269386D01*
X115828Y269419D01*
X115870Y269446D01*
X115945Y269526D01*
X116027Y269600D01*
X116054Y269641D01*
X116088Y269677D01*
X116141Y269774D01*
X116201Y269865D01*
X116218Y269912D01*
X116242Y269956D01*
X116269Y270062D01*
X116305Y270166D01*
X116309Y270216D01*
X116321Y270264D01*
X116331Y270425D01*
X116331Y270735D01*
X116319Y270834D01*
X116316Y270933D01*
X116299Y270991D01*
X116291Y271051D01*
X116255Y271143D01*
X116227Y271238D01*
X116197Y271290D01*
X116174Y271347D01*
X116116Y271427D01*
X116066Y271512D01*
X116000Y271587D01*
X115988Y271604D01*
X115978Y271612D01*
X115960Y271633D01*
X105917Y281675D01*
X105917Y299212D01*
X105902Y299330D01*
X105895Y299449D01*
X105882Y299487D01*
X105877Y299528D01*
X105834Y299638D01*
X105797Y299751D01*
X105775Y299786D01*
X105760Y299823D01*
X105691Y299919D01*
X105627Y300020D01*
X105597Y300048D01*
X105574Y300081D01*
X105482Y300157D01*
X105395Y300238D01*
X105360Y300258D01*
X105329Y300283D01*
X105221Y300334D01*
X105117Y300392D01*
X105077Y300402D01*
X105041Y300419D01*
X104924Y300441D01*
X104809Y300471D01*
X104749Y300475D01*
X104729Y300479D01*
X104708Y300477D01*
X104648Y300481D01*
X41780Y300481D01*
X41711Y300473D01*
X41641Y300474D01*
X41554Y300453D01*
X41465Y300441D01*
X41400Y300416D01*
X41332Y300399D01*
X41252Y300357D01*
X41169Y300324D01*
X41113Y300283D01*
X41051Y300251D01*
X40984Y300190D01*
X40912Y300138D01*
X40867Y300084D01*
X40815Y300037D01*
X40766Y299962D01*
X40709Y299893D01*
X40679Y299829D01*
X40641Y299771D01*
X40611Y299686D01*
X40573Y299605D01*
X40560Y299536D01*
X40537Y299470D01*
X40530Y299381D01*
X40513Y299293D01*
X40518Y299223D01*
X40512Y299153D01*
X40528Y299065D01*
X40533Y298975D01*
X40555Y298909D01*
X40567Y298840D01*
X40604Y298758D01*
X40631Y298673D01*
X40669Y298614D01*
X40697Y298550D01*
X40753Y298480D01*
X40801Y298404D01*
X40852Y298356D01*
X40896Y298302D01*
X40968Y298247D01*
X41033Y298186D01*
X41094Y298152D01*
X41150Y298110D01*
X41294Y298039D01*
X42895Y297376D01*
X44646Y295625D01*
X45594Y293338D01*
X45594Y290862D01*
X44646Y288575D01*
X42895Y286824D01*
X41710Y286333D01*
X41649Y286298D01*
X41584Y286272D01*
X41512Y286220D01*
X41433Y286175D01*
X41383Y286127D01*
X41327Y286086D01*
X41269Y286016D01*
X41205Y285954D01*
X41169Y285894D01*
X41124Y285841D01*
X41086Y285759D01*
X41039Y285683D01*
X41018Y285616D01*
X40988Y285553D01*
X40972Y285465D01*
X40945Y285379D01*
X40942Y285309D01*
X40929Y285240D01*
X40934Y285151D01*
X40930Y285061D01*
X40944Y284993D01*
X40948Y284923D01*
X40976Y284838D01*
X40994Y284750D01*
X41025Y284687D01*
X41046Y284621D01*
X41095Y284545D01*
X41134Y284464D01*
X41179Y284411D01*
X41217Y284352D01*
X41282Y284290D01*
X41340Y284222D01*
X41397Y284182D01*
X41448Y284134D01*
X41527Y284091D01*
X41600Y284039D01*
X41666Y284014D01*
X41727Y283980D01*
X41814Y283958D01*
X41898Y283926D01*
X41967Y283918D01*
X42035Y283901D01*
X42195Y283891D01*
X44451Y283891D01*
X44451Y276889D01*
X36449Y276889D01*
X36449Y281684D01*
X36622Y282331D01*
X36957Y282910D01*
X37430Y283383D01*
X38009Y283717D01*
X38054Y283751D01*
X38103Y283778D01*
X38180Y283847D01*
X38262Y283909D01*
X38297Y283954D01*
X38339Y283992D01*
X38395Y284078D01*
X38460Y284159D01*
X38483Y284210D01*
X38514Y284257D01*
X38547Y284355D01*
X38589Y284449D01*
X38598Y284505D01*
X38617Y284558D01*
X38625Y284661D01*
X38642Y284763D01*
X38637Y284819D01*
X38642Y284875D01*
X38624Y284977D01*
X38616Y285080D01*
X38597Y285133D01*
X38588Y285188D01*
X38545Y285283D01*
X38511Y285380D01*
X38480Y285427D01*
X38457Y285478D01*
X38392Y285559D01*
X38336Y285645D01*
X38294Y285683D01*
X38258Y285727D01*
X38176Y285789D01*
X38099Y285858D01*
X38049Y285884D01*
X38004Y285918D01*
X37860Y285989D01*
X35845Y286824D01*
X34094Y288575D01*
X33146Y290862D01*
X33146Y293338D01*
X34094Y295625D01*
X35845Y297376D01*
X37446Y298039D01*
X37506Y298074D01*
X37571Y298100D01*
X37644Y298152D01*
X37722Y298197D01*
X37772Y298245D01*
X37828Y298286D01*
X37886Y298356D01*
X37950Y298418D01*
X37987Y298478D01*
X38031Y298531D01*
X38070Y298613D01*
X38117Y298689D01*
X38137Y298756D01*
X38167Y298819D01*
X38184Y298907D01*
X38210Y298993D01*
X38213Y299063D01*
X38227Y299132D01*
X38221Y299221D01*
X38225Y299311D01*
X38211Y299379D01*
X38207Y299449D01*
X38179Y299534D01*
X38161Y299622D01*
X38130Y299685D01*
X38109Y299751D01*
X38061Y299827D01*
X38021Y299908D01*
X37976Y299961D01*
X37939Y300020D01*
X37873Y300082D01*
X37815Y300150D01*
X37758Y300190D01*
X37707Y300238D01*
X37628Y300281D01*
X37555Y300333D01*
X37490Y300358D01*
X37429Y300392D01*
X37342Y300414D01*
X37258Y300446D01*
X37188Y300454D01*
X37121Y300471D01*
X36960Y300481D01*
X27715Y300481D01*
X27616Y300469D01*
X27517Y300466D01*
X27459Y300449D01*
X27399Y300441D01*
X27307Y300405D01*
X27212Y300377D01*
X27160Y300347D01*
X27103Y300324D01*
X27023Y300266D01*
X26938Y300216D01*
X26863Y300150D01*
X26846Y300138D01*
X26838Y300128D01*
X26817Y300110D01*
X24615Y297907D01*
X24597Y297884D01*
X24574Y297865D01*
X24500Y297759D01*
X24420Y297656D01*
X24408Y297629D01*
X24391Y297605D01*
X24345Y297483D01*
X24294Y297364D01*
X24289Y297335D01*
X24278Y297307D01*
X24264Y297178D01*
X24244Y297050D01*
X24247Y297021D01*
X24243Y296991D01*
X24261Y296863D01*
X24274Y296733D01*
X24284Y296706D01*
X24288Y296676D01*
X24340Y296524D01*
X25147Y294576D01*
X25147Y289624D01*
X23252Y285050D01*
X19750Y281548D01*
X17395Y280573D01*
X17275Y280504D01*
X17152Y280439D01*
X17137Y280425D01*
X17119Y280415D01*
X17019Y280318D01*
X16916Y280225D01*
X16905Y280208D01*
X16891Y280194D01*
X16818Y280075D01*
X16742Y279959D01*
X16735Y279940D01*
X16724Y279923D01*
X16684Y279790D01*
X16638Y279658D01*
X16637Y279638D01*
X16631Y279619D01*
X16624Y279480D01*
X16613Y279341D01*
X16617Y279321D01*
X16616Y279301D01*
X16644Y279165D01*
X16668Y279028D01*
X16676Y279009D01*
X16680Y278990D01*
X16741Y278864D01*
X16798Y278738D01*
X16811Y278722D01*
X16820Y278704D01*
X16910Y278598D01*
X16997Y278490D01*
X17013Y278477D01*
X17026Y278462D01*
X17140Y278382D01*
X17251Y278298D01*
X17276Y278286D01*
X17286Y278279D01*
X17305Y278272D01*
X17395Y278227D01*
X19750Y277252D01*
X23252Y273750D01*
X25147Y269176D01*
X25147Y264224D01*
X23252Y259650D01*
X19750Y256148D01*
X17395Y255173D01*
X17275Y255104D01*
X17152Y255039D01*
X17137Y255025D01*
X17119Y255015D01*
X17019Y254918D01*
X16916Y254825D01*
X16905Y254808D01*
X16891Y254794D01*
X16818Y254675D01*
X16742Y254559D01*
X16735Y254540D01*
X16724Y254523D01*
X16684Y254390D01*
X16638Y254258D01*
X16637Y254238D01*
X16631Y254219D01*
X16624Y254080D01*
X16613Y253941D01*
X16617Y253921D01*
X16616Y253901D01*
X16644Y253765D01*
X16668Y253628D01*
X16676Y253609D01*
X16680Y253590D01*
X16741Y253464D01*
X16798Y253338D01*
X16811Y253322D01*
X16820Y253304D01*
X16910Y253198D01*
X16997Y253090D01*
X17013Y253077D01*
X17026Y253062D01*
X17140Y252982D01*
X17251Y252898D01*
X17276Y252886D01*
X17286Y252879D01*
X17305Y252872D01*
X17395Y252827D01*
X19750Y251852D01*
X23252Y248350D01*
X25147Y243776D01*
X25147Y238824D01*
X23252Y234250D01*
X19750Y230748D01*
X16725Y229495D01*
X16699Y229480D01*
X16670Y229471D01*
X16561Y229401D01*
X16448Y229337D01*
X16427Y229316D01*
X16402Y229300D01*
X16313Y229206D01*
X16220Y229116D01*
X16204Y229090D01*
X16184Y229069D01*
X16121Y228955D01*
X16054Y228845D01*
X16045Y228816D01*
X16031Y228790D01*
X15998Y228665D01*
X15960Y228541D01*
X15959Y228511D01*
X15951Y228482D01*
X15951Y228352D01*
X15945Y228223D01*
X15951Y228194D01*
X15951Y228164D01*
X15983Y228039D01*
X16009Y227912D01*
X16022Y227885D01*
X16030Y227856D01*
X16092Y227743D01*
X16149Y227626D01*
X16168Y227603D01*
X16183Y227577D01*
X16271Y227483D01*
X16355Y227384D01*
X16380Y227367D01*
X16400Y227345D01*
X16509Y227276D01*
X16615Y227201D01*
X16643Y227190D01*
X16669Y227174D01*
X16818Y227115D01*
X17283Y226964D01*
X18957Y226111D01*
X20478Y225006D01*
X21806Y223678D01*
X22911Y222157D01*
X23764Y220483D01*
X24345Y218696D01*
X24385Y218439D01*
X13970Y218439D01*
X13852Y218424D01*
X13733Y218417D01*
X13695Y218404D01*
X13655Y218399D01*
X13544Y218356D01*
X13431Y218319D01*
X13397Y218297D01*
X13359Y218282D01*
X13263Y218212D01*
X13162Y218149D01*
X13134Y218119D01*
X13102Y218095D01*
X13026Y218004D01*
X12944Y217917D01*
X12925Y217882D01*
X12899Y217851D01*
X12848Y217743D01*
X12791Y217639D01*
X12780Y217599D01*
X12763Y217563D01*
X12741Y217446D01*
X12711Y217331D01*
X12707Y217270D01*
X12703Y217250D01*
X12705Y217230D01*
X12701Y217170D01*
X12701Y214630D01*
X12716Y214512D01*
X12723Y214393D01*
X12736Y214355D01*
X12741Y214314D01*
X12785Y214204D01*
X12821Y214091D01*
X12843Y214056D01*
X12858Y214019D01*
X12928Y213923D01*
X12991Y213822D01*
X13021Y213794D01*
X13045Y213761D01*
X13136Y213686D01*
X13223Y213604D01*
X13258Y213584D01*
X13290Y213559D01*
X13397Y213508D01*
X13502Y213450D01*
X13541Y213440D01*
X13577Y213423D01*
X13694Y213401D01*
X13809Y213371D01*
X13870Y213367D01*
X13890Y213363D01*
X13910Y213365D01*
X13970Y213361D01*
X24385Y213361D01*
X24345Y213104D01*
X23764Y211317D01*
X22911Y209643D01*
X21806Y208122D01*
X20478Y206794D01*
X18957Y205689D01*
X17283Y204836D01*
X16818Y204685D01*
X16791Y204672D01*
X16762Y204665D01*
X16648Y204605D01*
X16530Y204550D01*
X16507Y204531D01*
X16481Y204517D01*
X16385Y204430D01*
X16285Y204347D01*
X16268Y204323D01*
X16246Y204303D01*
X16174Y204194D01*
X16098Y204090D01*
X16087Y204062D01*
X16071Y204037D01*
X16029Y203914D01*
X15981Y203794D01*
X15977Y203764D01*
X15968Y203736D01*
X15957Y203607D01*
X15941Y203479D01*
X15945Y203449D01*
X15942Y203419D01*
X15965Y203291D01*
X15981Y203163D01*
X15992Y203135D01*
X15997Y203106D01*
X16050Y202988D01*
X16098Y202867D01*
X16115Y202843D01*
X16127Y202816D01*
X16208Y202715D01*
X16284Y202610D01*
X16307Y202591D01*
X16326Y202567D01*
X16430Y202489D01*
X16529Y202407D01*
X16556Y202394D01*
X16580Y202376D01*
X16725Y202305D01*
X19751Y201052D01*
X20471Y200331D01*
X20565Y200259D01*
X20654Y200180D01*
X20690Y200161D01*
X20722Y200137D01*
X20831Y200089D01*
X20937Y200035D01*
X20977Y200026D01*
X21014Y200010D01*
X21132Y199991D01*
X21248Y199965D01*
X21288Y199967D01*
X21328Y199960D01*
X21447Y199971D01*
G37*
G36*
X106798Y4080D02*
X106798Y4080D01*
X106917Y4087D01*
X106955Y4100D01*
X106996Y4105D01*
X107106Y4148D01*
X107219Y4185D01*
X107254Y4207D01*
X107291Y4222D01*
X107387Y4291D01*
X107488Y4355D01*
X107516Y4385D01*
X107549Y4408D01*
X107625Y4500D01*
X107706Y4587D01*
X107726Y4622D01*
X107751Y4653D01*
X107802Y4761D01*
X107860Y4865D01*
X107870Y4905D01*
X107887Y4941D01*
X107909Y5058D01*
X107939Y5173D01*
X107943Y5233D01*
X107947Y5253D01*
X107945Y5274D01*
X107949Y5334D01*
X107949Y5716D01*
X117475Y5716D01*
X117593Y5731D01*
X117712Y5738D01*
X117750Y5750D01*
X117790Y5756D01*
X117901Y5799D01*
X118014Y5836D01*
X118048Y5858D01*
X118086Y5873D01*
X118112Y5891D01*
X118172Y5863D01*
X118277Y5805D01*
X118316Y5795D01*
X118352Y5778D01*
X118469Y5756D01*
X118585Y5726D01*
X118645Y5722D01*
X118665Y5718D01*
X118685Y5720D01*
X118745Y5716D01*
X128350Y5716D01*
X128468Y5731D01*
X128587Y5738D01*
X128625Y5750D01*
X128666Y5756D01*
X128776Y5799D01*
X128889Y5836D01*
X128924Y5858D01*
X128961Y5873D01*
X129057Y5942D01*
X129153Y6003D01*
X135930Y6003D01*
X136048Y6018D01*
X136167Y6025D01*
X136205Y6037D01*
X136245Y6043D01*
X136356Y6086D01*
X136469Y6123D01*
X136503Y6145D01*
X136541Y6160D01*
X136637Y6229D01*
X136738Y6293D01*
X136766Y6323D01*
X136798Y6346D01*
X136874Y6438D01*
X136956Y6525D01*
X136975Y6560D01*
X137001Y6591D01*
X137052Y6699D01*
X137109Y6803D01*
X137119Y6843D01*
X137137Y6879D01*
X137157Y6986D01*
X137161Y6956D01*
X137205Y6846D01*
X137241Y6733D01*
X137263Y6698D01*
X137278Y6661D01*
X137348Y6564D01*
X137411Y6464D01*
X137441Y6436D01*
X137465Y6403D01*
X137556Y6327D01*
X137643Y6246D01*
X137678Y6226D01*
X137710Y6201D01*
X137817Y6150D01*
X137922Y6092D01*
X137961Y6082D01*
X137997Y6065D01*
X138114Y6043D01*
X138230Y6013D01*
X138290Y6009D01*
X138310Y6005D01*
X138330Y6007D01*
X138390Y6003D01*
X144701Y6003D01*
X144701Y5334D01*
X144716Y5216D01*
X144723Y5097D01*
X144736Y5059D01*
X144741Y5018D01*
X144784Y4908D01*
X144821Y4795D01*
X144843Y4760D01*
X144858Y4723D01*
X144927Y4627D01*
X144991Y4526D01*
X145021Y4498D01*
X145044Y4465D01*
X145136Y4389D01*
X145223Y4308D01*
X145258Y4288D01*
X145289Y4263D01*
X145397Y4212D01*
X145501Y4154D01*
X145541Y4144D01*
X145577Y4127D01*
X145694Y4105D01*
X145809Y4075D01*
X145869Y4071D01*
X145889Y4067D01*
X145910Y4069D01*
X145970Y4065D01*
X153305Y4065D01*
X153354Y4071D01*
X153404Y4069D01*
X153511Y4091D01*
X153621Y4105D01*
X153667Y4123D01*
X153715Y4133D01*
X153814Y4181D01*
X153916Y4222D01*
X153956Y4251D01*
X154001Y4273D01*
X154085Y4344D01*
X154174Y4408D01*
X154205Y4447D01*
X154243Y4479D01*
X154306Y4569D01*
X154376Y4653D01*
X154398Y4698D01*
X154426Y4739D01*
X154465Y4842D01*
X154512Y4941D01*
X154521Y4990D01*
X154539Y5036D01*
X154551Y5146D01*
X154572Y5253D01*
X154569Y5303D01*
X154574Y5352D01*
X154559Y5461D01*
X154552Y5571D01*
X154537Y5618D01*
X154530Y5667D01*
X154478Y5820D01*
X152653Y10224D01*
X152653Y15176D01*
X154548Y19750D01*
X158050Y23252D01*
X160405Y24227D01*
X160525Y24296D01*
X160648Y24361D01*
X160663Y24375D01*
X160681Y24385D01*
X160781Y24482D01*
X160884Y24575D01*
X160895Y24592D01*
X160909Y24606D01*
X160982Y24725D01*
X161058Y24841D01*
X161065Y24860D01*
X161076Y24877D01*
X161117Y25010D01*
X161162Y25142D01*
X161163Y25162D01*
X161169Y25181D01*
X161176Y25320D01*
X161187Y25459D01*
X161183Y25479D01*
X161184Y25499D01*
X161156Y25635D01*
X161132Y25772D01*
X161124Y25791D01*
X161120Y25810D01*
X161059Y25936D01*
X161002Y26062D01*
X160989Y26078D01*
X160980Y26096D01*
X160890Y26202D01*
X160803Y26310D01*
X160787Y26323D01*
X160774Y26338D01*
X160660Y26418D01*
X160549Y26502D01*
X160524Y26514D01*
X160514Y26521D01*
X160495Y26528D01*
X160405Y26573D01*
X158049Y27548D01*
X154548Y31050D01*
X152653Y35624D01*
X152653Y40576D01*
X154548Y45150D01*
X158050Y48652D01*
X160405Y49627D01*
X160525Y49696D01*
X160648Y49761D01*
X160663Y49775D01*
X160681Y49785D01*
X160781Y49882D01*
X160884Y49975D01*
X160895Y49992D01*
X160909Y50006D01*
X160982Y50125D01*
X161058Y50241D01*
X161065Y50260D01*
X161076Y50277D01*
X161117Y50410D01*
X161162Y50542D01*
X161163Y50562D01*
X161169Y50581D01*
X161176Y50720D01*
X161187Y50859D01*
X161183Y50879D01*
X161184Y50899D01*
X161156Y51035D01*
X161132Y51172D01*
X161124Y51191D01*
X161120Y51210D01*
X161059Y51336D01*
X161002Y51462D01*
X160989Y51478D01*
X160980Y51496D01*
X160890Y51602D01*
X160803Y51710D01*
X160787Y51723D01*
X160774Y51738D01*
X160660Y51818D01*
X160549Y51902D01*
X160524Y51914D01*
X160514Y51921D01*
X160495Y51928D01*
X160405Y51973D01*
X158049Y52948D01*
X154548Y56450D01*
X153254Y59574D01*
X153229Y59617D01*
X153212Y59664D01*
X153151Y59755D01*
X153096Y59851D01*
X153062Y59886D01*
X153034Y59927D01*
X152951Y60000D01*
X152875Y60079D01*
X152833Y60105D01*
X152795Y60138D01*
X152698Y60188D01*
X152604Y60245D01*
X152556Y60260D01*
X152512Y60282D01*
X152405Y60307D01*
X152300Y60339D01*
X152250Y60341D01*
X152202Y60352D01*
X152092Y60349D01*
X151982Y60354D01*
X151934Y60344D01*
X151884Y60342D01*
X151778Y60312D01*
X151671Y60290D01*
X151626Y60268D01*
X151578Y60254D01*
X151484Y60198D01*
X151385Y60150D01*
X151347Y60118D01*
X151305Y60092D01*
X151184Y59986D01*
X145580Y54383D01*
X145520Y54305D01*
X145452Y54232D01*
X145423Y54179D01*
X145386Y54132D01*
X145346Y54041D01*
X145298Y53954D01*
X145283Y53895D01*
X145259Y53840D01*
X145244Y53742D01*
X145219Y53646D01*
X145213Y53546D01*
X145209Y53526D01*
X145211Y53513D01*
X145209Y53485D01*
X145209Y50759D01*
X144369Y49920D01*
X144296Y49826D01*
X144217Y49736D01*
X144199Y49700D01*
X144174Y49668D01*
X144127Y49559D01*
X144073Y49453D01*
X144064Y49414D01*
X144048Y49376D01*
X144029Y49259D01*
X144003Y49143D01*
X144004Y49102D01*
X143998Y49062D01*
X144009Y48944D01*
X144013Y48825D01*
X144024Y48786D01*
X144028Y48746D01*
X144068Y48633D01*
X144101Y48519D01*
X144122Y48485D01*
X144135Y48446D01*
X144202Y48348D01*
X144263Y48245D01*
X144303Y48200D01*
X144314Y48183D01*
X144329Y48170D01*
X144369Y48125D01*
X145209Y47285D01*
X145209Y33759D01*
X144940Y33490D01*
X144867Y33396D01*
X144788Y33307D01*
X144770Y33271D01*
X144745Y33239D01*
X144697Y33130D01*
X144643Y33024D01*
X144635Y32984D01*
X144618Y32947D01*
X144600Y32829D01*
X144574Y32713D01*
X144575Y32673D01*
X144569Y32633D01*
X144580Y32514D01*
X144583Y32395D01*
X144595Y32357D01*
X144598Y32316D01*
X144639Y32204D01*
X144672Y32090D01*
X144692Y32055D01*
X144706Y32017D01*
X144773Y31919D01*
X144833Y31816D01*
X144873Y31771D01*
X144885Y31754D01*
X144900Y31740D01*
X144940Y31695D01*
X145209Y31426D01*
X145209Y20658D01*
X142184Y17633D01*
X142107Y17534D01*
X142025Y17438D01*
X142010Y17408D01*
X141989Y17382D01*
X141939Y17266D01*
X141883Y17154D01*
X141876Y17121D01*
X141863Y17090D01*
X141843Y16965D01*
X141817Y16843D01*
X141818Y16809D01*
X141813Y16776D01*
X141825Y16650D01*
X141830Y16525D01*
X141839Y16493D01*
X141843Y16459D01*
X141885Y16340D01*
X141921Y16220D01*
X141939Y16192D01*
X141950Y16160D01*
X142021Y16056D01*
X142086Y15948D01*
X142110Y15925D01*
X142129Y15897D01*
X142223Y15814D01*
X142313Y15725D01*
X142353Y15698D01*
X142367Y15686D01*
X142386Y15676D01*
X142447Y15636D01*
X143141Y15235D01*
X143893Y14483D01*
X144425Y13562D01*
X144701Y12534D01*
X144701Y11001D01*
X138390Y11001D01*
X138272Y10986D01*
X138153Y10979D01*
X138115Y10966D01*
X138075Y10961D01*
X137964Y10918D01*
X137851Y10881D01*
X137817Y10859D01*
X137779Y10844D01*
X137683Y10775D01*
X137582Y10711D01*
X137554Y10681D01*
X137522Y10658D01*
X137446Y10566D01*
X137364Y10479D01*
X137345Y10444D01*
X137319Y10413D01*
X137268Y10305D01*
X137211Y10201D01*
X137201Y10161D01*
X137183Y10125D01*
X137163Y10018D01*
X137159Y10048D01*
X137115Y10158D01*
X137079Y10271D01*
X137057Y10306D01*
X137042Y10343D01*
X136972Y10439D01*
X136909Y10540D01*
X136879Y10568D01*
X136855Y10601D01*
X136764Y10677D01*
X136677Y10758D01*
X136642Y10778D01*
X136610Y10803D01*
X136503Y10854D01*
X136398Y10912D01*
X136359Y10922D01*
X136323Y10939D01*
X136206Y10961D01*
X136090Y10991D01*
X136030Y10995D01*
X136010Y10999D01*
X135990Y10997D01*
X135930Y11001D01*
X129540Y11001D01*
X129422Y10986D01*
X129303Y10979D01*
X129265Y10966D01*
X129224Y10961D01*
X129114Y10918D01*
X129001Y10881D01*
X128966Y10859D01*
X128929Y10844D01*
X128833Y10775D01*
X128732Y10711D01*
X128704Y10681D01*
X128671Y10658D01*
X128595Y10566D01*
X128514Y10479D01*
X128494Y10444D01*
X128469Y10413D01*
X128418Y10305D01*
X128360Y10201D01*
X128350Y10161D01*
X128333Y10125D01*
X128311Y10008D01*
X128281Y9893D01*
X128277Y9833D01*
X128273Y9813D01*
X128275Y9792D01*
X128271Y9732D01*
X128271Y9524D01*
X120014Y9524D01*
X120014Y13971D01*
X126064Y13971D01*
X126711Y13798D01*
X127290Y13463D01*
X127769Y12984D01*
X127874Y12903D01*
X127975Y12818D01*
X127999Y12806D01*
X128020Y12789D01*
X128141Y12737D01*
X128261Y12679D01*
X128287Y12674D01*
X128312Y12663D01*
X128443Y12642D01*
X128573Y12616D01*
X128599Y12617D01*
X128626Y12613D01*
X128758Y12626D01*
X128890Y12632D01*
X128916Y12640D01*
X128943Y12643D01*
X129067Y12688D01*
X129194Y12727D01*
X129217Y12741D01*
X129242Y12750D01*
X129351Y12825D01*
X129464Y12895D01*
X129483Y12914D01*
X129505Y12929D01*
X129593Y13028D01*
X129685Y13124D01*
X129698Y13147D01*
X129716Y13167D01*
X129776Y13286D01*
X129841Y13401D01*
X129853Y13437D01*
X129860Y13451D01*
X129865Y13472D01*
X129892Y13553D01*
X129895Y13562D01*
X130427Y14483D01*
X131179Y15235D01*
X131873Y15636D01*
X131973Y15712D01*
X132077Y15783D01*
X132100Y15808D01*
X132127Y15829D01*
X132205Y15927D01*
X132288Y16021D01*
X132303Y16051D01*
X132324Y16078D01*
X132375Y16193D01*
X132433Y16305D01*
X132440Y16337D01*
X132454Y16368D01*
X132475Y16492D01*
X132502Y16615D01*
X132501Y16648D01*
X132507Y16682D01*
X132496Y16807D01*
X132493Y16933D01*
X132483Y16965D01*
X132480Y16999D01*
X132439Y17118D01*
X132404Y17238D01*
X132387Y17267D01*
X132376Y17299D01*
X132306Y17404D01*
X132243Y17512D01*
X132210Y17549D01*
X132200Y17564D01*
X132184Y17579D01*
X132136Y17633D01*
X129713Y20056D01*
X129619Y20129D01*
X129530Y20208D01*
X129494Y20226D01*
X129462Y20251D01*
X129352Y20299D01*
X129246Y20353D01*
X129207Y20361D01*
X129170Y20378D01*
X129052Y20396D01*
X128936Y20422D01*
X128896Y20421D01*
X128856Y20427D01*
X128737Y20416D01*
X128618Y20413D01*
X128579Y20401D01*
X128539Y20398D01*
X128427Y20357D01*
X128313Y20324D01*
X128278Y20304D01*
X128240Y20290D01*
X128141Y20223D01*
X128039Y20163D01*
X128003Y20131D01*
X125698Y19176D01*
X123222Y19176D01*
X120935Y20124D01*
X119184Y21875D01*
X118236Y24162D01*
X118236Y26638D01*
X119184Y28925D01*
X120935Y30676D01*
X123222Y31624D01*
X125698Y31624D01*
X127468Y30891D01*
X127496Y30883D01*
X127523Y30869D01*
X127650Y30841D01*
X127774Y30807D01*
X127804Y30806D01*
X127833Y30800D01*
X127962Y30804D01*
X128092Y30802D01*
X128121Y30809D01*
X128151Y30809D01*
X128275Y30845D01*
X128402Y30876D01*
X128428Y30890D01*
X128456Y30898D01*
X128568Y30964D01*
X128683Y31025D01*
X128705Y31044D01*
X128730Y31059D01*
X128851Y31166D01*
X129380Y31695D01*
X129453Y31789D01*
X129532Y31878D01*
X129550Y31915D01*
X129575Y31946D01*
X129623Y32056D01*
X129677Y32162D01*
X129685Y32201D01*
X129702Y32238D01*
X129720Y32356D01*
X129746Y32472D01*
X129745Y32512D01*
X129751Y32552D01*
X129740Y32671D01*
X129737Y32790D01*
X129725Y32829D01*
X129722Y32869D01*
X129681Y32981D01*
X129648Y33095D01*
X129628Y33130D01*
X129614Y33168D01*
X129547Y33267D01*
X129487Y33369D01*
X129447Y33415D01*
X129435Y33431D01*
X129420Y33445D01*
X129380Y33490D01*
X129111Y33759D01*
X129111Y37915D01*
X129094Y38053D01*
X129081Y38192D01*
X129074Y38211D01*
X129071Y38231D01*
X129020Y38360D01*
X128973Y38491D01*
X128962Y38508D01*
X128954Y38527D01*
X128873Y38639D01*
X128795Y38754D01*
X128779Y38768D01*
X128768Y38784D01*
X128660Y38873D01*
X128556Y38965D01*
X128538Y38974D01*
X128523Y38987D01*
X128397Y39046D01*
X128273Y39109D01*
X128253Y39114D01*
X128235Y39122D01*
X128099Y39148D01*
X127963Y39179D01*
X127942Y39178D01*
X127923Y39182D01*
X127784Y39174D01*
X127645Y39169D01*
X127625Y39164D01*
X127605Y39162D01*
X127473Y39119D01*
X127339Y39081D01*
X127322Y39071D01*
X127303Y39064D01*
X127185Y38990D01*
X127065Y38919D01*
X127044Y38901D01*
X127034Y38894D01*
X127020Y38879D01*
X126999Y38861D01*
X109227Y38861D01*
X107155Y40933D01*
X107151Y40940D01*
X107121Y40968D01*
X107098Y41001D01*
X107006Y41077D01*
X106919Y41158D01*
X106884Y41178D01*
X106853Y41203D01*
X106745Y41254D01*
X106641Y41312D01*
X106601Y41322D01*
X106565Y41339D01*
X106448Y41361D01*
X106333Y41391D01*
X106273Y41395D01*
X106253Y41399D01*
X106232Y41397D01*
X106172Y41401D01*
X96603Y41401D01*
X96505Y41389D01*
X96406Y41386D01*
X96347Y41369D01*
X96287Y41361D01*
X96195Y41325D01*
X96100Y41297D01*
X96048Y41267D01*
X95992Y41244D01*
X95912Y41186D01*
X95826Y41136D01*
X95751Y41070D01*
X95734Y41058D01*
X95726Y41048D01*
X95705Y41030D01*
X93505Y38829D01*
X90517Y37591D01*
X87283Y37591D01*
X84295Y38829D01*
X82095Y41030D01*
X82016Y41090D01*
X81944Y41158D01*
X81891Y41187D01*
X81843Y41224D01*
X81752Y41264D01*
X81666Y41312D01*
X81607Y41327D01*
X81552Y41351D01*
X81454Y41366D01*
X81358Y41391D01*
X81258Y41397D01*
X81237Y41401D01*
X81225Y41399D01*
X81197Y41401D01*
X74168Y41401D01*
X74050Y41386D01*
X73931Y41379D01*
X73893Y41366D01*
X73852Y41361D01*
X73742Y41318D01*
X73629Y41281D01*
X73594Y41259D01*
X73557Y41244D01*
X73461Y41175D01*
X73360Y41111D01*
X73332Y41081D01*
X73299Y41058D01*
X73253Y41001D01*
X71113Y38861D01*
X65869Y38861D01*
X65731Y38844D01*
X65592Y38831D01*
X65573Y38824D01*
X65553Y38821D01*
X65424Y38770D01*
X65293Y38723D01*
X65276Y38712D01*
X65258Y38704D01*
X65145Y38623D01*
X65030Y38545D01*
X65017Y38529D01*
X65000Y38518D01*
X64911Y38410D01*
X64819Y38306D01*
X64810Y38288D01*
X64797Y38273D01*
X64738Y38147D01*
X64675Y38023D01*
X64670Y38003D01*
X64662Y37985D01*
X64636Y37848D01*
X64605Y37713D01*
X64606Y37692D01*
X64602Y37673D01*
X64611Y37534D01*
X64615Y37395D01*
X64621Y37375D01*
X64622Y37355D01*
X64665Y37223D01*
X64703Y37089D01*
X64714Y37072D01*
X64720Y37053D01*
X64794Y36935D01*
X64865Y36815D01*
X64883Y36794D01*
X64890Y36784D01*
X64905Y36770D01*
X64971Y36695D01*
X66581Y35085D01*
X67819Y32097D01*
X67819Y28863D01*
X66581Y25875D01*
X64295Y23589D01*
X61307Y22351D01*
X58073Y22351D01*
X55270Y23512D01*
X55222Y23526D01*
X55177Y23547D01*
X55069Y23567D01*
X54963Y23596D01*
X54913Y23597D01*
X54864Y23607D01*
X54755Y23600D01*
X54645Y23601D01*
X54597Y23590D01*
X54547Y23587D01*
X54443Y23553D01*
X54336Y23527D01*
X54292Y23504D01*
X54245Y23489D01*
X54152Y23430D01*
X54055Y23379D01*
X54018Y23345D01*
X53976Y23319D01*
X53901Y23239D01*
X53819Y23165D01*
X53792Y23123D01*
X53758Y23087D01*
X53705Y22991D01*
X53645Y22899D01*
X53628Y22852D01*
X53604Y22808D01*
X53577Y22702D01*
X53541Y22598D01*
X53537Y22549D01*
X53525Y22501D01*
X53515Y22340D01*
X53515Y22311D01*
X52316Y21112D01*
X52243Y21018D01*
X52164Y20929D01*
X52146Y20893D01*
X52121Y20861D01*
X52074Y20752D01*
X52019Y20646D01*
X52011Y20606D01*
X51995Y20569D01*
X51976Y20451D01*
X51950Y20335D01*
X51951Y20295D01*
X51945Y20255D01*
X51956Y20136D01*
X51959Y20018D01*
X51971Y19979D01*
X51975Y19938D01*
X52015Y19826D01*
X52048Y19712D01*
X52068Y19677D01*
X52082Y19639D01*
X52149Y19541D01*
X52209Y19438D01*
X52249Y19393D01*
X52261Y19376D01*
X52276Y19363D01*
X52316Y19317D01*
X52499Y19134D01*
X52834Y18555D01*
X53007Y17908D01*
X53007Y15240D01*
X53022Y15122D01*
X53029Y15003D01*
X53042Y14965D01*
X53047Y14924D01*
X53090Y14814D01*
X53127Y14701D01*
X53149Y14666D01*
X53164Y14629D01*
X53234Y14532D01*
X53297Y14432D01*
X53327Y14404D01*
X53350Y14371D01*
X53442Y14295D01*
X53529Y14214D01*
X53564Y14194D01*
X53595Y14169D01*
X53703Y14118D01*
X53807Y14060D01*
X53847Y14050D01*
X53883Y14033D01*
X54000Y14011D01*
X54115Y13981D01*
X54175Y13977D01*
X54195Y13973D01*
X54216Y13975D01*
X54276Y13971D01*
X60326Y13971D01*
X60326Y8255D01*
X60341Y8137D01*
X60348Y8018D01*
X60360Y7980D01*
X60366Y7940D01*
X60409Y7829D01*
X60446Y7716D01*
X60468Y7682D01*
X60483Y7644D01*
X60552Y7548D01*
X60616Y7447D01*
X60646Y7419D01*
X60669Y7387D01*
X60761Y7311D01*
X60848Y7229D01*
X60883Y7210D01*
X60914Y7184D01*
X61022Y7133D01*
X61126Y7076D01*
X61166Y7066D01*
X61202Y7048D01*
X61319Y7026D01*
X61434Y6996D01*
X61494Y6992D01*
X61514Y6989D01*
X61535Y6990D01*
X61595Y6986D01*
X61596Y6986D01*
X61596Y6985D01*
X61611Y6867D01*
X61618Y6748D01*
X61631Y6710D01*
X61636Y6669D01*
X61680Y6559D01*
X61716Y6446D01*
X61738Y6411D01*
X61753Y6374D01*
X61823Y6277D01*
X61886Y6177D01*
X61916Y6149D01*
X61940Y6116D01*
X62031Y6040D01*
X62118Y5959D01*
X62153Y5939D01*
X62185Y5914D01*
X62292Y5863D01*
X62397Y5805D01*
X62436Y5795D01*
X62472Y5778D01*
X62589Y5756D01*
X62705Y5726D01*
X62765Y5722D01*
X62785Y5718D01*
X62805Y5720D01*
X62865Y5716D01*
X72391Y5716D01*
X72391Y5334D01*
X72406Y5216D01*
X72413Y5097D01*
X72426Y5059D01*
X72431Y5018D01*
X72474Y4908D01*
X72511Y4795D01*
X72533Y4760D01*
X72548Y4723D01*
X72617Y4627D01*
X72681Y4526D01*
X72711Y4498D01*
X72734Y4465D01*
X72826Y4389D01*
X72913Y4308D01*
X72948Y4288D01*
X72979Y4263D01*
X73087Y4212D01*
X73191Y4154D01*
X73231Y4144D01*
X73267Y4127D01*
X73384Y4105D01*
X73499Y4075D01*
X73559Y4071D01*
X73579Y4067D01*
X73600Y4069D01*
X73660Y4065D01*
X106680Y4065D01*
X106798Y4080D01*
G37*
G36*
X81295Y50051D02*
X81295Y50051D01*
X81394Y50054D01*
X81453Y50071D01*
X81513Y50079D01*
X81605Y50115D01*
X81700Y50143D01*
X81752Y50173D01*
X81808Y50196D01*
X81888Y50254D01*
X81974Y50304D01*
X82049Y50370D01*
X82066Y50382D01*
X82074Y50392D01*
X82095Y50410D01*
X84295Y52611D01*
X87283Y53849D01*
X90517Y53849D01*
X93505Y52611D01*
X95705Y50410D01*
X95784Y50350D01*
X95856Y50282D01*
X95909Y50253D01*
X95957Y50216D01*
X96048Y50176D01*
X96134Y50128D01*
X96193Y50113D01*
X96248Y50089D01*
X96346Y50074D01*
X96442Y50049D01*
X96542Y50043D01*
X96563Y50039D01*
X96575Y50041D01*
X96603Y50039D01*
X106172Y50039D01*
X106290Y50054D01*
X106409Y50061D01*
X106447Y50074D01*
X106488Y50079D01*
X106598Y50122D01*
X106711Y50159D01*
X106746Y50181D01*
X106783Y50196D01*
X106879Y50265D01*
X106980Y50329D01*
X107008Y50359D01*
X107041Y50382D01*
X107087Y50439D01*
X109227Y52579D01*
X127251Y52579D01*
X127389Y52596D01*
X127528Y52609D01*
X127547Y52616D01*
X127567Y52619D01*
X127696Y52670D01*
X127827Y52717D01*
X127844Y52728D01*
X127863Y52736D01*
X127975Y52817D01*
X128090Y52895D01*
X128104Y52911D01*
X128120Y52922D01*
X128209Y53030D01*
X128301Y53134D01*
X128310Y53152D01*
X128323Y53167D01*
X128382Y53293D01*
X128445Y53417D01*
X128450Y53437D01*
X128458Y53455D01*
X128484Y53591D01*
X128515Y53727D01*
X128514Y53748D01*
X128518Y53767D01*
X128509Y53906D01*
X128505Y54045D01*
X128500Y54065D01*
X128498Y54085D01*
X128456Y54217D01*
X128417Y54351D01*
X128407Y54368D01*
X128400Y54387D01*
X128326Y54505D01*
X128255Y54625D01*
X128237Y54646D01*
X128230Y54656D01*
X128215Y54670D01*
X128149Y54745D01*
X121561Y61334D01*
X108377Y74518D01*
X108299Y74578D01*
X108226Y74646D01*
X108173Y74675D01*
X108126Y74712D01*
X108035Y74752D01*
X107948Y74800D01*
X107889Y74815D01*
X107834Y74839D01*
X107736Y74854D01*
X107640Y74879D01*
X107540Y74885D01*
X107520Y74889D01*
X107507Y74887D01*
X107479Y74889D01*
X101169Y74889D01*
X101169Y79044D01*
X101157Y79142D01*
X101154Y79241D01*
X101137Y79300D01*
X101129Y79360D01*
X101093Y79452D01*
X101065Y79547D01*
X101035Y79599D01*
X101012Y79655D01*
X100954Y79735D01*
X100904Y79821D01*
X100838Y79896D01*
X100826Y79913D01*
X100816Y79920D01*
X100798Y79942D01*
X95385Y85354D01*
X95276Y85439D01*
X95169Y85528D01*
X95150Y85536D01*
X95134Y85549D01*
X95006Y85604D01*
X94881Y85663D01*
X94861Y85667D01*
X94842Y85675D01*
X94704Y85697D01*
X94568Y85723D01*
X94548Y85722D01*
X94528Y85725D01*
X94389Y85712D01*
X94251Y85703D01*
X94232Y85697D01*
X94212Y85695D01*
X94080Y85648D01*
X93949Y85605D01*
X93931Y85594D01*
X93912Y85587D01*
X93797Y85509D01*
X93680Y85435D01*
X93666Y85420D01*
X93649Y85409D01*
X93557Y85305D01*
X93462Y85203D01*
X93452Y85186D01*
X93439Y85170D01*
X93375Y85046D01*
X93308Y84925D01*
X93303Y84905D01*
X93294Y84887D01*
X93264Y84751D01*
X93229Y84617D01*
X93227Y84589D01*
X93224Y84577D01*
X93225Y84556D01*
X93219Y84456D01*
X93219Y81200D01*
X93234Y81082D01*
X93241Y80963D01*
X93254Y80925D01*
X93259Y80884D01*
X93302Y80774D01*
X93339Y80661D01*
X93361Y80626D01*
X93376Y80589D01*
X93445Y80493D01*
X93509Y80392D01*
X93539Y80364D01*
X93562Y80331D01*
X93654Y80255D01*
X93741Y80174D01*
X93776Y80154D01*
X93807Y80129D01*
X93915Y80078D01*
X94019Y80020D01*
X94059Y80010D01*
X94095Y79993D01*
X94212Y79971D01*
X94327Y79941D01*
X94387Y79937D01*
X94407Y79933D01*
X94428Y79935D01*
X94488Y79931D01*
X96171Y79931D01*
X96171Y73620D01*
X96186Y73502D01*
X96193Y73383D01*
X96205Y73345D01*
X96211Y73305D01*
X96254Y73194D01*
X96291Y73081D01*
X96313Y73047D01*
X96328Y73009D01*
X96397Y72913D01*
X96461Y72812D01*
X96491Y72784D01*
X96514Y72752D01*
X96606Y72676D01*
X96693Y72594D01*
X96728Y72575D01*
X96759Y72549D01*
X96867Y72498D01*
X96971Y72441D01*
X97011Y72431D01*
X97047Y72413D01*
X97154Y72393D01*
X97124Y72389D01*
X97014Y72345D01*
X96901Y72309D01*
X96866Y72287D01*
X96829Y72272D01*
X96732Y72202D01*
X96632Y72139D01*
X96604Y72109D01*
X96571Y72085D01*
X96495Y71994D01*
X96414Y71907D01*
X96394Y71872D01*
X96369Y71840D01*
X96318Y71733D01*
X96260Y71628D01*
X96250Y71589D01*
X96233Y71553D01*
X96211Y71436D01*
X96181Y71320D01*
X96177Y71260D01*
X96173Y71240D01*
X96175Y71220D01*
X96171Y71160D01*
X96171Y64849D01*
X92836Y64849D01*
X92189Y65022D01*
X91610Y65357D01*
X91427Y65540D01*
X91333Y65613D01*
X91243Y65692D01*
X91207Y65710D01*
X91175Y65735D01*
X91066Y65782D01*
X90960Y65837D01*
X90921Y65845D01*
X90884Y65861D01*
X90766Y65880D01*
X90650Y65906D01*
X90609Y65905D01*
X90569Y65911D01*
X90451Y65900D01*
X90332Y65897D01*
X90293Y65885D01*
X90253Y65881D01*
X90141Y65841D01*
X90026Y65808D01*
X89992Y65788D01*
X89954Y65774D01*
X89855Y65707D01*
X89753Y65647D01*
X89707Y65607D01*
X89690Y65595D01*
X89677Y65580D01*
X89632Y65540D01*
X88433Y64341D01*
X74907Y64341D01*
X73121Y66127D01*
X73121Y66802D01*
X73106Y66920D01*
X73099Y67039D01*
X73086Y67077D01*
X73081Y67118D01*
X73038Y67228D01*
X73001Y67341D01*
X72979Y67376D01*
X72964Y67413D01*
X72895Y67509D01*
X72831Y67610D01*
X72801Y67638D01*
X72778Y67671D01*
X72686Y67747D01*
X72599Y67828D01*
X72564Y67848D01*
X72533Y67873D01*
X72425Y67924D01*
X72321Y67982D01*
X72281Y67992D01*
X72245Y68009D01*
X72128Y68031D01*
X72013Y68061D01*
X71953Y68065D01*
X71933Y68069D01*
X71912Y68067D01*
X71852Y68071D01*
X54784Y68071D01*
X54666Y68056D01*
X54547Y68049D01*
X54509Y68036D01*
X54468Y68031D01*
X54358Y67988D01*
X54245Y67951D01*
X54210Y67929D01*
X54173Y67914D01*
X54077Y67845D01*
X53976Y67781D01*
X53948Y67751D01*
X53915Y67728D01*
X53839Y67636D01*
X53758Y67549D01*
X53738Y67514D01*
X53713Y67483D01*
X53662Y67375D01*
X53604Y67271D01*
X53594Y67231D01*
X53577Y67195D01*
X53555Y67078D01*
X53525Y66963D01*
X53521Y66903D01*
X53517Y66883D01*
X53519Y66862D01*
X53515Y66802D01*
X53515Y53848D01*
X53530Y53730D01*
X53537Y53611D01*
X53550Y53573D01*
X53555Y53532D01*
X53598Y53422D01*
X53635Y53309D01*
X53657Y53274D01*
X53672Y53237D01*
X53741Y53141D01*
X53805Y53040D01*
X53835Y53012D01*
X53858Y52979D01*
X53950Y52903D01*
X54037Y52822D01*
X54072Y52802D01*
X54103Y52777D01*
X54211Y52726D01*
X54315Y52668D01*
X54355Y52658D01*
X54391Y52641D01*
X54508Y52619D01*
X54623Y52589D01*
X54683Y52585D01*
X54703Y52581D01*
X54724Y52583D01*
X54784Y52579D01*
X71113Y52579D01*
X73185Y50507D01*
X73189Y50500D01*
X73219Y50472D01*
X73242Y50439D01*
X73334Y50363D01*
X73421Y50282D01*
X73456Y50262D01*
X73487Y50237D01*
X73595Y50186D01*
X73699Y50128D01*
X73739Y50118D01*
X73775Y50101D01*
X73892Y50079D01*
X74007Y50049D01*
X74067Y50045D01*
X74087Y50041D01*
X74108Y50043D01*
X74168Y50039D01*
X81197Y50039D01*
X81295Y50051D01*
G37*
G36*
X121980Y110918D02*
X121980Y110918D01*
X122099Y110921D01*
X122138Y110933D01*
X122178Y110936D01*
X122290Y110977D01*
X122405Y111010D01*
X122439Y111030D01*
X122478Y111044D01*
X122576Y111111D01*
X122679Y111171D01*
X122724Y111211D01*
X122741Y111223D01*
X122754Y111238D01*
X122799Y111278D01*
X122979Y111457D01*
X123052Y111552D01*
X123131Y111641D01*
X123149Y111677D01*
X123174Y111709D01*
X123221Y111818D01*
X123275Y111924D01*
X123284Y111963D01*
X123300Y112001D01*
X123319Y112118D01*
X123345Y112234D01*
X123344Y112275D01*
X123350Y112315D01*
X123339Y112433D01*
X123335Y112552D01*
X123324Y112591D01*
X123320Y112631D01*
X123280Y112743D01*
X123247Y112858D01*
X123226Y112892D01*
X123213Y112931D01*
X123146Y113029D01*
X123085Y113132D01*
X123046Y113177D01*
X123034Y113194D01*
X123019Y113207D01*
X122979Y113252D01*
X116782Y119449D01*
X117852Y120519D01*
X117913Y120597D01*
X117981Y120669D01*
X118010Y120722D01*
X118047Y120770D01*
X118087Y120861D01*
X118134Y120948D01*
X118149Y121007D01*
X118174Y121062D01*
X118189Y121160D01*
X118214Y121256D01*
X118220Y121356D01*
X118223Y121376D01*
X118222Y121389D01*
X118224Y121417D01*
X118224Y121609D01*
X123509Y126894D01*
X126961Y130347D01*
X127004Y130402D01*
X127054Y130450D01*
X127101Y130527D01*
X127156Y130598D01*
X127184Y130662D01*
X127221Y130721D01*
X127247Y130807D01*
X127283Y130890D01*
X127294Y130959D01*
X127314Y131025D01*
X127318Y131115D01*
X127333Y131204D01*
X127326Y131274D01*
X127329Y131343D01*
X127311Y131431D01*
X127303Y131520D01*
X127279Y131586D01*
X127265Y131655D01*
X127225Y131735D01*
X127195Y131820D01*
X127156Y131877D01*
X127125Y131940D01*
X127067Y132009D01*
X127017Y132083D01*
X126964Y132129D01*
X126919Y132182D01*
X126845Y132234D01*
X126778Y132293D01*
X126716Y132325D01*
X126659Y132365D01*
X126575Y132397D01*
X126495Y132438D01*
X126427Y132453D01*
X126361Y132478D01*
X126272Y132488D01*
X126185Y132508D01*
X126115Y132506D01*
X126045Y132513D01*
X125956Y132501D01*
X125867Y132498D01*
X125800Y132479D01*
X125731Y132469D01*
X125578Y132417D01*
X123537Y131571D01*
X120303Y131571D01*
X117315Y132809D01*
X115115Y135010D01*
X115036Y135070D01*
X114964Y135138D01*
X114911Y135167D01*
X114863Y135204D01*
X114772Y135244D01*
X114686Y135292D01*
X114627Y135307D01*
X114572Y135331D01*
X114474Y135346D01*
X114378Y135371D01*
X114278Y135377D01*
X114257Y135381D01*
X114245Y135379D01*
X114217Y135381D01*
X108701Y135381D01*
X102843Y141240D01*
X102783Y141286D01*
X102731Y141339D01*
X102598Y141431D01*
X101654Y141997D01*
X101596Y142231D01*
X101558Y142327D01*
X101530Y142426D01*
X101501Y142475D01*
X101480Y142527D01*
X101421Y142611D01*
X101368Y142700D01*
X101308Y142769D01*
X101295Y142786D01*
X101284Y142795D01*
X101262Y142821D01*
X101091Y142991D01*
X101091Y144092D01*
X101082Y144167D01*
X101082Y144242D01*
X101053Y144400D01*
X100326Y147311D01*
X100288Y147407D01*
X100260Y147506D01*
X100231Y147555D01*
X100210Y147607D01*
X100150Y147691D01*
X100098Y147780D01*
X100038Y147848D01*
X100025Y147866D01*
X100014Y147875D01*
X99992Y147901D01*
X99821Y148071D01*
X99821Y149172D01*
X99812Y149247D01*
X99812Y149322D01*
X99783Y149480D01*
X99516Y150548D01*
X99640Y150755D01*
X99682Y150849D01*
X99732Y150939D01*
X99746Y150994D01*
X99769Y151046D01*
X99785Y151147D01*
X99811Y151247D01*
X99817Y151338D01*
X99820Y151360D01*
X99819Y151374D01*
X99821Y151408D01*
X99821Y160105D01*
X99815Y160155D01*
X99817Y160204D01*
X99795Y160312D01*
X99781Y160421D01*
X99763Y160467D01*
X99753Y160516D01*
X99705Y160615D01*
X99664Y160717D01*
X99635Y160757D01*
X99613Y160801D01*
X99542Y160885D01*
X99478Y160974D01*
X99439Y161006D01*
X99407Y161043D01*
X99317Y161107D01*
X99233Y161177D01*
X99188Y161198D01*
X99147Y161227D01*
X99044Y161265D01*
X98945Y161312D01*
X98896Y161322D01*
X98850Y161339D01*
X98740Y161351D01*
X98633Y161372D01*
X98583Y161369D01*
X98534Y161375D01*
X98425Y161359D01*
X98315Y161352D01*
X98268Y161337D01*
X98219Y161330D01*
X98066Y161278D01*
X97133Y160892D01*
X97030Y160833D01*
X96923Y160780D01*
X96892Y160754D01*
X96857Y160734D01*
X96772Y160651D01*
X96681Y160574D01*
X96658Y160541D01*
X96628Y160513D01*
X96566Y160411D01*
X96498Y160314D01*
X96483Y160276D01*
X96462Y160242D01*
X96427Y160128D01*
X96385Y160017D01*
X96380Y159976D01*
X96369Y159938D01*
X96363Y159819D01*
X96350Y159700D01*
X96355Y159660D01*
X96353Y159620D01*
X96378Y159503D01*
X96394Y159386D01*
X96414Y159329D01*
X96418Y159309D01*
X96427Y159290D01*
X96446Y159233D01*
X97029Y157827D01*
X97029Y154593D01*
X95791Y151605D01*
X93505Y149319D01*
X90517Y148081D01*
X87283Y148081D01*
X84295Y149319D01*
X82009Y151605D01*
X80771Y154593D01*
X80771Y157827D01*
X81945Y160660D01*
X81947Y160669D01*
X81952Y160677D01*
X81989Y160822D01*
X82029Y160966D01*
X82029Y160976D01*
X82031Y160985D01*
X82041Y161145D01*
X82041Y170405D01*
X82029Y170504D01*
X82026Y170603D01*
X82009Y170661D01*
X82001Y170721D01*
X81965Y170813D01*
X81937Y170908D01*
X81907Y170960D01*
X81884Y171017D01*
X81826Y171097D01*
X81776Y171182D01*
X81710Y171257D01*
X81698Y171274D01*
X81688Y171282D01*
X81670Y171303D01*
X79863Y173110D01*
X79785Y173170D01*
X79713Y173238D01*
X79660Y173267D01*
X79612Y173304D01*
X79521Y173344D01*
X79434Y173392D01*
X79375Y173407D01*
X79320Y173431D01*
X79222Y173446D01*
X79126Y173471D01*
X79026Y173477D01*
X79006Y173481D01*
X78993Y173479D01*
X78965Y173481D01*
X77294Y173481D01*
X76819Y173957D01*
X76725Y174030D01*
X76635Y174109D01*
X76599Y174127D01*
X76567Y174152D01*
X76458Y174199D01*
X76352Y174253D01*
X76313Y174262D01*
X76275Y174278D01*
X76158Y174297D01*
X76042Y174323D01*
X76001Y174322D01*
X75961Y174328D01*
X75843Y174317D01*
X75724Y174313D01*
X75685Y174302D01*
X75645Y174298D01*
X75533Y174258D01*
X75418Y174225D01*
X75383Y174204D01*
X75346Y174191D01*
X75247Y174124D01*
X75144Y174063D01*
X75099Y174023D01*
X75082Y174012D01*
X75069Y173997D01*
X75024Y173957D01*
X74306Y173239D01*
X68109Y179436D01*
X68015Y179509D01*
X67926Y179588D01*
X67890Y179606D01*
X67858Y179631D01*
X67749Y179678D01*
X67643Y179732D01*
X67603Y179741D01*
X67566Y179757D01*
X67448Y179776D01*
X67332Y179802D01*
X67292Y179801D01*
X67252Y179807D01*
X67133Y179796D01*
X67015Y179792D01*
X66976Y179781D01*
X66935Y179777D01*
X66823Y179737D01*
X66709Y179704D01*
X66674Y179683D01*
X66636Y179670D01*
X66538Y179603D01*
X66435Y179542D01*
X66390Y179502D01*
X66373Y179491D01*
X66360Y179476D01*
X66314Y179436D01*
X66135Y179256D01*
X66062Y179162D01*
X65983Y179073D01*
X65964Y179037D01*
X65940Y179005D01*
X65892Y178895D01*
X65838Y178790D01*
X65829Y178750D01*
X65813Y178713D01*
X65795Y178595D01*
X65769Y178479D01*
X65770Y178439D01*
X65763Y178399D01*
X65775Y178280D01*
X65778Y178162D01*
X65789Y178123D01*
X65793Y178082D01*
X65834Y177970D01*
X65867Y177856D01*
X65887Y177821D01*
X65901Y177783D01*
X65968Y177684D01*
X66028Y177582D01*
X66068Y177537D01*
X66079Y177520D01*
X66095Y177506D01*
X66135Y177461D01*
X72331Y171265D01*
X71613Y170546D01*
X71540Y170452D01*
X71461Y170363D01*
X71443Y170327D01*
X71418Y170295D01*
X71371Y170186D01*
X71317Y170080D01*
X71308Y170040D01*
X71292Y170003D01*
X71273Y169885D01*
X71247Y169769D01*
X71248Y169729D01*
X71242Y169689D01*
X71253Y169571D01*
X71257Y169452D01*
X71268Y169413D01*
X71272Y169372D01*
X71312Y169260D01*
X71345Y169146D01*
X71366Y169111D01*
X71379Y169073D01*
X71446Y168975D01*
X71507Y168872D01*
X71547Y168827D01*
X71558Y168810D01*
X71573Y168797D01*
X71613Y168751D01*
X76709Y163656D01*
X76709Y145288D01*
X76724Y145170D01*
X76731Y145051D01*
X76744Y145013D01*
X76749Y144972D01*
X76792Y144862D01*
X76829Y144749D01*
X76851Y144714D01*
X76866Y144677D01*
X76935Y144581D01*
X76999Y144480D01*
X77029Y144452D01*
X77052Y144419D01*
X77144Y144343D01*
X77231Y144262D01*
X77266Y144242D01*
X77297Y144217D01*
X77405Y144166D01*
X77509Y144108D01*
X77549Y144098D01*
X77585Y144081D01*
X77702Y144059D01*
X77817Y144029D01*
X77877Y144025D01*
X77897Y144021D01*
X77918Y144023D01*
X77978Y144019D01*
X83069Y144019D01*
X85970Y141117D01*
X90317Y136770D01*
X93219Y133869D01*
X93219Y113730D01*
X93231Y113632D01*
X93234Y113533D01*
X93251Y113475D01*
X93259Y113415D01*
X93295Y113323D01*
X93323Y113228D01*
X93353Y113175D01*
X93376Y113119D01*
X93434Y113039D01*
X93484Y112954D01*
X93550Y112878D01*
X93562Y112862D01*
X93572Y112854D01*
X93590Y112833D01*
X94003Y112420D01*
X94058Y112377D01*
X94107Y112327D01*
X94183Y112280D01*
X94254Y112225D01*
X94318Y112198D01*
X94378Y112161D01*
X94464Y112135D01*
X94546Y112099D01*
X94615Y112088D01*
X94682Y112067D01*
X94771Y112063D01*
X94860Y112049D01*
X94930Y112056D01*
X95000Y112052D01*
X95087Y112070D01*
X95177Y112079D01*
X95243Y112103D01*
X95311Y112117D01*
X95391Y112156D01*
X95476Y112186D01*
X95534Y112226D01*
X95597Y112256D01*
X95665Y112314D01*
X95739Y112365D01*
X95786Y112417D01*
X95839Y112463D01*
X95890Y112536D01*
X95950Y112603D01*
X95982Y112666D01*
X96022Y112723D01*
X96054Y112807D01*
X96094Y112887D01*
X96110Y112955D01*
X96135Y113020D01*
X96144Y113109D01*
X96164Y113197D01*
X96162Y113267D01*
X96170Y113336D01*
X96157Y113425D01*
X96154Y113515D01*
X96135Y113582D01*
X96125Y113651D01*
X96073Y113803D01*
X96011Y113953D01*
X96011Y117187D01*
X97249Y120175D01*
X99535Y122461D01*
X102523Y123699D01*
X105757Y123699D01*
X108745Y122461D01*
X111031Y120175D01*
X112201Y117350D01*
X112226Y117307D01*
X112243Y117260D01*
X112304Y117169D01*
X112359Y117074D01*
X112393Y117038D01*
X112421Y116997D01*
X112504Y116924D01*
X112580Y116845D01*
X112622Y116819D01*
X112660Y116786D01*
X112758Y116736D01*
X112851Y116679D01*
X112899Y116664D01*
X112943Y116642D01*
X113050Y116618D01*
X113155Y116585D01*
X113205Y116583D01*
X113253Y116572D01*
X113363Y116575D01*
X113473Y116570D01*
X113521Y116580D01*
X113571Y116582D01*
X113676Y116612D01*
X113784Y116635D01*
X113829Y116656D01*
X113877Y116670D01*
X113971Y116726D01*
X114070Y116774D01*
X114108Y116807D01*
X114150Y116832D01*
X114271Y116938D01*
X114808Y117474D01*
X121004Y111278D01*
X121099Y111205D01*
X121188Y111126D01*
X121224Y111108D01*
X121256Y111083D01*
X121365Y111035D01*
X121471Y110981D01*
X121510Y110973D01*
X121548Y110956D01*
X121665Y110938D01*
X121781Y110912D01*
X121822Y110913D01*
X121862Y110907D01*
X121980Y110918D01*
G37*
G36*
X108782Y194433D02*
X108782Y194433D01*
X108900Y194436D01*
X108939Y194447D01*
X108980Y194451D01*
X109092Y194492D01*
X109206Y194525D01*
X109241Y194545D01*
X109279Y194559D01*
X109378Y194626D01*
X109480Y194686D01*
X109525Y194726D01*
X109542Y194737D01*
X109555Y194753D01*
X109601Y194793D01*
X113419Y198611D01*
X113420Y198611D01*
X113480Y198690D01*
X113548Y198762D01*
X113577Y198815D01*
X113614Y198863D01*
X113654Y198954D01*
X113702Y199040D01*
X113717Y199099D01*
X113741Y199155D01*
X113756Y199252D01*
X113781Y199348D01*
X113787Y199439D01*
X113789Y199449D01*
X113788Y199454D01*
X113791Y199469D01*
X113789Y199481D01*
X113791Y199509D01*
X113791Y215149D01*
X115960Y217317D01*
X116020Y217395D01*
X116088Y217468D01*
X116117Y217521D01*
X116154Y217568D01*
X116194Y217659D01*
X116242Y217746D01*
X116257Y217805D01*
X116281Y217860D01*
X116296Y217958D01*
X116321Y218054D01*
X116327Y218154D01*
X116331Y218174D01*
X116329Y218187D01*
X116331Y218215D01*
X116331Y237501D01*
X118754Y239923D01*
X118814Y240001D01*
X118882Y240074D01*
X118911Y240127D01*
X118948Y240174D01*
X118988Y240265D01*
X119036Y240352D01*
X119051Y240411D01*
X119075Y240466D01*
X119090Y240564D01*
X119115Y240660D01*
X119121Y240760D01*
X119125Y240780D01*
X119123Y240793D01*
X119125Y240821D01*
X119125Y241779D01*
X119113Y241878D01*
X119110Y241977D01*
X119093Y242035D01*
X119085Y242095D01*
X119049Y242187D01*
X119021Y242282D01*
X118991Y242334D01*
X118968Y242391D01*
X118910Y242471D01*
X118860Y242556D01*
X118794Y242631D01*
X118782Y242648D01*
X118772Y242656D01*
X118754Y242677D01*
X116331Y245099D01*
X116331Y249399D01*
X116314Y249537D01*
X116301Y249676D01*
X116294Y249695D01*
X116291Y249715D01*
X116240Y249844D01*
X116193Y249975D01*
X116182Y249992D01*
X116174Y250011D01*
X116093Y250123D01*
X116015Y250238D01*
X115999Y250252D01*
X115988Y250268D01*
X115880Y250357D01*
X115776Y250449D01*
X115758Y250458D01*
X115743Y250471D01*
X115617Y250530D01*
X115493Y250593D01*
X115473Y250598D01*
X115455Y250606D01*
X115318Y250632D01*
X115183Y250663D01*
X115162Y250662D01*
X115143Y250666D01*
X115004Y250657D01*
X114865Y250653D01*
X114845Y250648D01*
X114825Y250646D01*
X114693Y250603D01*
X114559Y250565D01*
X114542Y250555D01*
X114523Y250548D01*
X114405Y250474D01*
X114285Y250403D01*
X114264Y250385D01*
X114254Y250378D01*
X114240Y250363D01*
X114164Y250297D01*
X113910Y250043D01*
X110774Y246907D01*
X110675Y246842D01*
X110652Y246817D01*
X110625Y246798D01*
X110544Y246701D01*
X110459Y246608D01*
X110443Y246579D01*
X110422Y246553D01*
X110368Y246439D01*
X110309Y246328D01*
X110301Y246295D01*
X110286Y246265D01*
X110263Y246142D01*
X110233Y246019D01*
X110233Y245986D01*
X110227Y245953D01*
X110234Y245827D01*
X110236Y245701D01*
X110245Y245653D01*
X110246Y245635D01*
X110253Y245615D01*
X110267Y245543D01*
X110442Y244892D01*
X110442Y243182D01*
X102006Y243182D01*
X101888Y243167D01*
X101769Y243160D01*
X101731Y243147D01*
X101691Y243142D01*
X101580Y243099D01*
X101467Y243062D01*
X101433Y243040D01*
X101395Y243025D01*
X101299Y242956D01*
X101198Y242892D01*
X101170Y242862D01*
X101138Y242839D01*
X101062Y242747D01*
X100980Y242660D01*
X100961Y242625D01*
X100935Y242594D01*
X100884Y242486D01*
X100827Y242382D01*
X100817Y242342D01*
X100799Y242306D01*
X100777Y242189D01*
X100747Y242074D01*
X100743Y242014D01*
X100740Y241994D01*
X100741Y241973D01*
X100737Y241913D01*
X100737Y241703D01*
X100752Y241585D01*
X100759Y241466D01*
X100772Y241428D01*
X100777Y241387D01*
X100821Y241277D01*
X100857Y241164D01*
X100879Y241129D01*
X100894Y241092D01*
X100964Y240995D01*
X101027Y240895D01*
X101057Y240867D01*
X101081Y240834D01*
X101172Y240758D01*
X101259Y240677D01*
X101294Y240657D01*
X101326Y240632D01*
X101433Y240581D01*
X101538Y240523D01*
X101577Y240513D01*
X101613Y240496D01*
X101730Y240474D01*
X101846Y240444D01*
X101906Y240440D01*
X101926Y240436D01*
X101946Y240438D01*
X102006Y240434D01*
X110442Y240434D01*
X110442Y238724D01*
X110231Y237937D01*
X110217Y237832D01*
X110193Y237729D01*
X110194Y237699D01*
X110192Y237687D01*
X110194Y237664D01*
X110188Y237622D01*
X110200Y237517D01*
X110203Y237411D01*
X110211Y237384D01*
X110212Y237370D01*
X110220Y237346D01*
X110224Y237306D01*
X110262Y237207D01*
X110292Y237106D01*
X110305Y237084D01*
X110310Y237067D01*
X110325Y237043D01*
X110338Y237009D01*
X110399Y236923D01*
X110453Y236832D01*
X110474Y236808D01*
X110480Y236799D01*
X110494Y236786D01*
X110510Y236768D01*
X110522Y236750D01*
X110534Y236740D01*
X110560Y236711D01*
X110950Y236321D01*
X110950Y228295D01*
X109164Y226509D01*
X106606Y226509D01*
X106468Y226492D01*
X106329Y226479D01*
X106310Y226472D01*
X106290Y226469D01*
X106161Y226418D01*
X106030Y226371D01*
X106013Y226360D01*
X105995Y226352D01*
X105882Y226271D01*
X105767Y226193D01*
X105754Y226177D01*
X105737Y226166D01*
X105648Y226058D01*
X105557Y225954D01*
X105547Y225936D01*
X105534Y225921D01*
X105475Y225795D01*
X105412Y225671D01*
X105408Y225651D01*
X105399Y225633D01*
X105373Y225496D01*
X105342Y225361D01*
X105343Y225340D01*
X105339Y225321D01*
X105348Y225182D01*
X105352Y225043D01*
X105358Y225023D01*
X105359Y225003D01*
X105402Y224871D01*
X105440Y224737D01*
X105451Y224720D01*
X105457Y224701D01*
X105531Y224583D01*
X105602Y224463D01*
X105621Y224442D01*
X105627Y224432D01*
X105642Y224418D01*
X105708Y224342D01*
X105973Y224078D01*
X105973Y213310D01*
X103308Y210645D01*
X92540Y210645D01*
X90052Y213134D01*
X89968Y213199D01*
X89916Y213248D01*
X89903Y213255D01*
X89868Y213285D01*
X89832Y213304D01*
X89800Y213329D01*
X89691Y213376D01*
X89585Y213430D01*
X89546Y213439D01*
X89508Y213455D01*
X89391Y213474D01*
X89275Y213500D01*
X89234Y213498D01*
X89194Y213505D01*
X89076Y213494D01*
X88957Y213490D01*
X88918Y213479D01*
X88878Y213475D01*
X88765Y213435D01*
X88651Y213402D01*
X88617Y213381D01*
X88578Y213367D01*
X88531Y213335D01*
X88528Y213334D01*
X88514Y213324D01*
X88480Y213301D01*
X88377Y213240D01*
X88332Y213200D01*
X88315Y213189D01*
X88302Y213174D01*
X88276Y213151D01*
X88271Y213147D01*
X88269Y213144D01*
X88257Y213134D01*
X88164Y213041D01*
X88091Y212947D01*
X88012Y212858D01*
X87994Y212822D01*
X87969Y212790D01*
X87921Y212680D01*
X87867Y212574D01*
X87859Y212535D01*
X87842Y212498D01*
X87824Y212380D01*
X87798Y212264D01*
X87799Y212224D01*
X87793Y212184D01*
X87804Y212065D01*
X87807Y211946D01*
X87819Y211907D01*
X87822Y211867D01*
X87863Y211755D01*
X87896Y211641D01*
X87916Y211606D01*
X87930Y211568D01*
X87997Y211469D01*
X88057Y211367D01*
X88097Y211322D01*
X88109Y211305D01*
X88124Y211291D01*
X88164Y211246D01*
X88931Y210479D01*
X88931Y207042D01*
X88937Y206993D01*
X88935Y206943D01*
X88957Y206836D01*
X88971Y206727D01*
X88989Y206680D01*
X88999Y206632D01*
X89047Y206533D01*
X89088Y206431D01*
X89117Y206391D01*
X89139Y206346D01*
X89210Y206263D01*
X89274Y206174D01*
X89313Y206142D01*
X89345Y206104D01*
X89435Y206041D01*
X89519Y205971D01*
X89564Y205950D01*
X89605Y205921D01*
X89708Y205882D01*
X89807Y205835D01*
X89856Y205826D01*
X89902Y205808D01*
X90012Y205796D01*
X90119Y205776D01*
X90169Y205779D01*
X90218Y205773D01*
X90327Y205788D01*
X90437Y205795D01*
X90484Y205811D01*
X90533Y205818D01*
X90686Y205870D01*
X91601Y206249D01*
X94835Y206249D01*
X97823Y205011D01*
X100109Y202725D01*
X101176Y200150D01*
X101190Y200125D01*
X101199Y200097D01*
X101269Y199987D01*
X101333Y199874D01*
X101354Y199853D01*
X101369Y199828D01*
X101464Y199739D01*
X101554Y199646D01*
X101579Y199630D01*
X101601Y199610D01*
X101715Y199547D01*
X101825Y199479D01*
X101854Y199471D01*
X101880Y199456D01*
X102005Y199424D01*
X102129Y199386D01*
X102159Y199384D01*
X102187Y199377D01*
X102348Y199367D01*
X103232Y199367D01*
X107806Y194793D01*
X107895Y194723D01*
X107925Y194695D01*
X107931Y194692D01*
X107989Y194641D01*
X108025Y194622D01*
X108057Y194598D01*
X108166Y194550D01*
X108272Y194496D01*
X108312Y194487D01*
X108349Y194471D01*
X108467Y194453D01*
X108583Y194427D01*
X108623Y194428D01*
X108663Y194421D01*
X108782Y194433D01*
G37*
G36*
X143948Y222924D02*
X143948Y222924D01*
X144087Y222929D01*
X144107Y222934D01*
X144127Y222936D01*
X144259Y222978D01*
X144393Y223017D01*
X144410Y223027D01*
X144429Y223034D01*
X144547Y223108D01*
X144667Y223179D01*
X144688Y223197D01*
X144698Y223204D01*
X144712Y223219D01*
X144787Y223285D01*
X147710Y226207D01*
X147770Y226285D01*
X147838Y226358D01*
X147867Y226411D01*
X147904Y226458D01*
X147944Y226549D01*
X147992Y226636D01*
X148007Y226695D01*
X148031Y226750D01*
X148046Y226848D01*
X148071Y226944D01*
X148077Y227044D01*
X148081Y227064D01*
X148079Y227077D01*
X148081Y227105D01*
X148081Y248677D01*
X152507Y253102D01*
X152580Y253197D01*
X152659Y253286D01*
X152677Y253322D01*
X152702Y253354D01*
X152749Y253463D01*
X152803Y253569D01*
X152812Y253608D01*
X152828Y253646D01*
X152847Y253763D01*
X152873Y253879D01*
X152872Y253920D01*
X152878Y253960D01*
X152867Y254078D01*
X152863Y254197D01*
X152852Y254236D01*
X152848Y254276D01*
X152808Y254389D01*
X152775Y254503D01*
X152754Y254537D01*
X152741Y254576D01*
X152674Y254674D01*
X152613Y254777D01*
X152573Y254822D01*
X152562Y254839D01*
X152547Y254852D01*
X152507Y254897D01*
X147319Y260085D01*
X147319Y265093D01*
X147316Y265118D01*
X147318Y265142D01*
X147296Y265275D01*
X147279Y265409D01*
X147270Y265432D01*
X147266Y265456D01*
X147212Y265580D01*
X147162Y265704D01*
X147148Y265724D01*
X147138Y265747D01*
X147055Y265853D01*
X146976Y265962D01*
X146956Y265978D01*
X146941Y265997D01*
X146834Y266079D01*
X146731Y266165D01*
X146708Y266175D01*
X146689Y266190D01*
X146564Y266243D01*
X146443Y266300D01*
X146419Y266305D01*
X146396Y266315D01*
X146262Y266335D01*
X146131Y266360D01*
X146106Y266358D01*
X146081Y266362D01*
X145947Y266349D01*
X145813Y266340D01*
X145790Y266333D01*
X145765Y266330D01*
X145639Y266284D01*
X145511Y266242D01*
X145490Y266229D01*
X145466Y266220D01*
X145356Y266144D01*
X145242Y266072D01*
X145225Y266054D01*
X145205Y266040D01*
X145116Y265939D01*
X145024Y265840D01*
X145012Y265819D01*
X144996Y265800D01*
X144915Y265661D01*
X144897Y265609D01*
X144870Y265562D01*
X144844Y265460D01*
X144809Y265361D01*
X144805Y265307D01*
X144791Y265254D01*
X144781Y265093D01*
X144781Y261893D01*
X143500Y260613D01*
X143440Y260535D01*
X143372Y260463D01*
X143343Y260410D01*
X143306Y260362D01*
X143266Y260271D01*
X143218Y260184D01*
X143203Y260125D01*
X143179Y260070D01*
X143164Y259972D01*
X143139Y259876D01*
X143133Y259776D01*
X143129Y259756D01*
X143131Y259743D01*
X143129Y259715D01*
X143129Y247037D01*
X141343Y245251D01*
X129032Y245251D01*
X128914Y245236D01*
X128795Y245229D01*
X128757Y245216D01*
X128716Y245211D01*
X128606Y245168D01*
X128493Y245131D01*
X128458Y245109D01*
X128421Y245094D01*
X128325Y245025D01*
X128224Y244961D01*
X128196Y244931D01*
X128163Y244908D01*
X128087Y244816D01*
X128006Y244729D01*
X127986Y244694D01*
X127961Y244663D01*
X127910Y244555D01*
X127852Y244451D01*
X127842Y244411D01*
X127825Y244375D01*
X127803Y244258D01*
X127773Y244143D01*
X127769Y244083D01*
X127765Y244063D01*
X127767Y244042D01*
X127766Y244039D01*
X127765Y244033D01*
X127766Y244028D01*
X127763Y243982D01*
X127763Y238110D01*
X127778Y237992D01*
X127785Y237873D01*
X127798Y237835D01*
X127803Y237794D01*
X127846Y237684D01*
X127883Y237571D01*
X127905Y237536D01*
X127920Y237499D01*
X127989Y237403D01*
X128053Y237302D01*
X128083Y237274D01*
X128106Y237241D01*
X128198Y237165D01*
X128285Y237084D01*
X128320Y237064D01*
X128351Y237039D01*
X128459Y236988D01*
X128563Y236930D01*
X128603Y236920D01*
X128639Y236903D01*
X128756Y236881D01*
X128871Y236851D01*
X128931Y236847D01*
X128951Y236843D01*
X128972Y236845D01*
X129032Y236841D01*
X129541Y236841D01*
X129541Y228570D01*
X129556Y228452D01*
X129563Y228333D01*
X129576Y228295D01*
X129581Y228255D01*
X129624Y228144D01*
X129661Y228031D01*
X129683Y227996D01*
X129698Y227959D01*
X129768Y227863D01*
X129831Y227762D01*
X129861Y227734D01*
X129885Y227702D01*
X129976Y227626D01*
X130063Y227544D01*
X130098Y227525D01*
X130129Y227499D01*
X130237Y227448D01*
X130341Y227391D01*
X130381Y227380D01*
X130417Y227363D01*
X130534Y227341D01*
X130649Y227311D01*
X130710Y227307D01*
X130730Y227303D01*
X130750Y227305D01*
X130810Y227301D01*
X132081Y227301D01*
X132081Y226030D01*
X132096Y225912D01*
X132103Y225793D01*
X132116Y225755D01*
X132121Y225715D01*
X132165Y225604D01*
X132201Y225491D01*
X132223Y225456D01*
X132238Y225419D01*
X132308Y225323D01*
X132371Y225222D01*
X132401Y225194D01*
X132425Y225161D01*
X132516Y225086D01*
X132603Y225004D01*
X132638Y224984D01*
X132670Y224959D01*
X132777Y224908D01*
X132881Y224850D01*
X132921Y224840D01*
X132957Y224823D01*
X133074Y224801D01*
X133189Y224771D01*
X133250Y224767D01*
X133270Y224763D01*
X133290Y224765D01*
X133350Y224761D01*
X142621Y224761D01*
X142621Y224183D01*
X142638Y224045D01*
X142651Y223906D01*
X142658Y223887D01*
X142661Y223867D01*
X142712Y223738D01*
X142759Y223607D01*
X142770Y223590D01*
X142778Y223571D01*
X142859Y223459D01*
X142937Y223344D01*
X142953Y223330D01*
X142964Y223314D01*
X143072Y223225D01*
X143176Y223133D01*
X143194Y223124D01*
X143209Y223111D01*
X143335Y223052D01*
X143459Y222989D01*
X143479Y222984D01*
X143497Y222976D01*
X143633Y222950D01*
X143769Y222919D01*
X143790Y222920D01*
X143809Y222916D01*
X143948Y222924D01*
G37*
G36*
X55532Y232279D02*
X55532Y232279D01*
X55651Y232283D01*
X55690Y232294D01*
X55730Y232298D01*
X55843Y232338D01*
X55957Y232371D01*
X55991Y232392D01*
X56030Y232405D01*
X56128Y232472D01*
X56231Y232533D01*
X56276Y232572D01*
X56293Y232584D01*
X56306Y232599D01*
X56351Y232639D01*
X60339Y236627D01*
X66630Y236627D01*
X66729Y236639D01*
X66828Y236642D01*
X66886Y236659D01*
X66946Y236667D01*
X67038Y236703D01*
X67133Y236731D01*
X67185Y236761D01*
X67242Y236784D01*
X67322Y236842D01*
X67407Y236892D01*
X67482Y236958D01*
X67499Y236970D01*
X67507Y236980D01*
X67528Y236998D01*
X68636Y238107D01*
X80772Y238107D01*
X80890Y238122D01*
X81009Y238129D01*
X81047Y238142D01*
X81088Y238147D01*
X81198Y238190D01*
X81311Y238227D01*
X81346Y238249D01*
X81383Y238264D01*
X81479Y238333D01*
X81580Y238397D01*
X81608Y238427D01*
X81641Y238450D01*
X81717Y238542D01*
X81798Y238629D01*
X81818Y238664D01*
X81843Y238695D01*
X81894Y238803D01*
X81952Y238907D01*
X81962Y238947D01*
X81979Y238983D01*
X82001Y239100D01*
X82031Y239215D01*
X82035Y239275D01*
X82039Y239295D01*
X82037Y239316D01*
X82041Y239376D01*
X82041Y244240D01*
X82026Y244358D01*
X82019Y244477D01*
X82006Y244515D01*
X82001Y244556D01*
X81958Y244666D01*
X81921Y244779D01*
X81899Y244814D01*
X81884Y244851D01*
X81815Y244947D01*
X81751Y245048D01*
X81721Y245076D01*
X81698Y245109D01*
X81606Y245185D01*
X81519Y245266D01*
X81484Y245286D01*
X81453Y245311D01*
X81345Y245362D01*
X81241Y245420D01*
X81201Y245430D01*
X81165Y245447D01*
X81048Y245469D01*
X80933Y245499D01*
X80873Y245503D01*
X80853Y245507D01*
X80832Y245505D01*
X80772Y245509D01*
X68636Y245509D01*
X66850Y247295D01*
X66850Y254850D01*
X66844Y254899D01*
X66846Y254949D01*
X66824Y255056D01*
X66810Y255165D01*
X66792Y255212D01*
X66782Y255260D01*
X66734Y255359D01*
X66693Y255461D01*
X66664Y255501D01*
X66642Y255546D01*
X66571Y255629D01*
X66507Y255718D01*
X66468Y255750D01*
X66436Y255788D01*
X66346Y255851D01*
X66262Y255921D01*
X66217Y255942D01*
X66176Y255971D01*
X66073Y256010D01*
X65974Y256057D01*
X65925Y256066D01*
X65878Y256084D01*
X65769Y256096D01*
X65662Y256116D01*
X65612Y256113D01*
X65562Y256119D01*
X65453Y256103D01*
X65344Y256097D01*
X65297Y256081D01*
X65248Y256074D01*
X65121Y256031D01*
X62005Y256031D01*
X61906Y256019D01*
X61807Y256016D01*
X61749Y255999D01*
X61689Y255991D01*
X61597Y255955D01*
X61502Y255927D01*
X61450Y255897D01*
X61393Y255874D01*
X61313Y255816D01*
X61228Y255766D01*
X61153Y255700D01*
X61136Y255688D01*
X61128Y255678D01*
X61107Y255660D01*
X58410Y252963D01*
X58350Y252885D01*
X58282Y252812D01*
X58253Y252759D01*
X58216Y252712D01*
X58176Y252621D01*
X58128Y252534D01*
X58113Y252475D01*
X58089Y252420D01*
X58074Y252322D01*
X58049Y252226D01*
X58043Y252126D01*
X58039Y252106D01*
X58041Y252093D01*
X58039Y252065D01*
X58039Y238087D01*
X56253Y236301D01*
X43575Y236301D01*
X43476Y236289D01*
X43377Y236286D01*
X43319Y236269D01*
X43259Y236261D01*
X43167Y236225D01*
X43072Y236197D01*
X43020Y236167D01*
X42963Y236144D01*
X42883Y236086D01*
X42798Y236036D01*
X42723Y235970D01*
X42706Y235958D01*
X42698Y235948D01*
X42677Y235930D01*
X41520Y234773D01*
X41460Y234695D01*
X41392Y234622D01*
X41363Y234569D01*
X41326Y234522D01*
X41286Y234431D01*
X41238Y234344D01*
X41223Y234285D01*
X41199Y234230D01*
X41184Y234132D01*
X41159Y234036D01*
X41154Y233956D01*
X41151Y233942D01*
X41152Y233932D01*
X41149Y233916D01*
X41151Y233903D01*
X41149Y233875D01*
X41149Y233862D01*
X41164Y233744D01*
X41171Y233625D01*
X41179Y233600D01*
X41179Y233599D01*
X41182Y233590D01*
X41184Y233587D01*
X41189Y233546D01*
X41232Y233436D01*
X41269Y233323D01*
X41291Y233288D01*
X41306Y233251D01*
X41375Y233155D01*
X41439Y233054D01*
X41469Y233026D01*
X41492Y232993D01*
X41584Y232917D01*
X41671Y232836D01*
X41706Y232816D01*
X41737Y232791D01*
X41845Y232740D01*
X41949Y232682D01*
X41989Y232672D01*
X42025Y232655D01*
X42142Y232633D01*
X42257Y232603D01*
X42317Y232599D01*
X42337Y232595D01*
X42358Y232597D01*
X42418Y232593D01*
X54616Y232593D01*
X54651Y232566D01*
X54740Y232487D01*
X54776Y232469D01*
X54808Y232444D01*
X54917Y232397D01*
X55023Y232343D01*
X55062Y232334D01*
X55100Y232318D01*
X55217Y232299D01*
X55333Y232273D01*
X55374Y232274D01*
X55414Y232268D01*
X55532Y232279D01*
G37*
G36*
X5461Y302641D02*
X5461Y302641D01*
X5571Y302648D01*
X5618Y302663D01*
X5667Y302670D01*
X5820Y302722D01*
X10224Y304547D01*
X15176Y304547D01*
X17124Y303740D01*
X17153Y303732D01*
X17179Y303719D01*
X17305Y303690D01*
X17431Y303656D01*
X17460Y303655D01*
X17489Y303649D01*
X17619Y303653D01*
X17749Y303651D01*
X17777Y303658D01*
X17807Y303659D01*
X17932Y303695D01*
X18058Y303725D01*
X18084Y303739D01*
X18112Y303747D01*
X18224Y303813D01*
X18339Y303874D01*
X18361Y303893D01*
X18386Y303908D01*
X18507Y304015D01*
X19656Y305163D01*
X19769Y305309D01*
X19850Y305414D01*
X19912Y305558D01*
X19977Y305706D01*
X20004Y305880D01*
X20027Y306020D01*
X20009Y306207D01*
X19997Y306336D01*
X19997Y306337D01*
X19939Y306497D01*
X19889Y306636D01*
X19814Y306747D01*
X19711Y306899D01*
X19602Y306996D01*
X19473Y307110D01*
X19472Y307110D01*
X19334Y307192D01*
X19143Y307289D01*
X17622Y308394D01*
X16294Y309722D01*
X15189Y311243D01*
X14336Y312917D01*
X13755Y314704D01*
X13715Y314961D01*
X24130Y314961D01*
X24248Y314976D01*
X24367Y314983D01*
X24405Y314996D01*
X24445Y315001D01*
X24556Y315044D01*
X24669Y315081D01*
X24703Y315103D01*
X24741Y315118D01*
X24837Y315188D01*
X24938Y315251D01*
X24966Y315281D01*
X24998Y315304D01*
X25074Y315396D01*
X25156Y315483D01*
X25175Y315518D01*
X25201Y315549D01*
X25252Y315657D01*
X25309Y315761D01*
X25320Y315801D01*
X25337Y315837D01*
X25359Y315954D01*
X25389Y316069D01*
X25393Y316130D01*
X25397Y316150D01*
X25395Y316170D01*
X25399Y316230D01*
X25399Y318770D01*
X25384Y318888D01*
X25377Y319007D01*
X25364Y319045D01*
X25359Y319085D01*
X25315Y319196D01*
X25279Y319309D01*
X25257Y319344D01*
X25242Y319381D01*
X25172Y319477D01*
X25109Y319578D01*
X25079Y319606D01*
X25055Y319639D01*
X24964Y319714D01*
X24877Y319796D01*
X24842Y319816D01*
X24810Y319841D01*
X24703Y319892D01*
X24598Y319950D01*
X24559Y319960D01*
X24523Y319977D01*
X24406Y319999D01*
X24291Y320029D01*
X24230Y320033D01*
X24210Y320037D01*
X24190Y320035D01*
X24130Y320039D01*
X13715Y320039D01*
X13755Y320296D01*
X14336Y322083D01*
X15189Y323757D01*
X15453Y324120D01*
X15472Y324155D01*
X15497Y324185D01*
X15548Y324294D01*
X15606Y324399D01*
X15616Y324437D01*
X15633Y324473D01*
X15655Y324591D01*
X15685Y324707D01*
X15685Y324746D01*
X15692Y324786D01*
X15685Y324905D01*
X15685Y325025D01*
X15675Y325063D01*
X15673Y325103D01*
X15636Y325217D01*
X15606Y325333D01*
X15587Y325368D01*
X15575Y325405D01*
X15511Y325506D01*
X15453Y325611D01*
X15426Y325641D01*
X15405Y325674D01*
X15317Y325756D01*
X15235Y325843D01*
X15202Y325865D01*
X15173Y325892D01*
X15068Y325950D01*
X14967Y326014D01*
X14929Y326026D01*
X14894Y326046D01*
X14779Y326075D01*
X14665Y326113D01*
X14625Y326115D01*
X14586Y326125D01*
X14426Y326135D01*
X5334Y326135D01*
X5216Y326120D01*
X5097Y326113D01*
X5059Y326100D01*
X5018Y326095D01*
X4908Y326052D01*
X4795Y326015D01*
X4760Y325993D01*
X4723Y325978D01*
X4627Y325909D01*
X4526Y325845D01*
X4498Y325815D01*
X4465Y325792D01*
X4389Y325700D01*
X4308Y325613D01*
X4288Y325578D01*
X4263Y325547D01*
X4212Y325439D01*
X4154Y325335D01*
X4144Y325295D01*
X4127Y325259D01*
X4105Y325142D01*
X4075Y325027D01*
X4071Y324967D01*
X4067Y324947D01*
X4069Y324926D01*
X4065Y324866D01*
X4065Y303895D01*
X4071Y303846D01*
X4069Y303796D01*
X4091Y303689D01*
X4105Y303579D01*
X4123Y303533D01*
X4133Y303485D01*
X4181Y303386D01*
X4222Y303284D01*
X4251Y303244D01*
X4273Y303199D01*
X4344Y303115D01*
X4408Y303026D01*
X4447Y302995D01*
X4479Y302957D01*
X4569Y302894D01*
X4653Y302824D01*
X4698Y302802D01*
X4739Y302774D01*
X4842Y302735D01*
X4941Y302688D01*
X4990Y302679D01*
X5036Y302661D01*
X5146Y302649D01*
X5253Y302628D01*
X5303Y302631D01*
X5352Y302626D01*
X5461Y302641D01*
G37*
G36*
X66364Y136411D02*
X66364Y136411D01*
X66463Y136414D01*
X66521Y136431D01*
X66581Y136439D01*
X66673Y136475D01*
X66768Y136503D01*
X66820Y136533D01*
X66877Y136556D01*
X66957Y136614D01*
X67042Y136664D01*
X67117Y136730D01*
X67134Y136742D01*
X67142Y136752D01*
X67163Y136770D01*
X67699Y137307D01*
X67760Y137385D01*
X67828Y137457D01*
X67857Y137511D01*
X67894Y137558D01*
X67934Y137649D01*
X67982Y137736D01*
X67997Y137795D01*
X68021Y137850D01*
X68036Y137948D01*
X68061Y138044D01*
X68067Y138144D01*
X68071Y138164D01*
X68069Y138177D01*
X68071Y138205D01*
X68071Y159552D01*
X68059Y159650D01*
X68056Y159749D01*
X68039Y159808D01*
X68031Y159868D01*
X67995Y159960D01*
X67967Y160055D01*
X67937Y160107D01*
X67914Y160163D01*
X67856Y160243D01*
X67806Y160329D01*
X67740Y160404D01*
X67728Y160421D01*
X67718Y160429D01*
X67700Y160450D01*
X65506Y162644D01*
X65411Y162717D01*
X65322Y162795D01*
X65286Y162814D01*
X65254Y162839D01*
X65145Y162886D01*
X65039Y162940D01*
X65000Y162949D01*
X64962Y162965D01*
X64845Y162984D01*
X64729Y163010D01*
X64688Y163008D01*
X64648Y163015D01*
X64530Y163004D01*
X64411Y163000D01*
X64372Y162989D01*
X64332Y162985D01*
X64220Y162945D01*
X64105Y162912D01*
X64071Y162891D01*
X64032Y162877D01*
X63934Y162811D01*
X63831Y162750D01*
X63786Y162710D01*
X63769Y162699D01*
X63756Y162684D01*
X63711Y162644D01*
X62992Y161925D01*
X56796Y168122D01*
X56701Y168195D01*
X56612Y168274D01*
X56576Y168292D01*
X56544Y168317D01*
X56435Y168364D01*
X56329Y168419D01*
X56290Y168427D01*
X56252Y168443D01*
X56135Y168462D01*
X56019Y168488D01*
X55978Y168487D01*
X55938Y168493D01*
X55820Y168482D01*
X55701Y168479D01*
X55662Y168467D01*
X55622Y168464D01*
X55510Y168423D01*
X55395Y168390D01*
X55361Y168370D01*
X55322Y168356D01*
X55224Y168289D01*
X55121Y168229D01*
X55076Y168189D01*
X55059Y168177D01*
X55046Y168162D01*
X55001Y168122D01*
X54821Y167943D01*
X54748Y167848D01*
X54669Y167759D01*
X54651Y167723D01*
X54626Y167691D01*
X54579Y167582D01*
X54525Y167476D01*
X54516Y167437D01*
X54500Y167399D01*
X54481Y167282D01*
X54455Y167166D01*
X54456Y167125D01*
X54450Y167085D01*
X54461Y166967D01*
X54465Y166848D01*
X54476Y166809D01*
X54480Y166769D01*
X54520Y166656D01*
X54553Y166542D01*
X54573Y166508D01*
X54587Y166469D01*
X54654Y166371D01*
X54714Y166268D01*
X54754Y166223D01*
X54766Y166206D01*
X54781Y166193D01*
X54821Y166148D01*
X61018Y159951D01*
X59948Y158881D01*
X59887Y158803D01*
X59819Y158730D01*
X59790Y158677D01*
X59753Y158630D01*
X59713Y158539D01*
X59666Y158452D01*
X59651Y158393D01*
X59626Y158338D01*
X59611Y158240D01*
X59586Y158144D01*
X59580Y158044D01*
X59577Y158024D01*
X59578Y158011D01*
X59576Y157983D01*
X59576Y157791D01*
X59300Y157515D01*
X59240Y157437D01*
X59172Y157365D01*
X59143Y157312D01*
X59106Y157264D01*
X59066Y157173D01*
X59018Y157086D01*
X59003Y157028D01*
X58979Y156972D01*
X58964Y156874D01*
X58939Y156778D01*
X58933Y156678D01*
X58929Y156658D01*
X58931Y156646D01*
X58929Y156618D01*
X58929Y139475D01*
X58941Y139376D01*
X58944Y139277D01*
X58961Y139219D01*
X58969Y139159D01*
X59005Y139067D01*
X59033Y138972D01*
X59063Y138920D01*
X59086Y138863D01*
X59144Y138783D01*
X59194Y138698D01*
X59260Y138623D01*
X59272Y138606D01*
X59282Y138598D01*
X59300Y138577D01*
X61107Y136770D01*
X61185Y136710D01*
X61258Y136642D01*
X61311Y136613D01*
X61358Y136576D01*
X61449Y136536D01*
X61536Y136488D01*
X61595Y136473D01*
X61650Y136449D01*
X61748Y136434D01*
X61844Y136409D01*
X61944Y136403D01*
X61964Y136399D01*
X61977Y136401D01*
X62005Y136399D01*
X66265Y136399D01*
X66364Y136411D01*
G37*
G36*
X36979Y4080D02*
X36979Y4080D01*
X37104Y4090D01*
X37136Y4100D01*
X37169Y4105D01*
X37286Y4151D01*
X37405Y4191D01*
X37434Y4209D01*
X37465Y4222D01*
X37567Y4295D01*
X37672Y4364D01*
X37695Y4389D01*
X37722Y4408D01*
X37803Y4505D01*
X37888Y4598D01*
X37904Y4627D01*
X37925Y4653D01*
X37979Y4767D01*
X38038Y4878D01*
X38046Y4911D01*
X38061Y4941D01*
X38084Y5065D01*
X38115Y5187D01*
X38114Y5220D01*
X38121Y5253D01*
X38113Y5379D01*
X38112Y5505D01*
X38102Y5553D01*
X38101Y5571D01*
X38094Y5591D01*
X38080Y5663D01*
X37925Y6240D01*
X37925Y9575D01*
X44236Y9575D01*
X44354Y9590D01*
X44473Y9597D01*
X44511Y9609D01*
X44551Y9615D01*
X44662Y9658D01*
X44775Y9695D01*
X44809Y9717D01*
X44847Y9732D01*
X44943Y9801D01*
X45044Y9865D01*
X45072Y9895D01*
X45104Y9918D01*
X45180Y10010D01*
X45262Y10097D01*
X45281Y10132D01*
X45307Y10163D01*
X45358Y10271D01*
X45415Y10375D01*
X45425Y10415D01*
X45443Y10451D01*
X45465Y10568D01*
X45495Y10683D01*
X45499Y10743D01*
X45502Y10763D01*
X45501Y10784D01*
X45505Y10844D01*
X45505Y13304D01*
X45490Y13422D01*
X45483Y13541D01*
X45470Y13579D01*
X45465Y13620D01*
X45421Y13730D01*
X45385Y13843D01*
X45363Y13878D01*
X45348Y13915D01*
X45278Y14011D01*
X45215Y14112D01*
X45185Y14140D01*
X45161Y14173D01*
X45070Y14249D01*
X44983Y14330D01*
X44948Y14350D01*
X44916Y14375D01*
X44809Y14426D01*
X44704Y14484D01*
X44665Y14494D01*
X44629Y14511D01*
X44512Y14533D01*
X44396Y14563D01*
X44336Y14567D01*
X44316Y14571D01*
X44296Y14569D01*
X44236Y14573D01*
X37925Y14573D01*
X37925Y18074D01*
X37917Y18143D01*
X37918Y18213D01*
X37897Y18301D01*
X37885Y18390D01*
X37860Y18455D01*
X37843Y18523D01*
X37801Y18602D01*
X37768Y18685D01*
X37727Y18742D01*
X37695Y18804D01*
X37634Y18870D01*
X37582Y18943D01*
X37528Y18987D01*
X37481Y19039D01*
X37406Y19088D01*
X37337Y19146D01*
X37273Y19175D01*
X37215Y19214D01*
X37130Y19243D01*
X37049Y19281D01*
X36980Y19294D01*
X36914Y19317D01*
X36825Y19324D01*
X36737Y19341D01*
X36667Y19337D01*
X36597Y19342D01*
X36509Y19327D01*
X36419Y19321D01*
X36353Y19300D01*
X36284Y19288D01*
X36202Y19251D01*
X36117Y19223D01*
X36058Y19186D01*
X35994Y19157D01*
X35924Y19101D01*
X35848Y19053D01*
X35800Y19002D01*
X35746Y18959D01*
X35691Y18887D01*
X35630Y18821D01*
X35596Y18760D01*
X35554Y18704D01*
X35483Y18560D01*
X34831Y16985D01*
X32545Y14699D01*
X29557Y13461D01*
X26416Y13461D01*
X26298Y13446D01*
X26179Y13439D01*
X26141Y13426D01*
X26100Y13421D01*
X25990Y13378D01*
X25877Y13341D01*
X25842Y13319D01*
X25805Y13304D01*
X25709Y13235D01*
X25608Y13171D01*
X25580Y13141D01*
X25547Y13118D01*
X25471Y13026D01*
X25390Y12939D01*
X25370Y12904D01*
X25345Y12873D01*
X25294Y12765D01*
X25236Y12661D01*
X25226Y12621D01*
X25209Y12585D01*
X25187Y12468D01*
X25157Y12353D01*
X25153Y12293D01*
X25149Y12273D01*
X25151Y12252D01*
X25147Y12192D01*
X25147Y10224D01*
X23322Y5820D01*
X23309Y5772D01*
X23288Y5727D01*
X23267Y5619D01*
X23238Y5513D01*
X23238Y5463D01*
X23228Y5414D01*
X23235Y5305D01*
X23233Y5195D01*
X23245Y5147D01*
X23248Y5097D01*
X23282Y4993D01*
X23307Y4886D01*
X23331Y4842D01*
X23346Y4795D01*
X23405Y4702D01*
X23456Y4605D01*
X23490Y4568D01*
X23516Y4526D01*
X23596Y4451D01*
X23670Y4369D01*
X23712Y4342D01*
X23748Y4308D01*
X23844Y4255D01*
X23936Y4195D01*
X23983Y4178D01*
X24026Y4154D01*
X24133Y4127D01*
X24237Y4091D01*
X24286Y4087D01*
X24334Y4075D01*
X24495Y4065D01*
X36854Y4065D01*
X36979Y4080D01*
G37*
G36*
X55717Y187746D02*
X55717Y187746D01*
X55822Y187749D01*
X55875Y187765D01*
X55929Y187771D01*
X56027Y187809D01*
X56127Y187838D01*
X56175Y187866D01*
X56226Y187885D01*
X56311Y187946D01*
X56401Y187999D01*
X56468Y188058D01*
X56485Y188070D01*
X56495Y188082D01*
X56522Y188106D01*
X62925Y194509D01*
X62957Y194550D01*
X62960Y194552D01*
X62974Y194567D01*
X63049Y194633D01*
X65510Y197093D01*
X65570Y197171D01*
X65638Y197244D01*
X65667Y197297D01*
X65704Y197344D01*
X65744Y197435D01*
X65792Y197522D01*
X65807Y197581D01*
X65831Y197636D01*
X65846Y197734D01*
X65871Y197830D01*
X65877Y197930D01*
X65881Y197950D01*
X65879Y197963D01*
X65881Y197991D01*
X65881Y202986D01*
X65866Y203104D01*
X65859Y203223D01*
X65846Y203261D01*
X65841Y203301D01*
X65798Y203412D01*
X65761Y203525D01*
X65739Y203559D01*
X65724Y203597D01*
X65655Y203693D01*
X65591Y203794D01*
X65561Y203822D01*
X65538Y203854D01*
X65446Y203930D01*
X65359Y204012D01*
X65324Y204031D01*
X65293Y204057D01*
X65185Y204108D01*
X65081Y204165D01*
X65041Y204175D01*
X65005Y204193D01*
X64888Y204215D01*
X64773Y204245D01*
X64713Y204249D01*
X64693Y204252D01*
X64672Y204251D01*
X64612Y204255D01*
X62152Y204255D01*
X62034Y204240D01*
X61915Y204233D01*
X61877Y204220D01*
X61836Y204215D01*
X61726Y204171D01*
X61613Y204135D01*
X61578Y204113D01*
X61541Y204098D01*
X61444Y204028D01*
X61344Y203965D01*
X61316Y203935D01*
X61283Y203911D01*
X61207Y203820D01*
X61126Y203733D01*
X61106Y203698D01*
X61081Y203666D01*
X61030Y203559D01*
X60972Y203454D01*
X60962Y203415D01*
X60945Y203379D01*
X60923Y203262D01*
X60893Y203146D01*
X60889Y203086D01*
X60885Y203066D01*
X60887Y203046D01*
X60883Y202986D01*
X60883Y196675D01*
X57548Y196675D01*
X56901Y196848D01*
X56322Y197183D01*
X55870Y197635D01*
X55775Y197708D01*
X55686Y197787D01*
X55650Y197805D01*
X55618Y197830D01*
X55509Y197877D01*
X55403Y197932D01*
X55364Y197940D01*
X55327Y197956D01*
X55209Y197975D01*
X55093Y198001D01*
X55052Y198000D01*
X55013Y198006D01*
X54894Y197995D01*
X54775Y197991D01*
X54736Y197980D01*
X54696Y197976D01*
X54583Y197936D01*
X54553Y197927D01*
X53365Y197927D01*
X53356Y197926D01*
X53347Y197927D01*
X53199Y197906D01*
X53050Y197887D01*
X53041Y197884D01*
X53032Y197883D01*
X52880Y197831D01*
X51221Y197144D01*
X51100Y197075D01*
X50978Y197010D01*
X50963Y196996D01*
X50945Y196986D01*
X50845Y196889D01*
X50742Y196796D01*
X50731Y196779D01*
X50717Y196765D01*
X50644Y196646D01*
X50567Y196530D01*
X50561Y196511D01*
X50550Y196494D01*
X50509Y196361D01*
X50464Y196229D01*
X50463Y196209D01*
X50457Y196190D01*
X50450Y196050D01*
X50439Y195912D01*
X50442Y195893D01*
X50442Y195872D01*
X50470Y195736D01*
X50493Y195599D01*
X50502Y195581D01*
X50506Y195561D01*
X50567Y195436D01*
X50624Y195309D01*
X50637Y195293D01*
X50646Y195275D01*
X50735Y195170D01*
X50823Y195061D01*
X50839Y195048D01*
X50852Y195033D01*
X50965Y194953D01*
X51077Y194869D01*
X51102Y194857D01*
X51112Y194850D01*
X51131Y194843D01*
X51221Y194798D01*
X51962Y194491D01*
X52747Y193967D01*
X53414Y193300D01*
X53939Y192515D01*
X54300Y191644D01*
X54325Y191515D01*
X42418Y191515D01*
X42300Y191500D01*
X42181Y191493D01*
X42143Y191481D01*
X42103Y191476D01*
X41992Y191432D01*
X41879Y191395D01*
X41845Y191373D01*
X41807Y191359D01*
X41711Y191289D01*
X41610Y191225D01*
X41582Y191195D01*
X41550Y191172D01*
X41474Y191080D01*
X41392Y190993D01*
X41373Y190958D01*
X41347Y190927D01*
X41296Y190819D01*
X41239Y190715D01*
X41229Y190676D01*
X41211Y190639D01*
X41189Y190522D01*
X41159Y190407D01*
X41155Y190347D01*
X41152Y190327D01*
X41152Y190326D01*
X41153Y190306D01*
X41149Y190246D01*
X41164Y190128D01*
X41171Y190009D01*
X41184Y189970D01*
X41189Y189930D01*
X41233Y189820D01*
X41269Y189706D01*
X41291Y189672D01*
X41306Y189635D01*
X41376Y189538D01*
X41440Y189438D01*
X41469Y189410D01*
X41493Y189377D01*
X41585Y189301D01*
X41671Y189220D01*
X41707Y189200D01*
X41738Y189174D01*
X41845Y189124D01*
X41950Y189066D01*
X41989Y189056D01*
X42025Y189039D01*
X42142Y189017D01*
X42258Y188987D01*
X42318Y188983D01*
X42338Y188979D01*
X42358Y188980D01*
X42418Y188977D01*
X54360Y188977D01*
X54357Y188933D01*
X54376Y188831D01*
X54386Y188727D01*
X54404Y188675D01*
X54414Y188621D01*
X54458Y188526D01*
X54493Y188427D01*
X54524Y188382D01*
X54547Y188332D01*
X54613Y188251D01*
X54672Y188164D01*
X54713Y188128D01*
X54748Y188085D01*
X54832Y188023D01*
X54910Y187954D01*
X54959Y187929D01*
X55004Y187896D01*
X55100Y187857D01*
X55194Y187809D01*
X55247Y187797D01*
X55298Y187776D01*
X55402Y187762D01*
X55504Y187740D01*
X55559Y187741D01*
X55614Y187734D01*
X55717Y187746D01*
G37*
G36*
X49648Y314976D02*
X49648Y314976D01*
X49767Y314983D01*
X49805Y314996D01*
X49845Y315001D01*
X49956Y315044D01*
X50069Y315081D01*
X50103Y315103D01*
X50141Y315118D01*
X50237Y315188D01*
X50338Y315251D01*
X50366Y315281D01*
X50398Y315304D01*
X50474Y315396D01*
X50556Y315483D01*
X50575Y315518D01*
X50601Y315549D01*
X50652Y315657D01*
X50709Y315761D01*
X50720Y315801D01*
X50737Y315837D01*
X50759Y315954D01*
X50789Y316069D01*
X50793Y316130D01*
X50797Y316150D01*
X50795Y316170D01*
X50799Y316230D01*
X50799Y318770D01*
X50784Y318888D01*
X50777Y319007D01*
X50764Y319045D01*
X50759Y319085D01*
X50715Y319196D01*
X50679Y319309D01*
X50657Y319344D01*
X50642Y319381D01*
X50572Y319477D01*
X50509Y319578D01*
X50479Y319606D01*
X50455Y319639D01*
X50364Y319714D01*
X50277Y319796D01*
X50242Y319816D01*
X50210Y319841D01*
X50103Y319892D01*
X49998Y319950D01*
X49959Y319960D01*
X49923Y319977D01*
X49806Y319999D01*
X49691Y320029D01*
X49630Y320033D01*
X49610Y320037D01*
X49590Y320035D01*
X49530Y320039D01*
X26670Y320039D01*
X26552Y320024D01*
X26433Y320017D01*
X26395Y320004D01*
X26355Y319999D01*
X26244Y319956D01*
X26131Y319919D01*
X26097Y319897D01*
X26059Y319882D01*
X25963Y319812D01*
X25862Y319749D01*
X25834Y319719D01*
X25802Y319695D01*
X25726Y319604D01*
X25644Y319517D01*
X25625Y319482D01*
X25599Y319451D01*
X25548Y319343D01*
X25491Y319239D01*
X25480Y319199D01*
X25463Y319163D01*
X25441Y319046D01*
X25411Y318931D01*
X25407Y318870D01*
X25403Y318850D01*
X25405Y318830D01*
X25401Y318770D01*
X25401Y316230D01*
X25416Y316112D01*
X25423Y315993D01*
X25436Y315955D01*
X25441Y315914D01*
X25485Y315804D01*
X25521Y315691D01*
X25543Y315656D01*
X25558Y315619D01*
X25628Y315523D01*
X25691Y315422D01*
X25721Y315394D01*
X25745Y315361D01*
X25836Y315286D01*
X25923Y315204D01*
X25958Y315184D01*
X25990Y315159D01*
X26097Y315108D01*
X26202Y315050D01*
X26241Y315040D01*
X26277Y315023D01*
X26394Y315001D01*
X26509Y314971D01*
X26570Y314967D01*
X26590Y314963D01*
X26610Y314965D01*
X26670Y314961D01*
X49530Y314961D01*
X49648Y314976D01*
G37*
%LPC*%
G36*
X134619Y229839D02*
X134619Y229839D01*
X134619Y236841D01*
X140414Y236841D01*
X141061Y236668D01*
X141640Y236333D01*
X142113Y235860D01*
X142448Y235281D01*
X142621Y234634D01*
X142621Y229839D01*
X134619Y229839D01*
G37*
%LPD*%
%LPC*%
G36*
X49529Y276889D02*
X49529Y276889D01*
X49529Y283891D01*
X55324Y283891D01*
X55971Y283718D01*
X56550Y283383D01*
X57023Y282910D01*
X57358Y282331D01*
X57531Y281684D01*
X57531Y276889D01*
X49529Y276889D01*
G37*
%LPD*%
%LPC*%
G36*
X38656Y264809D02*
X38656Y264809D01*
X38009Y264982D01*
X37430Y265317D01*
X36957Y265790D01*
X36622Y266369D01*
X36449Y267016D01*
X36449Y271811D01*
X44451Y271811D01*
X44451Y264809D01*
X38656Y264809D01*
G37*
%LPD*%
%LPC*%
G36*
X64134Y9524D02*
X64134Y9524D01*
X64134Y13971D01*
X70184Y13971D01*
X70831Y13798D01*
X71410Y13463D01*
X71883Y12990D01*
X72218Y12411D01*
X72391Y11764D01*
X72391Y9524D01*
X64134Y9524D01*
G37*
%LPD*%
%LPC*%
G36*
X107949Y9524D02*
X107949Y9524D01*
X107949Y11764D01*
X108122Y12411D01*
X108457Y12990D01*
X108930Y13463D01*
X109509Y13798D01*
X110156Y13971D01*
X116206Y13971D01*
X116206Y9524D01*
X107949Y9524D01*
G37*
%LPD*%
%LPC*%
G36*
X101169Y64849D02*
X101169Y64849D01*
X101169Y69891D01*
X106711Y69891D01*
X106711Y67056D01*
X106538Y66409D01*
X106203Y65830D01*
X105730Y65357D01*
X105151Y65022D01*
X104504Y64849D01*
X101169Y64849D01*
G37*
%LPD*%
%LPC*%
G36*
X46989Y274349D02*
X46989Y274349D01*
X46989Y274351D01*
X46991Y274351D01*
X46991Y274349D01*
X46989Y274349D01*
G37*
%LPD*%
D10*
X80382Y204216D03*
X63382Y204216D03*
D11*
X46990Y274350D03*
X46990Y246350D03*
D10*
X97400Y266700D03*
X80400Y266700D03*
D12*
X94424Y222194D02*
X94424Y215194D01*
X94424Y222194D02*
X101424Y222194D01*
X101424Y215194D01*
X94424Y215194D01*
X94424Y218044D02*
X101424Y218044D01*
X101424Y220894D02*
X94424Y220894D01*
X76884Y222194D02*
X76884Y215194D01*
X76884Y222194D02*
X83884Y222194D01*
X83884Y215194D01*
X76884Y215194D01*
X76884Y218044D02*
X83884Y218044D01*
X83884Y220894D02*
X76884Y220894D01*
D13*
X45466Y43824D03*
X45466Y60824D03*
D10*
X98670Y72390D03*
X81670Y72390D03*
D13*
X45466Y12074D03*
X45466Y29074D03*
X137160Y57522D03*
X137160Y40522D03*
D12*
X133660Y12002D02*
X140660Y12002D01*
X140660Y5002D01*
X133660Y5002D01*
X133660Y12002D01*
X133660Y7852D02*
X140660Y7852D01*
X140660Y10702D02*
X133660Y10702D01*
X133660Y29542D02*
X140660Y29542D01*
X140660Y22542D01*
X133660Y22542D01*
X133660Y29542D01*
X133660Y25392D02*
X140660Y25392D01*
X140660Y28242D02*
X133660Y28242D01*
D14*
X101901Y232308D03*
X101901Y241808D03*
X101901Y251308D03*
X75899Y251308D03*
X75899Y232308D03*
D11*
X132080Y227300D03*
X132080Y255300D03*
D15*
X165100Y292100D03*
X165100Y266700D03*
X165100Y241300D03*
X165100Y215900D03*
X165100Y190500D03*
X165100Y165100D03*
X165100Y139700D03*
X165100Y114300D03*
X165100Y88900D03*
X165100Y63500D03*
X165100Y38100D03*
X165100Y12700D03*
X12700Y12700D03*
X12700Y38100D03*
X12700Y63500D03*
X12700Y88900D03*
X12700Y114300D03*
X12700Y139700D03*
X12700Y165100D03*
X12700Y190500D03*
X12700Y215900D03*
X12700Y241300D03*
X12700Y266700D03*
X12700Y292100D03*
X135890Y179070D03*
X135890Y204470D03*
D16*
G36*
X80860Y183387D02*
X71881Y192366D01*
X75832Y196317D01*
X84811Y187338D01*
X80860Y183387D01*
G37*
G36*
X75203Y177730D02*
X66224Y186709D01*
X70175Y190660D01*
X79154Y181681D01*
X75203Y177730D01*
G37*
G36*
X69546Y172074D02*
X60567Y181053D01*
X64518Y185004D01*
X73497Y176025D01*
X69546Y172074D01*
G37*
G36*
X63889Y166417D02*
X54910Y175396D01*
X58861Y179347D01*
X67840Y170368D01*
X63889Y166417D01*
G37*
G36*
X58232Y160760D02*
X49253Y169739D01*
X53204Y173690D01*
X62183Y164711D01*
X58232Y160760D01*
G37*
G36*
X52575Y155103D02*
X43596Y164082D01*
X47547Y168033D01*
X56526Y159054D01*
X52575Y155103D01*
G37*
G36*
X46919Y149446D02*
X37940Y158425D01*
X41891Y162376D01*
X50870Y153397D01*
X46919Y149446D01*
G37*
G36*
X41262Y143789D02*
X32283Y152768D01*
X36234Y156719D01*
X45213Y147740D01*
X41262Y143789D01*
G37*
D17*
G36*
X36234Y122681D02*
X32283Y126632D01*
X41262Y135611D01*
X45213Y131660D01*
X36234Y122681D01*
G37*
G36*
X41891Y117024D02*
X37940Y120975D01*
X46919Y129954D01*
X50870Y126003D01*
X41891Y117024D01*
G37*
G36*
X47547Y111367D02*
X43596Y115318D01*
X52575Y124297D01*
X56526Y120346D01*
X47547Y111367D01*
G37*
G36*
X53204Y105710D02*
X49253Y109661D01*
X58232Y118640D01*
X62183Y114689D01*
X53204Y105710D01*
G37*
G36*
X58861Y100053D02*
X54910Y104004D01*
X63889Y112983D01*
X67840Y109032D01*
X58861Y100053D01*
G37*
G36*
X64518Y94396D02*
X60567Y98347D01*
X69546Y107326D01*
X73497Y103375D01*
X64518Y94396D01*
G37*
G36*
X70175Y88740D02*
X66224Y92691D01*
X75203Y101670D01*
X79154Y97719D01*
X70175Y88740D01*
G37*
G36*
X75832Y83083D02*
X71881Y87034D01*
X80860Y96013D01*
X84811Y92062D01*
X75832Y83083D01*
G37*
D16*
G36*
X101968Y83083D02*
X92989Y92062D01*
X96940Y96013D01*
X105919Y87034D01*
X101968Y83083D01*
G37*
G36*
X107625Y88740D02*
X98646Y97719D01*
X102597Y101670D01*
X111576Y92691D01*
X107625Y88740D01*
G37*
G36*
X113282Y94396D02*
X104303Y103375D01*
X108254Y107326D01*
X117233Y98347D01*
X113282Y94396D01*
G37*
G36*
X118939Y100053D02*
X109960Y109032D01*
X113911Y112983D01*
X122890Y104004D01*
X118939Y100053D01*
G37*
G36*
X124596Y105710D02*
X115617Y114689D01*
X119568Y118640D01*
X128547Y109661D01*
X124596Y105710D01*
G37*
G36*
X130253Y111367D02*
X121274Y120346D01*
X125225Y124297D01*
X134204Y115318D01*
X130253Y111367D01*
G37*
G36*
X135909Y117024D02*
X126930Y126003D01*
X130881Y129954D01*
X139860Y120975D01*
X135909Y117024D01*
G37*
G36*
X141566Y122681D02*
X132587Y131660D01*
X136538Y135611D01*
X145517Y126632D01*
X141566Y122681D01*
G37*
D17*
G36*
X136538Y143789D02*
X132587Y147740D01*
X141566Y156719D01*
X145517Y152768D01*
X136538Y143789D01*
G37*
G36*
X130881Y149446D02*
X126930Y153397D01*
X135909Y162376D01*
X139860Y158425D01*
X130881Y149446D01*
G37*
G36*
X125225Y155103D02*
X121274Y159054D01*
X130253Y168033D01*
X134204Y164082D01*
X125225Y155103D01*
G37*
G36*
X119568Y160760D02*
X115617Y164711D01*
X124596Y173690D01*
X128547Y169739D01*
X119568Y160760D01*
G37*
G36*
X113911Y166417D02*
X109960Y170368D01*
X118939Y179347D01*
X122890Y175396D01*
X113911Y166417D01*
G37*
G36*
X108254Y172074D02*
X104303Y176025D01*
X113282Y185004D01*
X117233Y181053D01*
X108254Y172074D01*
G37*
G36*
X102597Y177730D02*
X98646Y181681D01*
X107625Y190660D01*
X111576Y186709D01*
X102597Y177730D01*
G37*
G36*
X96940Y183387D02*
X92989Y187338D01*
X101968Y196317D01*
X105919Y192366D01*
X96940Y183387D01*
G37*
D15*
X152400Y317500D03*
X127000Y317500D03*
X101600Y317500D03*
X76200Y317500D03*
X50800Y317500D03*
X25400Y317500D03*
D10*
X136516Y292100D03*
X119516Y292100D03*
D18*
X39370Y292100D03*
X124460Y25400D03*
D19*
X46990Y226369D03*
X46990Y218131D03*
D20*
X118110Y7620D03*
X62230Y7620D03*
X118110Y45720D03*
X62230Y45720D03*
D15*
X135890Y74930D03*
X135890Y100330D03*
D21*
X49693Y178246D02*
X35143Y178246D01*
X35143Y190246D02*
X49693Y190246D01*
X49693Y202246D02*
X35143Y202246D01*
D22*
X32258Y178246D02*
X42418Y178246D01*
X52578Y178246D01*
X42418Y202246D02*
X32258Y202246D01*
X42418Y202246D02*
X52578Y202246D01*
X42418Y190246D02*
X32258Y190246D01*
X42418Y190246D02*
X52578Y190246D01*
X101600Y241300D02*
X114046Y241300D01*
D23*
X114300Y127000D03*
X96520Y144780D03*
X88900Y26670D03*
X51054Y292862D03*
X104140Y204470D03*
X63500Y144780D03*
X147574Y254000D03*
X77216Y169418D03*
X36830Y260350D03*
X114046Y241300D03*
X64008Y241300D03*
D22*
X49902Y16510D02*
X45466Y12074D01*
X49902Y16510D02*
X59690Y16510D01*
X76661Y168910D02*
X67032Y178539D01*
X76661Y168910D02*
X77470Y168910D01*
D23*
X81534Y292608D03*
X118110Y58420D03*
D22*
X118110Y7620D02*
X133230Y7620D01*
X56896Y190246D02*
X52578Y190246D01*
X56896Y190246D02*
X63500Y196850D01*
X63500Y204098D02*
X63382Y204216D01*
X63500Y202184D02*
X63500Y196850D01*
X63500Y202184D02*
X56642Y209042D01*
X50292Y209042D01*
X50038Y209296D01*
X104140Y115570D02*
X107372Y115570D01*
D23*
X104140Y115570D03*
X59690Y30480D03*
D22*
X46872Y30480D01*
X45466Y29074D01*
X116425Y106518D02*
X107373Y115570D01*
X104140Y115570D01*
X152400Y241300D02*
X165100Y241300D01*
X123190Y210820D02*
X123190Y179647D01*
X152400Y224790D02*
X152400Y241300D01*
X152400Y224790D02*
X144780Y217170D01*
D24*
X129540Y217170D01*
X123190Y210820D01*
D22*
X109220Y165677D02*
X109220Y153670D01*
X113030Y149860D01*
X152400Y241300D02*
X152400Y246888D01*
X157734Y252222D01*
X157734Y255778D01*
X151638Y261874D01*
X151638Y284226D01*
D23*
X88900Y45720D03*
X113030Y149860D03*
D22*
X151638Y284226D02*
X143764Y292100D01*
X136516Y292100D01*
X123190Y179647D02*
X116425Y172882D01*
X109220Y165677D01*
X116425Y172882D02*
X116425Y172882D01*
X118110Y45720D02*
X88900Y45720D01*
X62230Y45720D01*
X47362Y45720D01*
X45466Y43824D01*
X165100Y83820D02*
X165100Y88900D01*
X165100Y83820D02*
X152400Y71120D01*
X152400Y67310D01*
X142612Y57522D02*
X141850Y56760D01*
X126251Y62751D02*
X99454Y89548D01*
X131480Y57522D02*
X132242Y56760D01*
X137160Y57522D02*
X142612Y57522D01*
X152400Y67310D01*
X137160Y57522D02*
X131480Y57522D01*
X126251Y62751D01*
X82550Y93752D02*
X78346Y89548D01*
X82550Y93752D02*
X82550Y124460D01*
X80010Y127000D01*
D23*
X80010Y127000D03*
D22*
X77470Y111760D02*
X77470Y99986D01*
X77470Y111760D02*
X73660Y115570D01*
D23*
X73660Y115570D03*
D22*
X77470Y99986D02*
X72689Y95205D01*
X72689Y95205D01*
X137160Y40522D02*
X137160Y26042D01*
X12700Y292100D02*
X25400Y304800D01*
X110490Y304800D02*
X114300Y304800D01*
X110236Y304800D02*
X25400Y304800D01*
X114300Y304800D02*
X127000Y317500D01*
X120650Y235712D02*
X120650Y215900D01*
X120650Y235712D02*
X123444Y238506D01*
X123444Y244094D01*
X120650Y246888D01*
X120650Y273050D01*
X120650Y215900D02*
X118110Y213360D01*
X118110Y197194D01*
X105111Y184195D01*
X118110Y197194D02*
X118110Y197194D01*
X120650Y273050D02*
X110236Y283464D01*
X110236Y304800D01*
X110490Y304800D01*
X88900Y111415D02*
X89362Y110953D01*
X88900Y110491D01*
X88900Y132080D02*
X81280Y139700D01*
X88900Y111416D02*
X88900Y110491D01*
X88900Y111416D02*
X88900Y132080D01*
X59690Y132080D02*
X54610Y137160D01*
X59690Y132080D02*
X68580Y132080D01*
X72390Y135890D01*
X72390Y139700D01*
X72390Y161867D01*
X72390Y139700D02*
X81280Y139700D01*
X54610Y137160D02*
X54610Y157019D01*
D23*
X66294Y221996D03*
D22*
X88900Y110491D02*
X88900Y79620D01*
X81670Y72390D01*
X49530Y72390D01*
X45720Y68580D01*
X45720Y61078D01*
X45466Y60824D01*
X54610Y157019D02*
X50061Y161568D01*
X61375Y172881D02*
X61375Y172882D01*
X72390Y161867D01*
X88900Y111416D02*
X105111Y95205D01*
X36830Y236190D02*
X46990Y246350D01*
X36830Y236190D02*
X36830Y220980D01*
D23*
X63500Y264160D03*
D22*
X46990Y247650D01*
X46990Y246350D01*
X36830Y220980D02*
X39370Y218440D01*
X46681Y218440D01*
X46990Y218131D01*
X61375Y173135D02*
X61375Y172882D01*
X57150Y179138D02*
X57150Y182626D01*
X78740Y204216D01*
X57150Y179138D02*
X61375Y174913D01*
X61375Y172882D01*
X78740Y204216D02*
X80382Y204216D01*
X79756Y204216D02*
X66294Y217678D01*
X79756Y204216D02*
X80382Y204216D01*
X66294Y217678D02*
X66294Y221996D01*
X62429Y218131D02*
X46990Y218131D01*
X62429Y218131D02*
X66294Y221996D01*
X132080Y255300D02*
X140462Y263682D01*
X140462Y272796D01*
X95098Y251308D02*
X91440Y247650D01*
X95098Y251308D02*
X101901Y251308D01*
X91440Y247650D02*
X91440Y236982D01*
X94996Y233426D01*
X100783Y233426D01*
X101901Y232308D01*
D23*
X111760Y261620D03*
X140462Y272796D03*
D22*
X111760Y261620D02*
X111760Y254000D01*
X109220Y251460D01*
X102053Y251460D01*
X101901Y251308D01*
X55187Y100330D02*
X50800Y100330D01*
X49530Y101600D01*
X41910Y101600D01*
X35560Y95250D01*
X35560Y77470D01*
X30480Y72390D01*
X30480Y54610D01*
X12700Y19050D02*
X12700Y12700D01*
X12700Y19050D02*
X25400Y31750D01*
X25400Y49530D01*
X30480Y54610D01*
X55187Y100330D02*
X61375Y106518D01*
X61375Y106518D01*
X25400Y74930D02*
X25400Y57150D01*
X25400Y74930D02*
X30480Y80010D01*
X25400Y57150D02*
X12700Y44450D01*
X12700Y38100D01*
X36830Y106680D02*
X50223Y106680D01*
X36830Y106680D02*
X35560Y105410D01*
X35560Y102870D01*
X30480Y97790D01*
X30480Y80010D01*
X50223Y106680D02*
X55718Y112175D01*
X55718Y112175D01*
X134620Y140970D02*
X135890Y139700D01*
X140970Y139700D01*
X153670Y152400D01*
X134366Y140970D02*
X117348Y157988D01*
X134366Y140970D02*
X134620Y140970D01*
X117348Y157988D02*
X117348Y162491D01*
D23*
X153670Y152400D03*
D22*
X122082Y167225D02*
X117348Y162491D01*
X122082Y167225D02*
X122082Y167225D01*
X135890Y169719D02*
X135890Y179070D01*
X135890Y169719D02*
X127739Y161568D01*
X135890Y169719D02*
X135890Y169719D01*
X165100Y187616D02*
X165100Y190500D01*
X165100Y187616D02*
X133395Y155911D01*
X165100Y187616D02*
X165100Y190500D01*
X153898Y165100D02*
X139052Y150254D01*
X153898Y165100D02*
X165100Y165100D01*
X165100Y139700D02*
X152400Y127000D01*
X139700Y127000D01*
X139052Y127648D01*
X139052Y129146D01*
X142583Y114300D02*
X165100Y114300D01*
X142583Y114301D02*
X133395Y123489D01*
X142583Y114301D02*
X142583Y114300D01*
D23*
X93218Y198120D03*
D22*
X93218Y196089D02*
X99454Y189852D01*
X93218Y196089D02*
X93218Y198120D01*
X95250Y172947D02*
X95250Y168910D01*
D23*
X95250Y168910D03*
D22*
X95250Y172948D02*
X78346Y189852D01*
X95250Y172948D02*
X95250Y168910D01*
X86360Y161290D02*
X91440Y156210D01*
X88900Y156210D01*
X81280Y177800D02*
X79083Y177800D01*
X81280Y177800D02*
X86360Y172720D01*
X86360Y161290D01*
D23*
X88900Y156210D03*
D22*
X79083Y177801D02*
X72689Y184195D01*
X79083Y177801D02*
X79083Y177800D01*
X38748Y129146D02*
X34062Y124460D01*
X26670Y124460D01*
X16510Y114300D01*
X12700Y114300D01*
X12700Y91784D02*
X12700Y88900D01*
X27940Y118110D02*
X39026Y118110D01*
X27940Y118110D02*
X25400Y115570D01*
X25400Y107950D01*
X12700Y95250D01*
X12700Y88900D01*
X39026Y118110D02*
X44405Y123489D01*
X39026Y118110D02*
X39026Y118110D01*
X25400Y82550D02*
X12700Y69850D01*
X12700Y63500D01*
X33020Y111760D02*
X43989Y111760D01*
X33020Y111760D02*
X30480Y109220D01*
X30480Y105410D01*
X25400Y100330D01*
X25400Y82550D01*
X43989Y111760D02*
X50061Y117832D01*
X50061Y117832D01*
X49530Y95250D02*
X61421Y95250D01*
X49530Y95250D02*
X48260Y96520D01*
X44450Y96520D01*
X40640Y92710D01*
X35560Y52070D02*
X30480Y46990D01*
X35560Y52070D02*
X35560Y69850D01*
X40640Y74930D01*
X40640Y92710D01*
D23*
X27940Y21590D03*
D22*
X30480Y24130D02*
X30480Y46990D01*
X30480Y24130D02*
X27940Y21590D01*
X61421Y95250D02*
X67032Y100861D01*
X67032Y100861D01*
X26670Y181610D02*
X26670Y198628D01*
X26162Y162840D02*
X38748Y150254D01*
X26162Y162840D02*
X26162Y168656D01*
X23368Y172212D01*
X23368Y178308D01*
X26670Y181610D01*
X30288Y202246D02*
X32258Y202246D01*
X30288Y202246D02*
X26670Y198628D01*
X41622Y158702D02*
X44405Y155919D01*
X44405Y155911D01*
X29464Y171958D02*
X29464Y175960D01*
X31750Y178246D01*
X32258Y178246D01*
X29464Y171958D02*
X44405Y157017D01*
X44405Y155911D01*
X139700Y304800D02*
X152400Y317500D01*
X139700Y304800D02*
X130810Y304800D01*
X119516Y293506D01*
X119516Y292100D01*
X121920Y139700D02*
X110490Y139700D01*
X104140Y149860D02*
X104140Y171911D01*
X104140Y149860D02*
X105410Y144780D01*
X110490Y139700D01*
D23*
X121920Y139700D03*
D22*
X104140Y171911D02*
X110768Y178539D01*
X110768Y178539D01*
X110768Y100861D02*
X135890Y75739D01*
X135890Y74930D01*
X135890Y109680D02*
X127739Y117831D01*
X127739Y117832D01*
X135890Y109680D02*
X135890Y100330D01*
X75899Y232308D02*
X62128Y232308D01*
X56189Y226369D01*
X46990Y226369D01*
X80384Y227823D02*
X80384Y218694D01*
X80384Y227823D02*
X75899Y232308D01*
X86360Y230258D02*
X86360Y260740D01*
X80400Y266700D01*
X86360Y230258D02*
X97924Y218694D01*
M02*
