G04 EAGLE Gerber RS-274X export*
G75*
%MOMM*%
%FSLAX34Y34*%
%LPD*%
%INSilkscreen Bottom*%
%IPPOS*%
%AMOC8*
5,1,8,0,0,1.08239X$1,22.5*%
G01*
%ADD10C,0.127000*%
%ADD11C,0.279400*%
%ADD12R,0.635000X0.635000*%
%ADD13C,0.025400*%
%ADD14R,0.485100X0.495300*%
%ADD15C,0.203200*%
%ADD16R,0.762000X0.457200*%

G36*
X127919Y248286D02*
X127919Y248286D01*
X128027Y248300D01*
X128039Y248306D01*
X128053Y248308D01*
X128149Y248360D01*
X128246Y248407D01*
X128256Y248417D01*
X128268Y248423D01*
X128342Y248503D01*
X128419Y248579D01*
X128425Y248591D01*
X128435Y248602D01*
X128480Y248700D01*
X128528Y248797D01*
X128532Y248815D01*
X128536Y248824D01*
X128538Y248845D01*
X128557Y248942D01*
X129000Y253293D01*
X130159Y253664D01*
X130177Y253674D01*
X130274Y253712D01*
X131356Y254269D01*
X134746Y251505D01*
X134840Y251451D01*
X134932Y251394D01*
X134945Y251391D01*
X134957Y251384D01*
X135064Y251363D01*
X135169Y251338D01*
X135183Y251340D01*
X135197Y251337D01*
X135304Y251352D01*
X135412Y251362D01*
X135425Y251368D01*
X135439Y251370D01*
X135536Y251418D01*
X135635Y251463D01*
X135648Y251474D01*
X135657Y251478D01*
X135672Y251494D01*
X135749Y251556D01*
X138334Y254141D01*
X138397Y254230D01*
X138463Y254315D01*
X138468Y254328D01*
X138476Y254340D01*
X138507Y254443D01*
X138543Y254546D01*
X138543Y254560D01*
X138547Y254573D01*
X138543Y254681D01*
X138544Y254790D01*
X138539Y254803D01*
X138539Y254817D01*
X138501Y254919D01*
X138466Y255021D01*
X138457Y255036D01*
X138453Y255045D01*
X138439Y255062D01*
X138385Y255144D01*
X135621Y258534D01*
X136178Y259616D01*
X136184Y259636D01*
X136226Y259731D01*
X136597Y260890D01*
X140948Y261333D01*
X141052Y261361D01*
X141158Y261386D01*
X141170Y261393D01*
X141183Y261396D01*
X141273Y261457D01*
X141366Y261514D01*
X141374Y261525D01*
X141386Y261533D01*
X141452Y261619D01*
X141521Y261703D01*
X141525Y261716D01*
X141534Y261727D01*
X141568Y261830D01*
X141607Y261931D01*
X141608Y261949D01*
X141612Y261958D01*
X141612Y261980D01*
X141621Y262078D01*
X141621Y265734D01*
X141604Y265841D01*
X141590Y265949D01*
X141584Y265961D01*
X141582Y265975D01*
X141530Y266071D01*
X141483Y266168D01*
X141473Y266178D01*
X141467Y266190D01*
X141387Y266264D01*
X141311Y266341D01*
X141299Y266347D01*
X141289Y266357D01*
X141190Y266402D01*
X141093Y266450D01*
X141075Y266454D01*
X141066Y266458D01*
X141045Y266460D01*
X140948Y266479D01*
X136597Y266922D01*
X136226Y268081D01*
X136216Y268099D01*
X136178Y268196D01*
X135621Y269278D01*
X138385Y272668D01*
X138439Y272762D01*
X138496Y272854D01*
X138499Y272867D01*
X138506Y272879D01*
X138527Y272986D01*
X138552Y273091D01*
X138550Y273105D01*
X138553Y273119D01*
X138538Y273226D01*
X138528Y273334D01*
X138522Y273347D01*
X138520Y273361D01*
X138472Y273458D01*
X138427Y273557D01*
X138416Y273570D01*
X138412Y273579D01*
X138396Y273594D01*
X138334Y273671D01*
X135749Y276256D01*
X135660Y276319D01*
X135575Y276385D01*
X135562Y276390D01*
X135550Y276398D01*
X135447Y276429D01*
X135344Y276465D01*
X135330Y276465D01*
X135317Y276469D01*
X135209Y276465D01*
X135100Y276466D01*
X135087Y276461D01*
X135073Y276461D01*
X134971Y276423D01*
X134869Y276388D01*
X134854Y276379D01*
X134845Y276375D01*
X134828Y276361D01*
X134746Y276307D01*
X131356Y273543D01*
X130274Y274100D01*
X130254Y274106D01*
X130159Y274148D01*
X129000Y274519D01*
X128557Y278870D01*
X128529Y278974D01*
X128504Y279080D01*
X128497Y279092D01*
X128494Y279105D01*
X128433Y279195D01*
X128376Y279288D01*
X128365Y279296D01*
X128357Y279308D01*
X128271Y279374D01*
X128187Y279443D01*
X128174Y279447D01*
X128163Y279456D01*
X128060Y279490D01*
X127959Y279529D01*
X127941Y279530D01*
X127932Y279534D01*
X127910Y279534D01*
X127812Y279543D01*
X124156Y279543D01*
X124049Y279526D01*
X123941Y279512D01*
X123929Y279506D01*
X123915Y279504D01*
X123819Y279452D01*
X123722Y279405D01*
X123712Y279395D01*
X123700Y279389D01*
X123626Y279309D01*
X123549Y279233D01*
X123543Y279221D01*
X123533Y279211D01*
X123488Y279112D01*
X123440Y279015D01*
X123436Y278997D01*
X123432Y278988D01*
X123430Y278967D01*
X123411Y278870D01*
X122968Y274519D01*
X121809Y274148D01*
X121791Y274138D01*
X121694Y274100D01*
X120612Y273543D01*
X117222Y276307D01*
X117128Y276361D01*
X117036Y276418D01*
X117023Y276421D01*
X117011Y276428D01*
X116904Y276449D01*
X116799Y276474D01*
X116785Y276472D01*
X116771Y276475D01*
X116664Y276460D01*
X116556Y276450D01*
X116543Y276444D01*
X116530Y276442D01*
X116432Y276394D01*
X116333Y276349D01*
X116320Y276338D01*
X116311Y276334D01*
X116296Y276318D01*
X116219Y276256D01*
X113634Y273671D01*
X113571Y273582D01*
X113505Y273497D01*
X113500Y273484D01*
X113492Y273472D01*
X113461Y273369D01*
X113425Y273266D01*
X113425Y273252D01*
X113421Y273239D01*
X113425Y273131D01*
X113424Y273022D01*
X113429Y273009D01*
X113429Y272995D01*
X113467Y272893D01*
X113502Y272791D01*
X113511Y272776D01*
X113515Y272767D01*
X113529Y272750D01*
X113583Y272668D01*
X116347Y269278D01*
X115790Y268196D01*
X115773Y268143D01*
X115747Y268094D01*
X115736Y268028D01*
X115715Y267964D01*
X115716Y267908D01*
X115707Y267854D01*
X115718Y267787D01*
X115719Y267720D01*
X115737Y267668D01*
X115746Y267613D01*
X115778Y267553D01*
X115801Y267490D01*
X115835Y267447D01*
X115861Y267398D01*
X115910Y267351D01*
X115952Y267299D01*
X115999Y267269D01*
X116039Y267231D01*
X116144Y267174D01*
X116157Y267166D01*
X116162Y267165D01*
X116169Y267161D01*
X121366Y265008D01*
X121465Y264985D01*
X121563Y264956D01*
X121584Y264957D01*
X121604Y264952D01*
X121705Y264962D01*
X121806Y264967D01*
X121826Y264974D01*
X121847Y264976D01*
X121939Y265018D01*
X122034Y265055D01*
X122050Y265068D01*
X122069Y265077D01*
X122143Y265146D01*
X122221Y265211D01*
X122237Y265234D01*
X122247Y265244D01*
X122259Y265265D01*
X122306Y265332D01*
X122812Y266231D01*
X123456Y266918D01*
X124244Y267433D01*
X125132Y267745D01*
X126069Y267837D01*
X127001Y267704D01*
X127875Y267353D01*
X128640Y266804D01*
X129253Y266090D01*
X129678Y265250D01*
X129892Y264334D01*
X129882Y263392D01*
X129648Y262480D01*
X129205Y261650D01*
X128576Y260949D01*
X127799Y260417D01*
X126918Y260086D01*
X125983Y259973D01*
X125066Y260081D01*
X124198Y260401D01*
X123429Y260915D01*
X122802Y261594D01*
X122307Y262478D01*
X122243Y262558D01*
X122183Y262641D01*
X122167Y262653D01*
X122154Y262669D01*
X122068Y262724D01*
X121985Y262784D01*
X121966Y262790D01*
X121949Y262800D01*
X121850Y262825D01*
X121752Y262855D01*
X121732Y262854D01*
X121712Y262859D01*
X121610Y262850D01*
X121508Y262847D01*
X121483Y262839D01*
X121469Y262838D01*
X121447Y262829D01*
X121366Y262804D01*
X116169Y260651D01*
X116122Y260622D01*
X116070Y260601D01*
X116019Y260558D01*
X115962Y260522D01*
X115927Y260479D01*
X115884Y260443D01*
X115850Y260386D01*
X115807Y260334D01*
X115788Y260282D01*
X115759Y260234D01*
X115745Y260168D01*
X115721Y260105D01*
X115719Y260050D01*
X115708Y259996D01*
X115715Y259929D01*
X115713Y259862D01*
X115729Y259808D01*
X115736Y259753D01*
X115780Y259642D01*
X115784Y259628D01*
X115787Y259624D01*
X115790Y259616D01*
X116347Y258534D01*
X113583Y255144D01*
X113529Y255050D01*
X113472Y254958D01*
X113469Y254945D01*
X113462Y254933D01*
X113441Y254826D01*
X113416Y254721D01*
X113418Y254707D01*
X113415Y254693D01*
X113430Y254586D01*
X113440Y254478D01*
X113446Y254465D01*
X113448Y254452D01*
X113496Y254354D01*
X113541Y254255D01*
X113552Y254242D01*
X113556Y254233D01*
X113572Y254218D01*
X113634Y254141D01*
X116219Y251556D01*
X116308Y251493D01*
X116393Y251427D01*
X116406Y251422D01*
X116418Y251414D01*
X116521Y251383D01*
X116624Y251347D01*
X116638Y251347D01*
X116651Y251343D01*
X116759Y251347D01*
X116868Y251346D01*
X116881Y251351D01*
X116895Y251351D01*
X116997Y251389D01*
X117099Y251424D01*
X117114Y251433D01*
X117123Y251437D01*
X117140Y251451D01*
X117222Y251505D01*
X120612Y254269D01*
X121694Y253712D01*
X121714Y253706D01*
X121809Y253664D01*
X122968Y253293D01*
X123411Y248942D01*
X123439Y248838D01*
X123464Y248732D01*
X123471Y248720D01*
X123474Y248707D01*
X123535Y248617D01*
X123592Y248524D01*
X123603Y248516D01*
X123611Y248504D01*
X123697Y248438D01*
X123781Y248370D01*
X123794Y248365D01*
X123805Y248356D01*
X123908Y248322D01*
X124009Y248283D01*
X124027Y248282D01*
X124036Y248278D01*
X124058Y248279D01*
X124156Y248269D01*
X127812Y248269D01*
X127919Y248286D01*
G37*
G36*
X115143Y144377D02*
X115143Y144377D01*
X115149Y144375D01*
X115980Y144445D01*
X115991Y144451D01*
X116006Y144450D01*
X116805Y144690D01*
X116815Y144698D01*
X116829Y144700D01*
X117561Y145101D01*
X117569Y145111D01*
X117582Y145116D01*
X118132Y145586D01*
X118137Y145597D01*
X118149Y145604D01*
X118594Y146174D01*
X118597Y146186D01*
X118607Y146196D01*
X118928Y146844D01*
X118929Y146856D01*
X118937Y146868D01*
X119121Y147567D01*
X119120Y147578D01*
X119125Y147589D01*
X119198Y148529D01*
X119196Y148538D01*
X119199Y148545D01*
X119198Y148547D01*
X119198Y148549D01*
X119125Y149489D01*
X119123Y149493D01*
X119124Y149499D01*
X119048Y149982D01*
X119023Y150021D01*
X119002Y150061D01*
X118998Y150062D01*
X118996Y150065D01*
X118951Y150075D01*
X118907Y150087D01*
X118903Y150085D01*
X118899Y150086D01*
X118861Y150061D01*
X118822Y150038D01*
X118821Y150033D01*
X118818Y150031D01*
X118809Y149990D01*
X118797Y149950D01*
X118813Y149792D01*
X118785Y149654D01*
X118714Y149521D01*
X118115Y148697D01*
X118049Y148629D01*
X118001Y148579D01*
X117863Y148507D01*
X117448Y148414D01*
X117020Y148414D01*
X116604Y148507D01*
X116200Y148713D01*
X115872Y149026D01*
X115507Y149632D01*
X115300Y150310D01*
X115265Y151021D01*
X115362Y151631D01*
X115560Y152217D01*
X115853Y152760D01*
X116218Y153185D01*
X116678Y153500D01*
X117203Y153686D01*
X117759Y153729D01*
X118307Y153627D01*
X118810Y153387D01*
X119245Y153017D01*
X120786Y151564D01*
X120796Y151561D01*
X120802Y151552D01*
X122560Y150365D01*
X122573Y150363D01*
X122583Y150353D01*
X123271Y150073D01*
X123286Y150074D01*
X123301Y150065D01*
X124036Y149966D01*
X124051Y149970D01*
X124068Y149965D01*
X124805Y150052D01*
X124818Y150060D01*
X124836Y150060D01*
X125528Y150327D01*
X125539Y150338D01*
X125556Y150342D01*
X126159Y150773D01*
X126166Y150784D01*
X126178Y150789D01*
X126356Y150978D01*
X126357Y150978D01*
X126595Y151231D01*
X126596Y151231D01*
X126834Y151483D01*
X126836Y151485D01*
X126839Y151493D01*
X126847Y151498D01*
X127407Y152275D01*
X127410Y152285D01*
X127418Y152293D01*
X127806Y153073D01*
X127807Y153085D01*
X127815Y153096D01*
X128046Y153936D01*
X128045Y153948D01*
X128051Y153960D01*
X128117Y154828D01*
X128113Y154839D01*
X128117Y154850D01*
X128031Y155750D01*
X128027Y155759D01*
X128028Y155769D01*
X127808Y156647D01*
X127802Y156655D01*
X127801Y156667D01*
X127700Y156895D01*
X127548Y157251D01*
X127548Y157252D01*
X127327Y157756D01*
X127316Y157766D01*
X127311Y157783D01*
X126973Y158218D01*
X126966Y158221D01*
X126962Y158229D01*
X126937Y158254D01*
X126937Y158255D01*
X126936Y158257D01*
X126844Y158292D01*
X126755Y158251D01*
X126722Y158166D01*
X126722Y157563D01*
X126665Y157052D01*
X126526Y156562D01*
X126271Y156081D01*
X126267Y156078D01*
X125901Y155686D01*
X125441Y155400D01*
X124922Y155243D01*
X124619Y155231D01*
X124319Y155290D01*
X123825Y155496D01*
X123367Y155779D01*
X122957Y156130D01*
X122603Y156542D01*
X121952Y157444D01*
X121703Y157932D01*
X121605Y158462D01*
X121663Y159000D01*
X121728Y159174D01*
X121977Y159535D01*
X122316Y159809D01*
X122419Y159853D01*
X122539Y159869D01*
X123419Y159869D01*
X123460Y159886D01*
X123502Y159900D01*
X123505Y159905D01*
X123510Y159907D01*
X123526Y159948D01*
X123545Y159988D01*
X123543Y159994D01*
X123545Y159999D01*
X123533Y160026D01*
X123517Y160075D01*
X122596Y161201D01*
X122584Y161207D01*
X122577Y161219D01*
X121440Y162126D01*
X121429Y162129D01*
X121421Y162138D01*
X120487Y162640D01*
X120477Y162641D01*
X120469Y162647D01*
X119472Y163005D01*
X119462Y163005D01*
X119453Y163010D01*
X118414Y163217D01*
X118403Y163215D01*
X118393Y163219D01*
X116465Y163280D01*
X116454Y163275D01*
X116442Y163278D01*
X114535Y162990D01*
X114525Y162984D01*
X114513Y162984D01*
X112689Y162356D01*
X112680Y162349D01*
X112668Y162347D01*
X110987Y161400D01*
X110981Y161392D01*
X110970Y161389D01*
X109863Y160504D01*
X109860Y160499D01*
X109855Y160496D01*
X109854Y160494D01*
X109850Y160492D01*
X109497Y160118D01*
X109021Y159613D01*
X108878Y159461D01*
X108875Y159453D01*
X108867Y159447D01*
X108050Y158290D01*
X108048Y158280D01*
X108040Y158272D01*
X107440Y157042D01*
X107439Y157031D01*
X107431Y157021D01*
X107063Y155702D01*
X107065Y155691D01*
X107059Y155680D01*
X106935Y154316D01*
X106937Y154311D01*
X106935Y154305D01*
X106935Y152030D01*
X106870Y151662D01*
X106743Y151311D01*
X106154Y150321D01*
X105372Y149467D01*
X99890Y144595D01*
X99888Y144591D01*
X99883Y144589D01*
X99867Y144547D01*
X99848Y144506D01*
X99850Y144502D01*
X99848Y144497D01*
X99867Y144456D01*
X99882Y144414D01*
X99887Y144412D01*
X99889Y144408D01*
X99962Y144379D01*
X99973Y144375D01*
X99974Y144375D01*
X115138Y144375D01*
X115143Y144377D01*
G37*
G36*
X95643Y88840D02*
X95643Y88840D01*
X95682Y88850D01*
X95688Y88859D01*
X95697Y88863D01*
X95708Y88891D01*
X95730Y88928D01*
X96466Y92814D01*
X96463Y92828D01*
X96468Y92843D01*
X96453Y92875D01*
X96445Y92910D01*
X96432Y92918D01*
X96426Y92932D01*
X96387Y92946D01*
X96362Y92962D01*
X96351Y92959D01*
X96340Y92963D01*
X94423Y92939D01*
X94572Y93073D01*
X94573Y93074D01*
X94574Y93074D01*
X95539Y93963D01*
X95541Y93969D01*
X95548Y93973D01*
X95849Y94316D01*
X95853Y94327D01*
X95863Y94335D01*
X96096Y94729D01*
X96097Y94738D01*
X96104Y94746D01*
X96637Y96067D01*
X96637Y96078D01*
X96644Y96088D01*
X96746Y96570D01*
X96743Y96582D01*
X96748Y96594D01*
X96773Y98575D01*
X96769Y98586D01*
X96771Y98598D01*
X96588Y99683D01*
X96581Y99693D01*
X96581Y99708D01*
X96181Y100732D01*
X96173Y100739D01*
X96171Y100751D01*
X95630Y101653D01*
X95624Y101658D01*
X95621Y101667D01*
X94968Y102491D01*
X94958Y102497D01*
X94953Y102507D01*
X94063Y103299D01*
X94050Y103303D01*
X94041Y103315D01*
X93000Y103894D01*
X92988Y103896D01*
X92977Y103904D01*
X90864Y104578D01*
X90853Y104577D01*
X90842Y104583D01*
X88642Y104866D01*
X88631Y104863D01*
X88619Y104867D01*
X86404Y104749D01*
X86394Y104744D01*
X86382Y104746D01*
X85006Y104423D01*
X84997Y104417D01*
X84985Y104416D01*
X83685Y103860D01*
X83677Y103852D01*
X83666Y103850D01*
X82481Y103078D01*
X82475Y103069D01*
X82464Y103064D01*
X81757Y102407D01*
X81753Y102397D01*
X81743Y102391D01*
X81158Y101623D01*
X81156Y101612D01*
X81147Y101605D01*
X80701Y100749D01*
X80700Y100738D01*
X80692Y100729D01*
X80398Y99810D01*
X80399Y99800D01*
X80393Y99790D01*
X80204Y98578D01*
X80206Y98569D01*
X80203Y98560D01*
X80186Y97333D01*
X80189Y97325D01*
X80187Y97315D01*
X80342Y96098D01*
X80347Y96088D01*
X80347Y96076D01*
X80611Y95232D01*
X80619Y95222D01*
X80622Y95207D01*
X81059Y94438D01*
X81069Y94430D01*
X81074Y94416D01*
X81664Y93756D01*
X81676Y93750D01*
X81684Y93738D01*
X82400Y93218D01*
X82402Y93217D01*
X71298Y93217D01*
X71254Y93199D01*
X71211Y93182D01*
X71210Y93180D01*
X71207Y93179D01*
X71190Y93135D01*
X71172Y93091D01*
X71173Y93089D01*
X71172Y93087D01*
X71181Y93066D01*
X71204Y93006D01*
X74938Y88866D01*
X74944Y88864D01*
X74947Y88858D01*
X75007Y88834D01*
X75028Y88825D01*
X75030Y88826D01*
X75032Y88825D01*
X95606Y88825D01*
X95643Y88840D01*
G37*
G36*
X96725Y237975D02*
X96725Y237975D01*
X96727Y237974D01*
X96770Y237994D01*
X96814Y238012D01*
X96814Y238014D01*
X96816Y238015D01*
X96849Y238100D01*
X96849Y242087D01*
X96848Y242089D01*
X96849Y242091D01*
X96829Y242134D01*
X96811Y242178D01*
X96809Y242178D01*
X96808Y242180D01*
X96723Y242213D01*
X94670Y242213D01*
X94677Y242244D01*
X95073Y242546D01*
X95076Y242552D01*
X95084Y242555D01*
X95871Y243317D01*
X95874Y243325D01*
X95881Y243329D01*
X96493Y244091D01*
X96497Y244105D01*
X96510Y244117D01*
X96914Y245007D01*
X96914Y245019D01*
X96922Y245030D01*
X97176Y246122D01*
X97175Y246131D01*
X97179Y246139D01*
X97306Y247511D01*
X97303Y247521D01*
X97306Y247532D01*
X97237Y248489D01*
X97231Y248500D01*
X97232Y248514D01*
X96972Y249437D01*
X96964Y249447D01*
X96962Y249460D01*
X96559Y250250D01*
X96550Y250258D01*
X96546Y250271D01*
X96000Y250969D01*
X95989Y250975D01*
X95983Y250987D01*
X95314Y251569D01*
X95302Y251572D01*
X95300Y251575D01*
X95300Y251576D01*
X95299Y251576D01*
X95294Y251583D01*
X94636Y251963D01*
X94678Y252005D01*
X95159Y252460D01*
X95160Y252463D01*
X95163Y252464D01*
X95922Y253252D01*
X95925Y253261D01*
X95934Y253266D01*
X96572Y254155D01*
X96574Y254166D01*
X96582Y254174D01*
X96976Y254979D01*
X96976Y254991D01*
X96984Y255002D01*
X97216Y255867D01*
X97214Y255879D01*
X97220Y255891D01*
X97281Y256785D01*
X97280Y256788D01*
X97281Y256789D01*
X97278Y256795D01*
X97281Y256805D01*
X97174Y258084D01*
X97170Y258091D01*
X97172Y258098D01*
X96923Y259358D01*
X96917Y259367D01*
X96917Y259379D01*
X96591Y260245D01*
X96581Y260255D01*
X96578Y260270D01*
X96071Y261044D01*
X96059Y261051D01*
X96053Y261065D01*
X95389Y261711D01*
X95377Y261715D01*
X95368Y261727D01*
X94429Y262315D01*
X94416Y262317D01*
X94406Y262327D01*
X93367Y262713D01*
X93354Y262712D01*
X93342Y262719D01*
X92246Y262888D01*
X92237Y262885D01*
X92227Y262889D01*
X80645Y262889D01*
X80643Y262888D01*
X80641Y262889D01*
X80598Y262869D01*
X80554Y262851D01*
X80554Y262849D01*
X80552Y262848D01*
X80519Y262763D01*
X80519Y258521D01*
X80520Y258519D01*
X80519Y258517D01*
X80539Y258474D01*
X80557Y258430D01*
X80559Y258430D01*
X80560Y258428D01*
X80645Y258395D01*
X90924Y258395D01*
X91804Y258288D01*
X92626Y257976D01*
X93010Y257715D01*
X93323Y257372D01*
X93549Y256966D01*
X93677Y256518D01*
X93745Y255614D01*
X93653Y254711D01*
X93527Y254302D01*
X93317Y253929D01*
X93031Y253611D01*
X92503Y253226D01*
X91908Y252953D01*
X91269Y252804D01*
X90166Y252729D01*
X80645Y252729D01*
X80643Y252728D01*
X80641Y252729D01*
X80598Y252709D01*
X80554Y252691D01*
X80554Y252689D01*
X80552Y252688D01*
X80519Y252603D01*
X80519Y248285D01*
X80520Y248283D01*
X80519Y248281D01*
X80539Y248238D01*
X80557Y248194D01*
X80559Y248194D01*
X80560Y248192D01*
X80645Y248159D01*
X91204Y248159D01*
X91867Y248079D01*
X92486Y247848D01*
X93033Y247478D01*
X93351Y247131D01*
X93584Y246723D01*
X93720Y246272D01*
X93752Y245795D01*
X93702Y244947D01*
X93620Y244507D01*
X93442Y244103D01*
X93176Y243749D01*
X92232Y242929D01*
X91694Y242646D01*
X91103Y242514D01*
X90481Y242544D01*
X90478Y242543D01*
X90475Y242544D01*
X80670Y242544D01*
X80668Y242543D01*
X80666Y242544D01*
X80623Y242524D01*
X80579Y242506D01*
X80579Y242504D01*
X80577Y242503D01*
X80544Y242418D01*
X80544Y238100D01*
X80545Y238098D01*
X80544Y238096D01*
X80564Y238053D01*
X80582Y238009D01*
X80584Y238009D01*
X80585Y238007D01*
X80670Y237974D01*
X96723Y237974D01*
X96725Y237975D01*
G37*
G36*
X85573Y106198D02*
X85573Y106198D01*
X85585Y106203D01*
X85600Y106201D01*
X86541Y106407D01*
X86553Y106416D01*
X86570Y106417D01*
X87432Y106846D01*
X87441Y106856D01*
X87456Y106861D01*
X88065Y107359D01*
X88069Y107367D01*
X88077Y107370D01*
X88078Y107374D01*
X88083Y107377D01*
X88581Y107987D01*
X88584Y107999D01*
X88595Y108008D01*
X88961Y108704D01*
X88962Y108715D01*
X88969Y108724D01*
X89453Y110209D01*
X89452Y110217D01*
X89457Y110226D01*
X89735Y111763D01*
X89734Y111767D01*
X89737Y111772D01*
X89965Y113978D01*
X90191Y115284D01*
X90356Y115753D01*
X90602Y116181D01*
X90863Y116465D01*
X90950Y116525D01*
X91047Y116567D01*
X91568Y116678D01*
X92099Y116678D01*
X92620Y116567D01*
X92934Y116428D01*
X93213Y116229D01*
X93447Y115976D01*
X93640Y115662D01*
X93768Y115316D01*
X93829Y114947D01*
X93879Y113592D01*
X93825Y113005D01*
X93660Y112444D01*
X93405Y111980D01*
X93049Y111590D01*
X92611Y111295D01*
X92116Y111111D01*
X91585Y111048D01*
X91542Y111048D01*
X91540Y111047D01*
X91538Y111048D01*
X91495Y111028D01*
X91451Y111010D01*
X91451Y111008D01*
X91449Y111007D01*
X91416Y110922D01*
X91416Y106781D01*
X91414Y106780D01*
X91404Y106738D01*
X91390Y106696D01*
X91393Y106690D01*
X91392Y106684D01*
X91408Y106659D01*
X91429Y106614D01*
X91454Y106589D01*
X91455Y106589D01*
X91497Y106573D01*
X91546Y106554D01*
X91547Y106554D01*
X91589Y106574D01*
X91632Y106593D01*
X92523Y106715D01*
X92534Y106721D01*
X92549Y106721D01*
X93490Y107055D01*
X93500Y107064D01*
X93514Y107067D01*
X94367Y107586D01*
X94375Y107597D01*
X94388Y107602D01*
X95118Y108285D01*
X95123Y108297D01*
X95135Y108305D01*
X95709Y109122D01*
X95712Y109134D01*
X95721Y109143D01*
X96250Y110301D01*
X96250Y110311D01*
X96257Y110320D01*
X96591Y111549D01*
X96590Y111558D01*
X96594Y111567D01*
X96808Y113307D01*
X96805Y113315D01*
X96808Y113323D01*
X96800Y115077D01*
X96797Y115084D01*
X96799Y115093D01*
X96569Y116832D01*
X96564Y116840D01*
X96565Y116851D01*
X96140Y118265D01*
X96132Y118274D01*
X96131Y118288D01*
X95437Y119591D01*
X95427Y119600D01*
X95422Y119614D01*
X94939Y120176D01*
X94925Y120183D01*
X94916Y120197D01*
X94311Y120624D01*
X94296Y120627D01*
X94284Y120639D01*
X93593Y120906D01*
X93578Y120905D01*
X93563Y120913D01*
X92828Y121004D01*
X92820Y121002D01*
X92812Y121005D01*
X87986Y121005D01*
X87984Y121004D01*
X87982Y121005D01*
X87967Y120998D01*
X87883Y121030D01*
X83545Y121005D01*
X82208Y121107D01*
X80913Y121456D01*
X80714Y121530D01*
X80689Y121529D01*
X80666Y121538D01*
X80642Y121527D01*
X80616Y121526D01*
X80599Y121507D01*
X80577Y121497D01*
X80566Y121470D01*
X80550Y121452D01*
X80552Y121433D01*
X80544Y121412D01*
X80544Y117378D01*
X80541Y117342D01*
X80550Y117314D01*
X80554Y117274D01*
X80573Y117237D01*
X80590Y117223D01*
X80595Y117212D01*
X80602Y117209D01*
X80619Y117186D01*
X80655Y117165D01*
X80672Y117162D01*
X80688Y117150D01*
X80968Y117074D01*
X80971Y117075D01*
X80974Y117073D01*
X82003Y116846D01*
X82026Y116837D01*
X82032Y116830D01*
X82034Y116822D01*
X82033Y116813D01*
X82017Y116789D01*
X81314Y115962D01*
X81310Y115951D01*
X81300Y115942D01*
X80760Y114991D01*
X80759Y114980D01*
X80751Y114970D01*
X80398Y113935D01*
X80399Y113923D01*
X80393Y113913D01*
X80152Y112295D01*
X80155Y112285D01*
X80151Y112274D01*
X80189Y110639D01*
X80194Y110628D01*
X80192Y110614D01*
X80500Y109242D01*
X80508Y109231D01*
X80509Y109216D01*
X81115Y107947D01*
X81125Y107938D01*
X81129Y107924D01*
X81471Y107476D01*
X81481Y107470D01*
X81487Y107458D01*
X81907Y107081D01*
X81918Y107077D01*
X81926Y107067D01*
X82409Y106775D01*
X82420Y106773D01*
X82430Y106765D01*
X83423Y106392D01*
X83434Y106392D01*
X83445Y106386D01*
X84489Y106197D01*
X84500Y106200D01*
X84512Y106195D01*
X85573Y106198D01*
G37*
G36*
X99943Y135340D02*
X99943Y135340D01*
X99963Y135338D01*
X99990Y135360D01*
X100015Y135370D01*
X100020Y135385D01*
X100034Y135395D01*
X102396Y139535D01*
X102400Y139570D01*
X102412Y139602D01*
X102405Y139617D01*
X102407Y139633D01*
X102385Y139660D01*
X102371Y139691D01*
X102355Y139698D01*
X102345Y139710D01*
X102318Y139712D01*
X102286Y139724D01*
X90856Y139724D01*
X96330Y145199D01*
X96332Y145202D01*
X96334Y145203D01*
X96367Y145288D01*
X96367Y149962D01*
X96367Y149964D01*
X96367Y149965D01*
X96347Y150009D01*
X96329Y150053D01*
X96327Y150053D01*
X96326Y150055D01*
X96282Y150071D01*
X96237Y150088D01*
X96235Y150087D01*
X96234Y150088D01*
X96151Y150050D01*
X90585Y144359D01*
X80690Y150956D01*
X80652Y150963D01*
X80615Y150977D01*
X80605Y150972D01*
X80593Y150974D01*
X80562Y150952D01*
X80526Y150935D01*
X80522Y150924D01*
X80513Y150918D01*
X80508Y150888D01*
X80494Y150850D01*
X80519Y145770D01*
X80526Y145753D01*
X80524Y145735D01*
X80546Y145706D01*
X80558Y145680D01*
X80570Y145675D01*
X80580Y145663D01*
X87558Y141430D01*
X87484Y141353D01*
X87362Y141227D01*
X87361Y141227D01*
X86993Y140848D01*
X86871Y140722D01*
X86748Y140596D01*
X86380Y140217D01*
X86257Y140091D01*
X86135Y139965D01*
X85951Y139775D01*
X80543Y139775D01*
X80541Y139774D01*
X80539Y139775D01*
X80496Y139755D01*
X80452Y139737D01*
X80452Y139735D01*
X80450Y139734D01*
X80417Y139649D01*
X80417Y135509D01*
X80418Y135506D01*
X80417Y135503D01*
X80454Y135420D01*
X80505Y135369D01*
X80508Y135368D01*
X80509Y135365D01*
X80594Y135332D01*
X99924Y135332D01*
X99943Y135340D01*
G37*
G36*
X96319Y162232D02*
X96319Y162232D01*
X96321Y162231D01*
X96364Y162251D01*
X96408Y162269D01*
X96408Y162271D01*
X96410Y162272D01*
X96443Y162357D01*
X96443Y166497D01*
X96442Y166499D01*
X96443Y166501D01*
X96423Y166544D01*
X96405Y166588D01*
X96403Y166588D01*
X96402Y166590D01*
X96317Y166623D01*
X86320Y166623D01*
X85490Y166772D01*
X84722Y167115D01*
X84360Y167387D01*
X84059Y167728D01*
X83834Y168123D01*
X83611Y168812D01*
X83531Y169531D01*
X83598Y170252D01*
X83810Y170943D01*
X84098Y171453D01*
X84495Y171884D01*
X84980Y172211D01*
X85530Y172420D01*
X86734Y172645D01*
X87964Y172721D01*
X96266Y172721D01*
X96268Y172722D01*
X96270Y172721D01*
X96313Y172741D01*
X96357Y172759D01*
X96357Y172761D01*
X96359Y172762D01*
X96392Y172847D01*
X96392Y177063D01*
X96391Y177065D01*
X96392Y177067D01*
X96372Y177110D01*
X96354Y177154D01*
X96352Y177154D01*
X96351Y177156D01*
X96266Y177189D01*
X80645Y177189D01*
X80643Y177188D01*
X80641Y177189D01*
X80598Y177169D01*
X80554Y177151D01*
X80554Y177149D01*
X80552Y177148D01*
X80519Y177063D01*
X80519Y173050D01*
X80520Y173048D01*
X80519Y173046D01*
X80539Y173003D01*
X80557Y172959D01*
X80559Y172959D01*
X80560Y172957D01*
X80645Y172924D01*
X82702Y172924D01*
X82061Y172417D01*
X82057Y172409D01*
X82048Y172405D01*
X81941Y172292D01*
X81821Y172166D01*
X81582Y171914D01*
X81462Y171787D01*
X81342Y171661D01*
X81263Y171578D01*
X81260Y171569D01*
X81252Y171564D01*
X80593Y170634D01*
X80591Y170625D01*
X80583Y170617D01*
X80461Y170372D01*
X80460Y170361D01*
X80453Y170352D01*
X80372Y170090D01*
X80373Y170081D01*
X80368Y170072D01*
X80145Y168594D01*
X80147Y168586D01*
X80143Y168578D01*
X80113Y167084D01*
X80117Y167074D01*
X80114Y167063D01*
X80261Y166030D01*
X80267Y166020D01*
X80267Y166006D01*
X80610Y165020D01*
X80618Y165011D01*
X80620Y164998D01*
X81146Y164096D01*
X81156Y164089D01*
X81161Y164076D01*
X81389Y163822D01*
X81400Y163816D01*
X81408Y163805D01*
X82293Y163145D01*
X82304Y163142D01*
X82313Y163132D01*
X83303Y162644D01*
X83315Y162644D01*
X83325Y162636D01*
X84388Y162336D01*
X84399Y162338D01*
X84411Y162332D01*
X85510Y162231D01*
X85516Y162233D01*
X85522Y162231D01*
X96317Y162231D01*
X96319Y162232D01*
G37*
G36*
X96293Y179428D02*
X96293Y179428D01*
X96295Y179427D01*
X96338Y179447D01*
X96382Y179465D01*
X96382Y179467D01*
X96384Y179468D01*
X96417Y179553D01*
X96417Y183591D01*
X96416Y183593D01*
X96417Y183595D01*
X96397Y183638D01*
X96379Y183682D01*
X96377Y183682D01*
X96376Y183684D01*
X96291Y183717D01*
X94223Y183717D01*
X94252Y183759D01*
X94388Y183873D01*
X94766Y184150D01*
X94768Y184154D01*
X94773Y184156D01*
X95246Y184558D01*
X95250Y184565D01*
X95258Y184569D01*
X95674Y185030D01*
X95677Y185041D01*
X95687Y185048D01*
X96254Y185946D01*
X96257Y185959D01*
X96266Y185970D01*
X96635Y186967D01*
X96635Y186979D01*
X96642Y186992D01*
X96797Y188044D01*
X96794Y188054D01*
X96798Y188065D01*
X96777Y188900D01*
X96768Y189278D01*
X96759Y189657D01*
X96748Y190071D01*
X96744Y190082D01*
X96746Y190094D01*
X96540Y191071D01*
X96532Y191083D01*
X96531Y191099D01*
X96109Y192004D01*
X96098Y192013D01*
X96094Y192028D01*
X95476Y192813D01*
X95465Y192819D01*
X95459Y192831D01*
X94884Y193320D01*
X94873Y193323D01*
X94866Y193333D01*
X94217Y193717D01*
X94206Y193719D01*
X94197Y193727D01*
X93492Y193996D01*
X93483Y193996D01*
X93474Y194001D01*
X92367Y194241D01*
X92358Y194239D01*
X92350Y194244D01*
X91221Y194334D01*
X91216Y194332D01*
X91211Y194334D01*
X80670Y194334D01*
X80668Y194333D01*
X80666Y194334D01*
X80623Y194314D01*
X80579Y194296D01*
X80579Y194294D01*
X80577Y194293D01*
X80544Y194208D01*
X80544Y190119D01*
X80545Y190117D01*
X80544Y190115D01*
X80564Y190072D01*
X80582Y190028D01*
X80584Y190028D01*
X80585Y190026D01*
X80670Y189993D01*
X90316Y189993D01*
X91034Y189928D01*
X91722Y189737D01*
X92364Y189427D01*
X92751Y189131D01*
X93060Y188757D01*
X93277Y188322D01*
X93354Y188022D01*
X93371Y187706D01*
X93321Y186601D01*
X93234Y186045D01*
X93030Y185529D01*
X92716Y185072D01*
X92147Y184555D01*
X91468Y184192D01*
X90718Y183976D01*
X89935Y183895D01*
X80569Y183895D01*
X80567Y183894D01*
X80565Y183895D01*
X80522Y183875D01*
X80478Y183857D01*
X80478Y183855D01*
X80476Y183854D01*
X80443Y183769D01*
X80443Y179553D01*
X80444Y179551D01*
X80443Y179549D01*
X80463Y179506D01*
X80481Y179462D01*
X80483Y179462D01*
X80484Y179460D01*
X80569Y179427D01*
X96291Y179427D01*
X96293Y179428D01*
G37*
G36*
X89054Y219667D02*
X89054Y219667D01*
X89080Y219663D01*
X92636Y220476D01*
X92657Y220491D01*
X92686Y220500D01*
X95404Y222634D01*
X95416Y222656D01*
X95439Y222677D01*
X97116Y226055D01*
X97117Y226075D01*
X97128Y226096D01*
X97305Y227569D01*
X97303Y227576D01*
X97306Y227584D01*
X97306Y227635D01*
X97298Y227655D01*
X97297Y227681D01*
X97247Y227808D01*
X97227Y227829D01*
X97215Y227855D01*
X97193Y227864D01*
X97179Y227879D01*
X97155Y227878D01*
X97130Y227888D01*
X94209Y227888D01*
X94169Y227871D01*
X94128Y227859D01*
X94124Y227852D01*
X94118Y227850D01*
X94107Y227822D01*
X94084Y227779D01*
X93934Y226684D01*
X93299Y225536D01*
X92215Y224748D01*
X91326Y224352D01*
X89852Y224078D01*
X87993Y224028D01*
X86745Y224203D01*
X85596Y224577D01*
X84569Y225115D01*
X83561Y226763D01*
X83339Y228511D01*
X83931Y230262D01*
X84912Y231341D01*
X86122Y231884D01*
X87670Y232259D01*
X89095Y232259D01*
X91024Y232008D01*
X92636Y231264D01*
X93445Y230430D01*
X93958Y229477D01*
X94057Y228290D01*
X94057Y228194D01*
X94058Y228191D01*
X94057Y228188D01*
X94077Y228146D01*
X94095Y228103D01*
X94098Y228102D01*
X94100Y228099D01*
X94185Y228068D01*
X94187Y228068D01*
X97157Y228118D01*
X97166Y228122D01*
X97175Y228119D01*
X97210Y228141D01*
X97240Y228154D01*
X97246Y228157D01*
X97247Y228158D01*
X97250Y228167D01*
X97258Y228172D01*
X97271Y228223D01*
X97281Y228249D01*
X97281Y228250D01*
X97279Y228255D01*
X97280Y228260D01*
X97026Y230267D01*
X97020Y230278D01*
X97020Y230292D01*
X96461Y231918D01*
X96450Y231930D01*
X96446Y231949D01*
X95075Y233930D01*
X95062Y233938D01*
X95053Y233954D01*
X93783Y235046D01*
X93767Y235051D01*
X93752Y235065D01*
X91415Y236106D01*
X91398Y236107D01*
X91380Y236116D01*
X89195Y236396D01*
X89180Y236392D01*
X89164Y236396D01*
X87056Y236142D01*
X87048Y236138D01*
X87037Y236139D01*
X84573Y235453D01*
X84559Y235442D01*
X84540Y235438D01*
X83245Y234625D01*
X83236Y234613D01*
X83221Y234605D01*
X82078Y233411D01*
X82074Y233403D01*
X82066Y233397D01*
X81279Y232280D01*
X81275Y232263D01*
X81263Y232248D01*
X80628Y230394D01*
X80629Y230380D01*
X80621Y230366D01*
X80367Y227851D01*
X80372Y227837D01*
X80368Y227821D01*
X80774Y224824D01*
X80786Y224803D01*
X80792Y224774D01*
X82570Y221929D01*
X82591Y221915D01*
X82609Y221890D01*
X85098Y220290D01*
X85121Y220286D01*
X85146Y220271D01*
X89032Y219661D01*
X89054Y219667D01*
G37*
G36*
X85628Y72403D02*
X85628Y72403D01*
X85658Y72406D01*
X85659Y72407D01*
X85660Y72407D01*
X85669Y72418D01*
X85682Y72423D01*
X85685Y72429D01*
X85691Y72432D01*
X85703Y72462D01*
X85719Y72482D01*
X85719Y72484D01*
X85720Y72485D01*
X85719Y72500D01*
X85724Y72512D01*
X85723Y72515D01*
X85724Y72517D01*
X85724Y76378D01*
X85723Y76380D01*
X85724Y76382D01*
X85704Y76425D01*
X85686Y76469D01*
X85684Y76469D01*
X85683Y76471D01*
X85598Y76504D01*
X85551Y76504D01*
X85054Y76533D01*
X84592Y76680D01*
X84178Y76935D01*
X83735Y77377D01*
X83398Y77904D01*
X83181Y78491D01*
X83108Y79053D01*
X83108Y80383D01*
X83182Y80986D01*
X83379Y81553D01*
X83691Y82066D01*
X83775Y82150D01*
X83899Y82277D01*
X83975Y82354D01*
X84320Y82562D01*
X84705Y82679D01*
X85109Y82696D01*
X85504Y82611D01*
X85866Y82431D01*
X86170Y82165D01*
X86401Y81829D01*
X86871Y80722D01*
X87177Y79548D01*
X88040Y75917D01*
X88045Y75910D01*
X88045Y75901D01*
X88351Y75093D01*
X88357Y75086D01*
X88359Y75076D01*
X88786Y74325D01*
X88793Y74319D01*
X88797Y74309D01*
X89334Y73632D01*
X89344Y73627D01*
X89350Y73616D01*
X89735Y73279D01*
X89748Y73275D01*
X89757Y73264D01*
X90204Y73015D01*
X90217Y73014D01*
X90228Y73005D01*
X90717Y72853D01*
X90729Y72855D01*
X90742Y72848D01*
X91878Y72743D01*
X91891Y72746D01*
X91904Y72743D01*
X93038Y72872D01*
X93049Y72878D01*
X93063Y72877D01*
X94147Y73235D01*
X94156Y73243D01*
X94170Y73245D01*
X94692Y73544D01*
X94699Y73554D01*
X94712Y73559D01*
X95167Y73953D01*
X95172Y73964D01*
X95184Y73971D01*
X95553Y74447D01*
X95556Y74458D01*
X95565Y74467D01*
X96219Y75748D01*
X96220Y75759D01*
X96227Y75769D01*
X96638Y77147D01*
X96637Y77158D01*
X96643Y77170D01*
X96798Y78599D01*
X96796Y78606D01*
X96798Y78613D01*
X96798Y80416D01*
X96796Y80422D01*
X96798Y80429D01*
X96658Y81822D01*
X96653Y81831D01*
X96654Y81842D01*
X96286Y83193D01*
X96279Y83203D01*
X96277Y83216D01*
X95739Y84313D01*
X95729Y84322D01*
X95725Y84336D01*
X94968Y85295D01*
X94958Y85301D01*
X94953Y85312D01*
X94557Y85660D01*
X94548Y85663D01*
X94542Y85672D01*
X94100Y85958D01*
X94090Y85960D01*
X94083Y85967D01*
X93295Y86323D01*
X93290Y86323D01*
X93286Y86327D01*
X92728Y86530D01*
X92708Y86529D01*
X92703Y86531D01*
X92680Y86531D01*
X92660Y86535D01*
X92646Y86526D01*
X92634Y86535D01*
X92628Y86533D01*
X92621Y86537D01*
X91910Y86613D01*
X91902Y86610D01*
X91893Y86613D01*
X91856Y86596D01*
X91816Y86584D01*
X91812Y86576D01*
X91804Y86572D01*
X91784Y86522D01*
X91771Y86496D01*
X91773Y86492D01*
X91771Y86487D01*
X91771Y82601D01*
X91789Y82557D01*
X91807Y82513D01*
X91808Y82512D01*
X91809Y82510D01*
X91828Y82503D01*
X91889Y82475D01*
X92149Y82459D01*
X92392Y82404D01*
X92744Y82254D01*
X93057Y82036D01*
X93321Y81761D01*
X93592Y81338D01*
X93781Y80871D01*
X93879Y80375D01*
X93923Y79528D01*
X93879Y78679D01*
X93794Y78230D01*
X93637Y77806D01*
X93442Y77505D01*
X93174Y77272D01*
X92832Y77117D01*
X92460Y77069D01*
X92091Y77134D01*
X91730Y77318D01*
X91437Y77601D01*
X91021Y78276D01*
X90749Y79028D01*
X90345Y81051D01*
X90344Y81052D01*
X90344Y81053D01*
X89963Y82776D01*
X89958Y82783D01*
X89958Y82792D01*
X89348Y84448D01*
X89342Y84454D01*
X89341Y84464D01*
X88936Y85220D01*
X88929Y85226D01*
X88926Y85235D01*
X88418Y85927D01*
X88408Y85932D01*
X88403Y85944D01*
X88053Y86276D01*
X88041Y86281D01*
X88032Y86292D01*
X87620Y86544D01*
X87606Y86546D01*
X87594Y86556D01*
X86591Y86893D01*
X86576Y86892D01*
X86562Y86900D01*
X85507Y86994D01*
X85498Y86991D01*
X85487Y86994D01*
X84446Y86918D01*
X84438Y86914D01*
X84428Y86915D01*
X83764Y86773D01*
X83754Y86766D01*
X83741Y86765D01*
X83116Y86499D01*
X83107Y86491D01*
X83095Y86488D01*
X82531Y86109D01*
X82524Y86099D01*
X82513Y86094D01*
X81770Y85368D01*
X81766Y85358D01*
X81760Y85356D01*
X81760Y85354D01*
X81755Y85352D01*
X81149Y84508D01*
X81147Y84498D01*
X81138Y84489D01*
X80687Y83554D01*
X80686Y83543D01*
X80679Y83533D01*
X80397Y82533D01*
X80398Y82525D01*
X80393Y82516D01*
X80211Y81202D01*
X80213Y81195D01*
X80210Y81189D01*
X80163Y79862D01*
X80165Y79856D01*
X80163Y79849D01*
X80341Y77283D01*
X80346Y77274D01*
X80344Y77264D01*
X80556Y76343D01*
X80564Y76332D01*
X80565Y76318D01*
X80962Y75461D01*
X80969Y75455D01*
X80971Y75446D01*
X81733Y74252D01*
X81739Y74248D01*
X81742Y74239D01*
X82173Y73724D01*
X82184Y73719D01*
X82190Y73707D01*
X82714Y73287D01*
X82725Y73283D01*
X82734Y73273D01*
X83330Y72964D01*
X83339Y72963D01*
X83347Y72956D01*
X84617Y72524D01*
X84627Y72525D01*
X84636Y72520D01*
X85220Y72418D01*
X85227Y72419D01*
X85233Y72416D01*
X85589Y72391D01*
X85596Y72393D01*
X85602Y72391D01*
X85628Y72403D01*
G37*
G36*
X90072Y202642D02*
X90072Y202642D01*
X90081Y202646D01*
X90093Y202644D01*
X91583Y202942D01*
X91593Y202949D01*
X91606Y202949D01*
X93012Y203526D01*
X93020Y203534D01*
X93033Y203537D01*
X94304Y204371D01*
X94310Y204381D01*
X94322Y204386D01*
X95410Y205447D01*
X95415Y205458D01*
X95426Y205466D01*
X96291Y206715D01*
X96294Y206727D01*
X96303Y206736D01*
X96915Y208127D01*
X96915Y208139D01*
X96922Y208151D01*
X97255Y209657D01*
X97252Y209669D01*
X97258Y209682D01*
X97281Y211224D01*
X97278Y211233D01*
X97280Y211243D01*
X97091Y212677D01*
X97088Y212682D01*
X97089Y212688D01*
X96770Y214099D01*
X96765Y214107D01*
X96764Y214117D01*
X96307Y215274D01*
X96297Y215284D01*
X96294Y215298D01*
X95597Y216329D01*
X95586Y216336D01*
X95579Y216350D01*
X94676Y217205D01*
X94664Y217210D01*
X94655Y217222D01*
X93588Y217862D01*
X93576Y217864D01*
X93567Y217873D01*
X92412Y218297D01*
X92402Y218297D01*
X92393Y218302D01*
X91185Y218539D01*
X91171Y218536D01*
X91157Y218541D01*
X91124Y218526D01*
X91089Y218519D01*
X91081Y218506D01*
X91068Y218500D01*
X91052Y218461D01*
X91036Y218435D01*
X91039Y218425D01*
X91035Y218415D01*
X91035Y214224D01*
X91036Y214222D01*
X91035Y214220D01*
X91055Y214177D01*
X91073Y214133D01*
X91075Y214133D01*
X91076Y214131D01*
X91161Y214098D01*
X91179Y214098D01*
X91758Y214031D01*
X92300Y213838D01*
X92785Y213527D01*
X93186Y213114D01*
X93484Y212621D01*
X93745Y211829D01*
X93828Y210997D01*
X93762Y210157D01*
X93581Y209336D01*
X93395Y208922D01*
X93105Y208575D01*
X92194Y207888D01*
X91169Y207383D01*
X90066Y207078D01*
X88925Y206985D01*
X87365Y207114D01*
X85841Y207460D01*
X85124Y207775D01*
X84505Y208250D01*
X84016Y208858D01*
X83686Y209566D01*
X83505Y210345D01*
X83464Y211146D01*
X83537Y211736D01*
X83710Y212305D01*
X83978Y212835D01*
X84323Y213278D01*
X84755Y213636D01*
X85345Y213957D01*
X85982Y214172D01*
X86658Y214276D01*
X86694Y214298D01*
X86732Y214316D01*
X86735Y214324D01*
X86742Y214328D01*
X86748Y214358D01*
X86765Y214401D01*
X86765Y218465D01*
X86764Y218467D01*
X86765Y218469D01*
X86745Y218512D01*
X86727Y218556D01*
X86725Y218556D01*
X86724Y218558D01*
X86639Y218591D01*
X86589Y218591D01*
X86585Y218590D01*
X86581Y218591D01*
X86106Y218559D01*
X86099Y218555D01*
X86089Y218557D01*
X85624Y218462D01*
X85615Y218456D01*
X85603Y218456D01*
X84212Y217914D01*
X84203Y217905D01*
X84189Y217902D01*
X82938Y217087D01*
X82931Y217076D01*
X82918Y217071D01*
X81860Y216018D01*
X81855Y216006D01*
X81843Y215998D01*
X81023Y214750D01*
X81020Y214739D01*
X81012Y214730D01*
X80550Y213637D01*
X80550Y213627D01*
X80544Y213618D01*
X80262Y212465D01*
X80263Y212455D01*
X80259Y212445D01*
X80163Y211262D01*
X80166Y211254D01*
X80163Y211244D01*
X80262Y209658D01*
X80265Y209651D01*
X80264Y209644D01*
X80546Y208080D01*
X80551Y208072D01*
X80550Y208062D01*
X80905Y206992D01*
X80911Y206984D01*
X80913Y206973D01*
X81439Y205976D01*
X81447Y205969D01*
X81451Y205958D01*
X82135Y205062D01*
X82144Y205057D01*
X82149Y205047D01*
X82972Y204276D01*
X82981Y204272D01*
X82988Y204263D01*
X84004Y203581D01*
X84014Y203579D01*
X84022Y203571D01*
X85133Y203057D01*
X85142Y203057D01*
X85151Y203050D01*
X86329Y202716D01*
X86339Y202717D01*
X86348Y202712D01*
X87564Y202567D01*
X87573Y202569D01*
X87583Y202566D01*
X90072Y202642D01*
G37*
G36*
X93604Y149607D02*
X93604Y149607D01*
X93605Y149607D01*
X93688Y149644D01*
X96355Y152311D01*
X96357Y152314D01*
X96359Y152315D01*
X96392Y152400D01*
X96392Y153646D01*
X96723Y153646D01*
X96725Y153647D01*
X96732Y153647D01*
X96733Y153646D01*
X98867Y153823D01*
X98877Y153828D01*
X98889Y153827D01*
X99456Y153975D01*
X99465Y153982D01*
X99477Y153983D01*
X100008Y154232D01*
X100016Y154240D01*
X100028Y154243D01*
X100505Y154583D01*
X100511Y154593D01*
X100523Y154599D01*
X101233Y155342D01*
X101237Y155353D01*
X101248Y155361D01*
X101798Y156229D01*
X101800Y156241D01*
X101809Y156251D01*
X102178Y157209D01*
X102178Y157222D01*
X102185Y157233D01*
X102359Y158246D01*
X102357Y158256D01*
X102361Y158267D01*
X102361Y159817D01*
X102360Y159820D01*
X102361Y159824D01*
X102285Y161141D01*
X102285Y161163D01*
X102284Y161165D01*
X102285Y161167D01*
X102265Y161210D01*
X102247Y161254D01*
X102245Y161254D01*
X102244Y161256D01*
X102159Y161289D01*
X99136Y161289D01*
X99134Y161288D01*
X99132Y161289D01*
X99089Y161269D01*
X99045Y161251D01*
X99045Y161249D01*
X99043Y161248D01*
X99010Y161163D01*
X99010Y161087D01*
X99012Y161082D01*
X99010Y161075D01*
X99036Y160795D01*
X99121Y159880D01*
X99038Y158980D01*
X98941Y158698D01*
X98771Y158458D01*
X98539Y158276D01*
X98116Y158101D01*
X97654Y158038D01*
X96392Y158038D01*
X96392Y160884D01*
X96391Y160886D01*
X96392Y160888D01*
X96372Y160931D01*
X96354Y160975D01*
X96352Y160975D01*
X96351Y160977D01*
X96266Y161010D01*
X93599Y161010D01*
X93597Y161009D01*
X93595Y161010D01*
X93552Y160990D01*
X93508Y160972D01*
X93508Y160970D01*
X93506Y160969D01*
X93473Y160884D01*
X93473Y158012D01*
X80569Y158012D01*
X80567Y158011D01*
X80565Y158012D01*
X80522Y157992D01*
X80478Y157974D01*
X80478Y157972D01*
X80476Y157971D01*
X80443Y157886D01*
X80443Y153721D01*
X80444Y153719D01*
X80443Y153717D01*
X80463Y153674D01*
X80481Y153630D01*
X80483Y153630D01*
X80484Y153628D01*
X80569Y153595D01*
X93449Y153595D01*
X93473Y149732D01*
X93473Y149731D01*
X93493Y149686D01*
X93512Y149642D01*
X93513Y149641D01*
X93558Y149624D01*
X93604Y149607D01*
X93604Y149607D01*
G37*
G36*
X95555Y123496D02*
X95555Y123496D01*
X95593Y123512D01*
X95632Y123522D01*
X95637Y123531D01*
X95646Y123534D01*
X95657Y123563D01*
X95679Y123600D01*
X96365Y127461D01*
X96362Y127474D01*
X96367Y127487D01*
X96352Y127521D01*
X96343Y127557D01*
X96332Y127564D01*
X96326Y127576D01*
X96285Y127592D01*
X96259Y127608D01*
X96250Y127606D01*
X96241Y127609D01*
X93461Y127609D01*
X93476Y127656D01*
X93744Y127835D01*
X94786Y128521D01*
X94790Y128526D01*
X94797Y128529D01*
X95180Y128845D01*
X95187Y128858D01*
X95200Y128866D01*
X95502Y129260D01*
X95503Y129265D01*
X95507Y129268D01*
X96092Y130157D01*
X96093Y130160D01*
X96096Y130163D01*
X96449Y130774D01*
X96451Y130786D01*
X96460Y130797D01*
X96683Y131467D01*
X96682Y131479D01*
X96688Y131491D01*
X96772Y132192D01*
X96769Y132202D01*
X96773Y132214D01*
X96697Y133586D01*
X96676Y133629D01*
X96656Y133672D01*
X96654Y133673D01*
X96654Y133674D01*
X96636Y133680D01*
X96571Y133705D01*
X92710Y133705D01*
X92708Y133704D01*
X92706Y133705D01*
X92663Y133685D01*
X92619Y133667D01*
X92619Y133665D01*
X92617Y133664D01*
X92584Y133579D01*
X92584Y133553D01*
X92588Y133544D01*
X92585Y133533D01*
X92610Y133381D01*
X92612Y133378D01*
X92611Y133375D01*
X92736Y132778D01*
X92736Y131253D01*
X92644Y130711D01*
X92463Y130193D01*
X92199Y129714D01*
X91639Y129047D01*
X90947Y128522D01*
X90154Y128161D01*
X89335Y127961D01*
X88489Y127888D01*
X80670Y127888D01*
X80668Y127887D01*
X80666Y127888D01*
X80623Y127868D01*
X80579Y127850D01*
X80579Y127848D01*
X80577Y127847D01*
X80544Y127762D01*
X80544Y123596D01*
X80545Y123594D01*
X80544Y123592D01*
X80564Y123549D01*
X80582Y123505D01*
X80584Y123504D01*
X80585Y123502D01*
X80670Y123470D01*
X95555Y123496D01*
G37*
%LPC*%
G36*
X87184Y93065D02*
X87184Y93065D01*
X86415Y93189D01*
X85740Y93414D01*
X85728Y93413D01*
X85716Y93419D01*
X85679Y93424D01*
X85652Y93416D01*
X85641Y93416D01*
X85628Y93444D01*
X85608Y93488D01*
X85607Y93488D01*
X85607Y93489D01*
X85522Y93522D01*
X85484Y93522D01*
X85425Y93534D01*
X85365Y93576D01*
X85364Y93576D01*
X85363Y93577D01*
X85287Y93628D01*
X85281Y93629D01*
X85276Y93635D01*
X84712Y93934D01*
X84243Y94346D01*
X83880Y94855D01*
X83590Y95533D01*
X83438Y96255D01*
X83432Y97165D01*
X83611Y98056D01*
X83949Y98795D01*
X84465Y99421D01*
X85123Y99893D01*
X85884Y100182D01*
X87831Y100486D01*
X89802Y100483D01*
X90772Y100292D01*
X91671Y99889D01*
X92457Y99292D01*
X93087Y98533D01*
X93347Y98033D01*
X93503Y97491D01*
X93549Y96924D01*
X93498Y95849D01*
X93424Y95477D01*
X93262Y95139D01*
X92706Y94427D01*
X92026Y93829D01*
X91319Y93416D01*
X90545Y93149D01*
X89730Y93039D01*
X87184Y93065D01*
G37*
%LPD*%
%LPC*%
G36*
X84573Y110540D02*
X84573Y110540D01*
X84265Y110611D01*
X83980Y110746D01*
X83730Y110937D01*
X83433Y111299D01*
X83230Y111720D01*
X83133Y112181D01*
X83083Y113709D01*
X83232Y114751D01*
X83354Y115073D01*
X83539Y115364D01*
X83866Y115702D01*
X84110Y115955D01*
X84258Y116108D01*
X84477Y116258D01*
X84726Y116365D01*
X84891Y116412D01*
X85961Y116619D01*
X87050Y116689D01*
X87884Y116689D01*
X87886Y116690D01*
X87888Y116689D01*
X87931Y116709D01*
X87933Y116709D01*
X87986Y116689D01*
X88278Y116689D01*
X88151Y116547D01*
X88146Y116532D01*
X88133Y116521D01*
X88026Y116314D01*
X88025Y116302D01*
X88017Y116292D01*
X87729Y115328D01*
X87730Y115320D01*
X87726Y115313D01*
X87557Y114321D01*
X87558Y114317D01*
X87555Y114313D01*
X87403Y112870D01*
X87298Y112320D01*
X87101Y111802D01*
X86817Y111328D01*
X86573Y111060D01*
X86275Y110856D01*
X85733Y110636D01*
X85158Y110529D01*
X84573Y110540D01*
G37*
%LPD*%
D10*
X112395Y197485D02*
X116971Y197485D01*
X119259Y199773D01*
X116971Y202061D01*
X112395Y202061D01*
X115827Y202061D02*
X115827Y197485D01*
X119259Y204969D02*
X119259Y209545D01*
X119259Y204969D02*
X115827Y204969D01*
X116971Y207257D01*
X116971Y208401D01*
X115827Y209545D01*
X113539Y209545D01*
X112395Y208401D01*
X112395Y206113D01*
X113539Y204969D01*
X112395Y173355D02*
X116971Y173355D01*
X119259Y175643D01*
X116971Y177931D01*
X112395Y177931D01*
X115827Y177931D02*
X115827Y173355D01*
X112395Y184271D02*
X119259Y184271D01*
X115827Y180839D01*
X115827Y185415D01*
X110369Y17019D02*
X109225Y15875D01*
X110369Y17019D02*
X110369Y19307D01*
X109225Y20451D01*
X108081Y20451D01*
X106937Y19307D01*
X106937Y18163D01*
X106937Y19307D02*
X105793Y20451D01*
X104649Y20451D01*
X103505Y19307D01*
X103505Y17019D01*
X104649Y15875D01*
X104649Y23359D02*
X103505Y23359D01*
X104649Y23359D02*
X104649Y24503D01*
X103505Y24503D01*
X103505Y23359D01*
X109225Y27101D02*
X110369Y28245D01*
X110369Y30533D01*
X109225Y31677D01*
X108081Y31677D01*
X106937Y30533D01*
X106937Y29389D01*
X106937Y30533D02*
X105793Y31677D01*
X104649Y31677D01*
X103505Y30533D01*
X103505Y28245D01*
X104649Y27101D01*
X105793Y34585D02*
X110369Y34585D01*
X105793Y34585D02*
X103505Y36873D01*
X105793Y39161D01*
X110369Y39161D01*
X123069Y20451D02*
X123069Y15875D01*
X119637Y15875D01*
X120781Y18163D01*
X120781Y19307D01*
X119637Y20451D01*
X117349Y20451D01*
X116205Y19307D01*
X116205Y17019D01*
X117349Y15875D01*
X118493Y23359D02*
X123069Y23359D01*
X118493Y23359D02*
X116205Y25647D01*
X118493Y27935D01*
X123069Y27935D01*
X72269Y18163D02*
X69981Y15875D01*
X72269Y18163D02*
X65405Y18163D01*
X65405Y15875D02*
X65405Y20451D01*
X66549Y23359D02*
X71125Y23359D01*
X72269Y24503D01*
X72269Y26791D01*
X71125Y27935D01*
X66549Y27935D01*
X65405Y26791D01*
X65405Y24503D01*
X66549Y23359D01*
X71125Y27935D01*
X72269Y30843D02*
X65405Y30843D01*
X69981Y33131D02*
X72269Y30843D01*
X69981Y33131D02*
X72269Y35419D01*
X65405Y35419D01*
X65405Y38327D02*
X72269Y38327D01*
X68837Y38327D02*
X68837Y42903D01*
X72269Y42903D02*
X65405Y42903D01*
X69981Y45812D02*
X69981Y50388D01*
X65405Y45812D01*
X65405Y50388D01*
X84969Y18163D02*
X82681Y15875D01*
X84969Y18163D02*
X78105Y18163D01*
X78105Y15875D02*
X78105Y20451D01*
X83825Y25647D02*
X84969Y27935D01*
X83825Y25647D02*
X81537Y23359D01*
X79249Y23359D01*
X78105Y24503D01*
X78105Y26791D01*
X79249Y27935D01*
X80393Y27935D01*
X81537Y26791D01*
X81537Y23359D01*
X78105Y30843D02*
X84969Y30843D01*
X82681Y33131D01*
X84969Y35419D01*
X78105Y35419D01*
X78105Y38327D02*
X84969Y38327D01*
X81537Y38327D02*
X81537Y42903D01*
X84969Y42903D02*
X78105Y42903D01*
X82681Y45812D02*
X82681Y50388D01*
X78105Y45812D01*
X78105Y50388D01*
X90805Y20451D02*
X90805Y15875D01*
X95381Y20451D01*
X96525Y20451D01*
X97669Y19307D01*
X97669Y17019D01*
X96525Y15875D01*
X96525Y23359D02*
X91949Y23359D01*
X96525Y23359D02*
X97669Y24503D01*
X97669Y26791D01*
X96525Y27935D01*
X91949Y27935D01*
X90805Y26791D01*
X90805Y24503D01*
X91949Y23359D01*
X96525Y27935D01*
X97669Y30843D02*
X90805Y30843D01*
X95381Y33131D02*
X97669Y30843D01*
X95381Y33131D02*
X97669Y35419D01*
X90805Y35419D01*
X90805Y38327D02*
X97669Y38327D01*
X94237Y38327D02*
X94237Y42903D01*
X97669Y42903D02*
X90805Y42903D01*
X95381Y45812D02*
X95381Y50388D01*
X90805Y45812D01*
X90805Y50388D01*
X59569Y17019D02*
X58425Y15875D01*
X59569Y17019D02*
X59569Y19307D01*
X58425Y20451D01*
X57281Y20451D01*
X56137Y19307D01*
X54993Y20451D01*
X53849Y20451D01*
X52705Y19307D01*
X52705Y17019D01*
X53849Y15875D01*
X54993Y15875D01*
X56137Y17019D01*
X57281Y15875D01*
X58425Y15875D01*
X56137Y17019D02*
X56137Y19307D01*
X52705Y23359D02*
X59569Y23359D01*
X57281Y25647D01*
X59569Y27935D01*
X52705Y27935D01*
X52705Y30843D02*
X59569Y30843D01*
X56137Y30843D02*
X56137Y35419D01*
X59569Y35419D02*
X52705Y35419D01*
X57281Y38327D02*
X57281Y42903D01*
X52705Y38327D01*
X52705Y42903D01*
D11*
X53306Y69977D02*
X45807Y69977D01*
X43307Y72477D01*
X45807Y74977D01*
X43307Y77476D01*
X45807Y79976D01*
X53306Y79976D01*
X53306Y86349D02*
X45807Y86349D01*
X43307Y88848D01*
X45807Y91348D01*
X43307Y93848D01*
X45807Y96348D01*
X53306Y96348D01*
X53306Y102720D02*
X45807Y102720D01*
X43307Y105220D01*
X45807Y107720D01*
X43307Y110220D01*
X45807Y112719D01*
X53306Y112719D01*
X45807Y119092D02*
X43307Y119092D01*
X45807Y119092D02*
X45807Y121591D01*
X43307Y121591D01*
X43307Y119092D01*
X53306Y129777D02*
X53306Y134777D01*
X50806Y137277D01*
X43307Y137277D01*
X43307Y129777D01*
X45807Y127277D01*
X48307Y129777D01*
X48307Y137277D01*
X53306Y143649D02*
X43307Y143649D01*
X48307Y143649D02*
X53306Y148649D01*
X53306Y151148D01*
X58306Y167291D02*
X43307Y167291D01*
X43307Y159792D01*
X45807Y157292D01*
X50806Y157292D01*
X53306Y159792D01*
X53306Y167291D01*
X53306Y173664D02*
X45807Y173664D01*
X43307Y176163D01*
X43307Y183663D01*
X53306Y183663D01*
X53306Y190035D02*
X53306Y192535D01*
X43307Y192535D01*
X43307Y190035D02*
X43307Y195035D01*
X58306Y192535D02*
X60806Y192535D01*
X53306Y200950D02*
X43307Y200950D01*
X53306Y200950D02*
X53306Y208449D01*
X50806Y210949D01*
X43307Y210949D01*
X43307Y219821D02*
X43307Y224820D01*
X45807Y227320D01*
X50806Y227320D01*
X53306Y224820D01*
X53306Y219821D01*
X50806Y217321D01*
X45807Y217321D01*
X43307Y219821D01*
X43307Y233693D02*
X45807Y233693D01*
X45807Y236192D01*
X43307Y236192D01*
X43307Y233693D01*
X53306Y244378D02*
X53306Y251878D01*
X53306Y244378D02*
X50806Y241878D01*
X45807Y241878D01*
X43307Y244378D01*
X43307Y251878D01*
X53306Y260750D02*
X53306Y268249D01*
X53306Y260750D02*
X50806Y258250D01*
X45807Y258250D01*
X43307Y260750D01*
X43307Y268249D01*
D10*
X112395Y92837D02*
X116971Y92837D01*
X119259Y95125D01*
X116971Y97413D01*
X112395Y97413D01*
X115827Y97413D02*
X115827Y92837D01*
X119259Y100321D02*
X119259Y104897D01*
X118115Y104897D01*
X113539Y100321D01*
X112395Y100321D01*
X112395Y67437D02*
X116971Y67437D01*
X119259Y69725D01*
X116971Y72013D01*
X112395Y72013D01*
X115827Y72013D02*
X115827Y67437D01*
X118115Y77209D02*
X119259Y79497D01*
X118115Y77209D02*
X115827Y74921D01*
X113539Y74921D01*
X112395Y76065D01*
X112395Y78353D01*
X113539Y79497D01*
X114683Y79497D01*
X115827Y78353D01*
X115827Y74921D01*
D12*
X107315Y9525D03*
X120015Y9525D03*
X94615Y9525D03*
X81915Y9525D03*
X69215Y9525D03*
X56515Y9525D03*
D13*
X80569Y179553D02*
X96291Y179553D01*
X96291Y183591D01*
X94082Y183591D01*
X94082Y183667D01*
X94084Y183695D01*
X94088Y183723D01*
X94097Y183750D01*
X94108Y183776D01*
X94122Y183801D01*
X94139Y183824D01*
X94158Y183845D01*
X94207Y183889D01*
X94258Y183932D01*
X94310Y183972D01*
X94691Y184252D01*
X94789Y184327D01*
X94886Y184405D01*
X94981Y184486D01*
X95073Y184569D01*
X95164Y184654D01*
X95252Y184742D01*
X95337Y184832D01*
X95421Y184924D01*
X95501Y185018D01*
X95580Y185115D01*
X95580Y185114D02*
X95665Y185225D01*
X95746Y185337D01*
X95825Y185452D01*
X95900Y185569D01*
X95972Y185687D01*
X96041Y185808D01*
X96106Y185930D01*
X96169Y186055D01*
X96227Y186181D01*
X96283Y186308D01*
X96334Y186437D01*
X96383Y186567D01*
X96427Y186699D01*
X96468Y186831D01*
X96506Y186965D01*
X96540Y187100D01*
X96570Y187235D01*
X96596Y187372D01*
X96619Y187509D01*
X96638Y187646D01*
X96653Y187785D01*
X96665Y187923D01*
X96672Y188062D01*
X96682Y188397D01*
X96685Y188731D01*
X96680Y189066D01*
X96668Y189400D01*
X96649Y189734D01*
X96622Y190068D01*
X96608Y190198D01*
X96590Y190328D01*
X96568Y190456D01*
X96543Y190584D01*
X96513Y190711D01*
X96480Y190838D01*
X96443Y190963D01*
X96402Y191087D01*
X96358Y191210D01*
X96310Y191331D01*
X96258Y191451D01*
X96203Y191569D01*
X96144Y191686D01*
X96082Y191800D01*
X96017Y191913D01*
X95948Y192024D01*
X95875Y192133D01*
X95800Y192239D01*
X95721Y192343D01*
X95640Y192445D01*
X95555Y192544D01*
X95467Y192641D01*
X95377Y192735D01*
X95287Y192823D01*
X95194Y192909D01*
X95100Y192992D01*
X95003Y193072D01*
X94903Y193149D01*
X94802Y193224D01*
X94698Y193296D01*
X94593Y193364D01*
X94485Y193430D01*
X94376Y193493D01*
X94265Y193552D01*
X94152Y193609D01*
X94038Y193662D01*
X93922Y193712D01*
X93805Y193758D01*
X93687Y193802D01*
X93567Y193841D01*
X93447Y193878D01*
X93248Y193933D01*
X93048Y193982D01*
X92847Y194027D01*
X92645Y194067D01*
X92442Y194102D01*
X92238Y194132D01*
X92033Y194157D01*
X91828Y194178D01*
X91623Y194193D01*
X91417Y194203D01*
X91211Y194208D01*
X80670Y194208D01*
X80670Y190119D01*
X90322Y190119D01*
X90445Y190117D01*
X90568Y190112D01*
X90691Y190102D01*
X90814Y190090D01*
X90935Y190073D01*
X91057Y190053D01*
X91178Y190029D01*
X91298Y190001D01*
X91417Y189970D01*
X91535Y189936D01*
X91652Y189898D01*
X91768Y189856D01*
X91882Y189811D01*
X91995Y189762D01*
X92107Y189710D01*
X92217Y189655D01*
X92325Y189597D01*
X92431Y189535D01*
X92508Y189487D01*
X92583Y189435D01*
X92656Y189381D01*
X92726Y189324D01*
X92795Y189264D01*
X92861Y189201D01*
X92924Y189136D01*
X92985Y189068D01*
X93042Y188998D01*
X93097Y188926D01*
X93149Y188851D01*
X93199Y188775D01*
X93244Y188696D01*
X93287Y188616D01*
X93327Y188534D01*
X93363Y188451D01*
X93396Y188366D01*
X93420Y188295D01*
X93441Y188224D01*
X93459Y188151D01*
X93473Y188078D01*
X93485Y188004D01*
X93493Y187930D01*
X93498Y187855D01*
X93499Y187781D01*
X93497Y187706D01*
X93498Y187706D02*
X93448Y186588D01*
X93447Y186588D02*
X93440Y186491D01*
X93431Y186394D01*
X93418Y186298D01*
X93401Y186202D01*
X93380Y186106D01*
X93357Y186012D01*
X93329Y185918D01*
X93298Y185826D01*
X93264Y185735D01*
X93226Y185645D01*
X93186Y185557D01*
X93141Y185470D01*
X93094Y185385D01*
X93043Y185301D01*
X92990Y185220D01*
X92933Y185141D01*
X92874Y185063D01*
X92812Y184989D01*
X92811Y184988D02*
X92740Y184909D01*
X92667Y184831D01*
X92590Y184756D01*
X92512Y184684D01*
X92431Y184614D01*
X92348Y184547D01*
X92263Y184483D01*
X92176Y184421D01*
X92086Y184363D01*
X91995Y184307D01*
X91902Y184254D01*
X91808Y184204D01*
X91712Y184158D01*
X91614Y184114D01*
X91515Y184074D01*
X91516Y184074D02*
X91400Y184031D01*
X91282Y183991D01*
X91164Y183954D01*
X91044Y183921D01*
X90924Y183891D01*
X90803Y183864D01*
X90681Y183840D01*
X90559Y183820D01*
X90436Y183803D01*
X90313Y183789D01*
X90189Y183779D01*
X90065Y183773D01*
X89941Y183769D01*
X89599Y183767D01*
X89257Y183769D01*
X89256Y183769D02*
X80569Y183769D01*
X80569Y179553D01*
X94031Y227889D02*
X97257Y227889D01*
X94031Y227889D02*
X94031Y227660D01*
X94029Y227550D01*
X94023Y227440D01*
X94014Y227330D01*
X94000Y227220D01*
X93983Y227111D01*
X93962Y227003D01*
X93937Y226895D01*
X93908Y226789D01*
X93876Y226683D01*
X93839Y226579D01*
X93800Y226476D01*
X93757Y226375D01*
X93710Y226275D01*
X93659Y226176D01*
X93606Y226080D01*
X93549Y225985D01*
X93488Y225893D01*
X93425Y225803D01*
X93358Y225715D01*
X93289Y225629D01*
X93216Y225546D01*
X93141Y225466D01*
X93062Y225388D01*
X92981Y225313D01*
X92898Y225240D01*
X92812Y225171D01*
X92700Y225086D01*
X92585Y225005D01*
X92469Y224926D01*
X92350Y224851D01*
X92230Y224778D01*
X92107Y224709D01*
X91983Y224644D01*
X91857Y224581D01*
X91730Y224522D01*
X91601Y224467D01*
X91470Y224415D01*
X91338Y224366D01*
X91205Y224321D01*
X91071Y224280D01*
X90936Y224242D01*
X90799Y224207D01*
X90662Y224177D01*
X90524Y224150D01*
X90386Y224127D01*
X90246Y224107D01*
X90107Y224091D01*
X89967Y224079D01*
X89615Y224057D01*
X89263Y224044D01*
X88911Y224039D01*
X88558Y224043D01*
X88206Y224055D01*
X87854Y224075D01*
X87503Y224104D01*
X87354Y224120D01*
X87205Y224140D01*
X87056Y224163D01*
X86909Y224190D01*
X86762Y224220D01*
X86615Y224254D01*
X86470Y224292D01*
X86326Y224334D01*
X86183Y224379D01*
X86040Y224427D01*
X85900Y224479D01*
X85760Y224534D01*
X85622Y224593D01*
X85485Y224656D01*
X85350Y224721D01*
X85217Y224790D01*
X85117Y224846D01*
X85019Y224905D01*
X84924Y224967D01*
X84830Y225033D01*
X84739Y225102D01*
X84650Y225174D01*
X84564Y225249D01*
X84480Y225327D01*
X84400Y225408D01*
X84322Y225491D01*
X84247Y225578D01*
X84175Y225666D01*
X84106Y225758D01*
X84041Y225851D01*
X83979Y225947D01*
X83920Y226045D01*
X83865Y226145D01*
X83813Y226247D01*
X83765Y226351D01*
X83720Y226456D01*
X83679Y226562D01*
X83642Y226670D01*
X83603Y226796D01*
X83567Y226924D01*
X83536Y227052D01*
X83508Y227181D01*
X83483Y227311D01*
X83463Y227442D01*
X83446Y227573D01*
X83433Y227705D01*
X83424Y227837D01*
X83419Y227969D01*
X83417Y228101D01*
X83419Y228233D01*
X83425Y228365D01*
X83435Y228497D01*
X83449Y228629D01*
X83466Y228760D01*
X83488Y228890D01*
X83513Y229020D01*
X83541Y229149D01*
X83574Y229277D01*
X83610Y229405D01*
X83650Y229531D01*
X83693Y229656D01*
X83740Y229779D01*
X83791Y229901D01*
X83845Y230022D01*
X83891Y230118D01*
X83941Y230212D01*
X83994Y230305D01*
X84051Y230396D01*
X84110Y230485D01*
X84172Y230572D01*
X84237Y230656D01*
X84305Y230739D01*
X84376Y230819D01*
X84450Y230896D01*
X84526Y230971D01*
X84604Y231044D01*
X84685Y231113D01*
X84769Y231180D01*
X84854Y231244D01*
X84942Y231305D01*
X85032Y231363D01*
X85123Y231418D01*
X85217Y231470D01*
X85361Y231544D01*
X85506Y231614D01*
X85653Y231682D01*
X85801Y231745D01*
X85951Y231805D01*
X86102Y231861D01*
X86255Y231914D01*
X86408Y231963D01*
X86563Y232009D01*
X86719Y232050D01*
X86876Y232088D01*
X87034Y232122D01*
X87192Y232153D01*
X87352Y232179D01*
X87511Y232202D01*
X87672Y232221D01*
X87832Y232236D01*
X87994Y232247D01*
X88155Y232254D01*
X88316Y232258D01*
X88570Y232257D01*
X88823Y232250D01*
X89077Y232237D01*
X89329Y232218D01*
X89582Y232193D01*
X89833Y232162D01*
X90084Y232125D01*
X90334Y232082D01*
X90583Y232033D01*
X90830Y231978D01*
X90960Y231946D01*
X91090Y231909D01*
X91219Y231870D01*
X91346Y231827D01*
X91473Y231781D01*
X91598Y231731D01*
X91721Y231678D01*
X91844Y231622D01*
X91964Y231563D01*
X92083Y231500D01*
X92201Y231434D01*
X92316Y231365D01*
X92430Y231293D01*
X92542Y231218D01*
X92652Y231140D01*
X92759Y231059D01*
X92864Y230976D01*
X92968Y230889D01*
X93068Y230800D01*
X93167Y230708D01*
X93235Y230640D01*
X93301Y230570D01*
X93363Y230498D01*
X93423Y230423D01*
X93480Y230346D01*
X93535Y230267D01*
X93586Y230187D01*
X93634Y230104D01*
X93680Y230019D01*
X93722Y229933D01*
X93761Y229846D01*
X93796Y229757D01*
X93828Y229667D01*
X93828Y229666D02*
X93869Y229539D01*
X93906Y229411D01*
X93940Y229282D01*
X93970Y229152D01*
X93997Y229021D01*
X94020Y228890D01*
X94040Y228757D01*
X94055Y228625D01*
X94068Y228492D01*
X94076Y228359D01*
X94081Y228225D01*
X94082Y228092D01*
X97257Y228092D01*
X97257Y228244D01*
X97255Y228449D01*
X97248Y228655D01*
X97236Y228860D01*
X97220Y229064D01*
X97199Y229269D01*
X97173Y229473D01*
X97143Y229676D01*
X97109Y229878D01*
X97069Y230080D01*
X97025Y230280D01*
X96977Y230480D01*
X96930Y230656D01*
X96879Y230831D01*
X96824Y231005D01*
X96764Y231177D01*
X96701Y231348D01*
X96634Y231517D01*
X96563Y231685D01*
X96488Y231851D01*
X96409Y232016D01*
X96326Y232178D01*
X96240Y232338D01*
X96150Y232497D01*
X96056Y232653D01*
X95959Y232807D01*
X95857Y232959D01*
X95753Y233108D01*
X95645Y233255D01*
X95534Y233399D01*
X95419Y233541D01*
X95301Y233680D01*
X95300Y233680D02*
X95173Y233823D01*
X95042Y233963D01*
X94908Y234100D01*
X94770Y234233D01*
X94630Y234363D01*
X94486Y234490D01*
X94340Y234613D01*
X94190Y234733D01*
X94038Y234849D01*
X93882Y234961D01*
X93725Y235070D01*
X93564Y235175D01*
X93401Y235276D01*
X93236Y235373D01*
X93069Y235466D01*
X92899Y235555D01*
X92727Y235640D01*
X92554Y235720D01*
X92378Y235797D01*
X92200Y235869D01*
X92021Y235937D01*
X91841Y236001D01*
X91658Y236060D01*
X91475Y236115D01*
X91290Y236165D01*
X91104Y236211D01*
X90917Y236253D01*
X90729Y236290D01*
X90540Y236323D01*
X90351Y236351D01*
X90161Y236374D01*
X89970Y236393D01*
X89779Y236407D01*
X89588Y236417D01*
X89396Y236422D01*
X89205Y236423D01*
X88904Y236417D01*
X88602Y236403D01*
X88301Y236382D01*
X88000Y236353D01*
X87700Y236317D01*
X87402Y236274D01*
X87104Y236223D01*
X86808Y236166D01*
X86513Y236100D01*
X86220Y236028D01*
X85928Y235949D01*
X85639Y235862D01*
X85352Y235769D01*
X85067Y235668D01*
X84785Y235560D01*
X84785Y235561D02*
X84634Y235499D01*
X84484Y235433D01*
X84336Y235364D01*
X84190Y235291D01*
X84045Y235215D01*
X83903Y235135D01*
X83762Y235052D01*
X83623Y234965D01*
X83487Y234875D01*
X83353Y234782D01*
X83221Y234686D01*
X83091Y234586D01*
X82964Y234483D01*
X82840Y234377D01*
X82718Y234269D01*
X82599Y234157D01*
X82482Y234042D01*
X82369Y233925D01*
X82258Y233805D01*
X82150Y233682D01*
X82045Y233557D01*
X81944Y233429D01*
X81845Y233298D01*
X81750Y233166D01*
X81658Y233031D01*
X81569Y232893D01*
X81484Y232754D01*
X81402Y232613D01*
X81323Y232470D01*
X81248Y232324D01*
X81176Y232178D01*
X81109Y232029D01*
X81044Y231879D01*
X80984Y231727D01*
X80927Y231574D01*
X80874Y231419D01*
X80795Y231169D01*
X80721Y230918D01*
X80654Y230665D01*
X80592Y230410D01*
X80537Y230155D01*
X80488Y229897D01*
X80445Y229639D01*
X80408Y229380D01*
X80377Y229120D01*
X80352Y228859D01*
X80333Y228598D01*
X80321Y228336D01*
X80315Y228075D01*
X80315Y227813D01*
X80320Y227600D01*
X80330Y227387D01*
X80345Y227174D01*
X80366Y226961D01*
X80391Y226749D01*
X80422Y226538D01*
X80458Y226327D01*
X80498Y226118D01*
X80544Y225909D01*
X80595Y225702D01*
X80651Y225496D01*
X80712Y225291D01*
X80778Y225088D01*
X80848Y224886D01*
X80924Y224687D01*
X81004Y224489D01*
X81089Y224293D01*
X81178Y224099D01*
X81273Y223907D01*
X81372Y223718D01*
X81475Y223531D01*
X81583Y223347D01*
X81695Y223166D01*
X81812Y222987D01*
X81933Y222811D01*
X82058Y222638D01*
X82187Y222468D01*
X82321Y222301D01*
X82412Y222192D01*
X82507Y222086D01*
X82603Y221981D01*
X82702Y221880D01*
X82804Y221780D01*
X82908Y221683D01*
X83015Y221589D01*
X83123Y221497D01*
X83234Y221408D01*
X83347Y221322D01*
X83463Y221239D01*
X83580Y221158D01*
X83699Y221080D01*
X83820Y221005D01*
X83821Y221005D02*
X83992Y220905D01*
X84167Y220808D01*
X84343Y220716D01*
X84521Y220628D01*
X84702Y220544D01*
X84884Y220464D01*
X85069Y220389D01*
X85255Y220318D01*
X85442Y220252D01*
X85632Y220190D01*
X85822Y220132D01*
X86014Y220079D01*
X86207Y220031D01*
X86401Y219987D01*
X86597Y219948D01*
X86793Y219913D01*
X86792Y219913D02*
X87065Y219872D01*
X87338Y219837D01*
X87611Y219809D01*
X87886Y219788D01*
X88161Y219773D01*
X88436Y219765D01*
X88711Y219763D01*
X88986Y219768D01*
X89261Y219780D01*
X89536Y219799D01*
X89810Y219824D01*
X90083Y219856D01*
X90356Y219894D01*
X90627Y219939D01*
X90811Y219974D01*
X90995Y220014D01*
X91177Y220058D01*
X91359Y220106D01*
X91539Y220158D01*
X91718Y220215D01*
X91895Y220276D01*
X92071Y220342D01*
X92246Y220411D01*
X92418Y220485D01*
X92589Y220563D01*
X92758Y220645D01*
X92925Y220730D01*
X93090Y220820D01*
X93253Y220914D01*
X93413Y221011D01*
X93571Y221113D01*
X93727Y221218D01*
X93880Y221327D01*
X94030Y221439D01*
X94178Y221555D01*
X94322Y221674D01*
X94464Y221797D01*
X94603Y221924D01*
X94739Y222053D01*
X94872Y222186D01*
X95002Y222322D01*
X95128Y222461D01*
X95251Y222603D01*
X95370Y222747D01*
X95486Y222895D01*
X95599Y223045D01*
X95708Y223198D01*
X95813Y223354D01*
X95914Y223512D01*
X96012Y223672D01*
X96118Y223856D01*
X96219Y224041D01*
X96316Y224229D01*
X96408Y224420D01*
X96496Y224612D01*
X96580Y224806D01*
X96659Y225003D01*
X96733Y225201D01*
X96802Y225401D01*
X96867Y225602D01*
X96927Y225805D01*
X96982Y226009D01*
X97032Y226215D01*
X97077Y226421D01*
X97118Y226629D01*
X97153Y226837D01*
X97184Y227047D01*
X97210Y227257D01*
X97231Y227467D01*
X97246Y227678D01*
X97257Y227889D01*
D14*
X82995Y199124D03*
D15*
X152400Y146050D02*
X152400Y133350D01*
X158750Y127000D01*
X171450Y127000D02*
X177800Y133350D01*
X152400Y171450D02*
X158750Y177800D01*
X152400Y171450D02*
X152400Y158750D01*
X158750Y152400D01*
X171450Y152400D02*
X177800Y158750D01*
X177800Y171450D01*
X171450Y177800D01*
X158750Y152400D02*
X152400Y146050D01*
X171450Y152400D02*
X177800Y146050D01*
X177800Y133350D01*
X152400Y209550D02*
X152400Y222250D01*
X152400Y209550D02*
X158750Y203200D01*
X171450Y203200D02*
X177800Y209550D01*
X158750Y203200D02*
X152400Y196850D01*
X152400Y184150D01*
X158750Y177800D01*
X171450Y177800D02*
X177800Y184150D01*
X177800Y196850D01*
X171450Y203200D01*
X152400Y247650D02*
X158750Y254000D01*
X152400Y247650D02*
X152400Y234950D01*
X158750Y228600D01*
X171450Y228600D02*
X177800Y234950D01*
X177800Y247650D01*
X171450Y254000D01*
X158750Y228600D02*
X152400Y222250D01*
X171450Y228600D02*
X177800Y222250D01*
X177800Y209550D01*
X152400Y285750D02*
X152400Y298450D01*
X152400Y285750D02*
X158750Y279400D01*
X171450Y279400D02*
X177800Y285750D01*
X158750Y279400D02*
X152400Y273050D01*
X152400Y260350D01*
X158750Y254000D01*
X171450Y254000D02*
X177800Y260350D01*
X177800Y273050D01*
X171450Y279400D01*
X171450Y304800D02*
X158750Y304800D01*
X152400Y298450D01*
X171450Y304800D02*
X177800Y298450D01*
X177800Y285750D01*
X152400Y120650D02*
X152400Y107950D01*
X158750Y101600D01*
X171450Y101600D02*
X177800Y107950D01*
X158750Y127000D02*
X152400Y120650D01*
X171450Y127000D02*
X177800Y120650D01*
X177800Y107950D01*
X152400Y95250D02*
X152400Y82550D01*
X158750Y76200D01*
X171450Y76200D02*
X177800Y82550D01*
X158750Y101600D02*
X152400Y95250D01*
X171450Y101600D02*
X177800Y95250D01*
X177800Y82550D01*
X152400Y69850D02*
X152400Y57150D01*
X158750Y50800D01*
X171450Y50800D02*
X177800Y57150D01*
X158750Y76200D02*
X152400Y69850D01*
X171450Y76200D02*
X177800Y69850D01*
X177800Y57150D01*
X152400Y44450D02*
X152400Y31750D01*
X158750Y25400D01*
X171450Y25400D02*
X177800Y31750D01*
X158750Y50800D02*
X152400Y44450D01*
X171450Y50800D02*
X177800Y44450D01*
X177800Y31750D01*
X152400Y19050D02*
X152400Y6350D01*
X158750Y0D01*
X171450Y0D01*
X177800Y6350D01*
X158750Y25400D02*
X152400Y19050D01*
X171450Y25400D02*
X177800Y19050D01*
X177800Y6350D01*
D10*
X136654Y271115D02*
X134747Y273022D01*
X134747Y274928D01*
X136654Y276835D01*
X146187Y276835D01*
X146187Y274928D02*
X146187Y278742D01*
X146187Y282809D02*
X134747Y282809D01*
X146187Y282809D02*
X146187Y288529D01*
X144280Y290436D01*
X140467Y290436D01*
X138560Y288529D01*
X138560Y282809D01*
X144280Y298316D02*
X146187Y302129D01*
X144280Y298316D02*
X140467Y294503D01*
X136654Y294503D01*
X134747Y296410D01*
X134747Y300223D01*
X136654Y302129D01*
X138560Y302129D01*
X140467Y300223D01*
X140467Y294503D01*
D15*
X25400Y171450D02*
X25400Y158750D01*
X25400Y171450D02*
X19050Y177800D01*
X6350Y177800D02*
X0Y171450D01*
X25400Y133350D02*
X19050Y127000D01*
X25400Y133350D02*
X25400Y146050D01*
X19050Y152400D01*
X6350Y152400D02*
X0Y146050D01*
X0Y133350D01*
X6350Y127000D01*
X19050Y152400D02*
X25400Y158750D01*
X6350Y152400D02*
X0Y158750D01*
X0Y171450D01*
X25400Y95250D02*
X25400Y82550D01*
X25400Y95250D02*
X19050Y101600D01*
X6350Y101600D02*
X0Y95250D01*
X19050Y101600D02*
X25400Y107950D01*
X25400Y120650D01*
X19050Y127000D01*
X6350Y127000D02*
X0Y120650D01*
X0Y107950D01*
X6350Y101600D01*
X25400Y57150D02*
X19050Y50800D01*
X25400Y57150D02*
X25400Y69850D01*
X19050Y76200D01*
X6350Y76200D02*
X0Y69850D01*
X0Y57150D01*
X6350Y50800D01*
X19050Y76200D02*
X25400Y82550D01*
X6350Y76200D02*
X0Y82550D01*
X0Y95250D01*
X25400Y19050D02*
X25400Y6350D01*
X25400Y19050D02*
X19050Y25400D01*
X6350Y25400D02*
X0Y19050D01*
X19050Y25400D02*
X25400Y31750D01*
X25400Y44450D01*
X19050Y50800D01*
X6350Y50800D02*
X0Y44450D01*
X0Y31750D01*
X6350Y25400D01*
X6350Y0D02*
X19050Y0D01*
X25400Y6350D01*
X6350Y0D02*
X0Y6350D01*
X0Y19050D01*
X25400Y184150D02*
X25400Y196850D01*
X19050Y203200D01*
X6350Y203200D02*
X0Y196850D01*
X19050Y177800D02*
X25400Y184150D01*
X6350Y177800D02*
X0Y184150D01*
X0Y196850D01*
X25400Y209550D02*
X25400Y222250D01*
X19050Y228600D01*
X6350Y228600D02*
X0Y222250D01*
X19050Y203200D02*
X25400Y209550D01*
X6350Y203200D02*
X0Y209550D01*
X0Y222250D01*
X25400Y234950D02*
X25400Y247650D01*
X19050Y254000D01*
X6350Y254000D02*
X0Y247650D01*
X19050Y228600D02*
X25400Y234950D01*
X6350Y228600D02*
X0Y234950D01*
X0Y247650D01*
X25400Y260350D02*
X25400Y273050D01*
X19050Y279400D01*
X6350Y279400D02*
X0Y273050D01*
X19050Y254000D02*
X25400Y260350D01*
X6350Y254000D02*
X0Y260350D01*
X0Y273050D01*
X25400Y285750D02*
X25400Y298450D01*
X19050Y304800D01*
X6350Y304800D01*
X0Y298450D01*
X19050Y279400D02*
X25400Y285750D01*
X6350Y279400D02*
X0Y285750D01*
X0Y298450D01*
D10*
X31623Y1780D02*
X33530Y-127D01*
X31623Y1780D02*
X31623Y3686D01*
X33530Y5593D01*
X43063Y5593D01*
X43063Y3686D02*
X43063Y7500D01*
X43063Y11567D02*
X31623Y11567D01*
X43063Y11567D02*
X43063Y17287D01*
X41156Y19193D01*
X37343Y19193D01*
X35436Y17287D01*
X35436Y11567D01*
X43063Y23261D02*
X43063Y30887D01*
X41156Y30887D01*
X33530Y23261D01*
X31623Y23261D01*
D15*
X148590Y172720D02*
X148590Y185420D01*
X142240Y191770D01*
X129540Y191770D02*
X123190Y185420D01*
X142240Y191770D02*
X148590Y198120D01*
X148590Y210820D01*
X142240Y217170D01*
X129540Y217170D02*
X123190Y210820D01*
X123190Y198120D01*
X129540Y191770D01*
X129540Y166370D02*
X142240Y166370D01*
X148590Y172720D01*
X129540Y166370D02*
X123190Y172720D01*
X123190Y185420D01*
X129540Y217170D02*
X142240Y217170D01*
D10*
X154813Y168150D02*
X156720Y166243D01*
X154813Y168150D02*
X154813Y170056D01*
X156720Y171963D01*
X166253Y171963D01*
X166253Y170056D02*
X166253Y173870D01*
X166253Y177937D02*
X154813Y177937D01*
X166253Y177937D02*
X166253Y183657D01*
X164346Y185563D01*
X160533Y185563D01*
X158626Y183657D01*
X158626Y177937D01*
X154813Y189631D02*
X154813Y197257D01*
X154813Y189631D02*
X162440Y197257D01*
X164346Y197257D01*
X166253Y195351D01*
X166253Y191538D01*
X164346Y189631D01*
D15*
X38100Y323850D02*
X31750Y330200D01*
X19050Y330200D01*
X12700Y323850D01*
X12700Y311150D02*
X19050Y304800D01*
X31750Y304800D01*
X38100Y311150D01*
X69850Y330200D02*
X82550Y330200D01*
X69850Y330200D02*
X63500Y323850D01*
X63500Y311150D02*
X69850Y304800D01*
X63500Y323850D02*
X57150Y330200D01*
X44450Y330200D01*
X38100Y323850D01*
X38100Y311150D02*
X44450Y304800D01*
X57150Y304800D01*
X63500Y311150D01*
X107950Y330200D02*
X114300Y323850D01*
X107950Y330200D02*
X95250Y330200D01*
X88900Y323850D01*
X88900Y311150D02*
X95250Y304800D01*
X107950Y304800D01*
X114300Y311150D01*
X88900Y323850D02*
X82550Y330200D01*
X88900Y311150D02*
X82550Y304800D01*
X69850Y304800D01*
X146050Y330200D02*
X158750Y330200D01*
X146050Y330200D02*
X139700Y323850D01*
X139700Y311150D02*
X146050Y304800D01*
X139700Y323850D02*
X133350Y330200D01*
X120650Y330200D01*
X114300Y323850D01*
X114300Y311150D02*
X120650Y304800D01*
X133350Y304800D01*
X139700Y311150D01*
X165100Y311150D02*
X165100Y323850D01*
X158750Y330200D01*
X165100Y311150D02*
X158750Y304800D01*
X146050Y304800D01*
X12700Y311150D02*
X12700Y323850D01*
D10*
X163320Y336423D02*
X165227Y338330D01*
X163320Y336423D02*
X161414Y336423D01*
X159507Y338330D01*
X159507Y347863D01*
X157601Y347863D02*
X161414Y347863D01*
X153533Y347863D02*
X153533Y336423D01*
X153533Y347863D02*
X147813Y347863D01*
X145907Y345956D01*
X145907Y342143D01*
X147813Y340236D01*
X153533Y340236D01*
X141839Y344050D02*
X138026Y347863D01*
X138026Y336423D01*
X141839Y336423D02*
X134213Y336423D01*
D16*
X129794Y231648D03*
D13*
X137541Y222885D02*
X141354Y222885D01*
X141354Y224792D01*
X140719Y225427D01*
X139448Y225427D01*
X138812Y224792D01*
X138812Y222885D01*
X138812Y224156D02*
X137541Y225427D01*
X140083Y226627D02*
X141354Y227898D01*
X137541Y227898D01*
X137541Y226627D02*
X137541Y229169D01*
D16*
X142494Y231648D03*
D13*
X150241Y222885D02*
X154054Y222885D01*
X154054Y224792D01*
X153419Y225427D01*
X152148Y225427D01*
X151512Y224792D01*
X151512Y222885D01*
X151512Y224156D02*
X150241Y225427D01*
X153419Y226627D02*
X154054Y227263D01*
X154054Y228534D01*
X153419Y229169D01*
X152783Y229169D01*
X152148Y228534D01*
X152148Y227898D01*
X152148Y228534D02*
X151512Y229169D01*
X150877Y229169D01*
X150241Y228534D01*
X150241Y227263D01*
X150877Y226627D01*
D15*
X148590Y81280D02*
X148590Y68580D01*
X148590Y81280D02*
X142240Y87630D01*
X129540Y87630D02*
X123190Y81280D01*
X142240Y87630D02*
X148590Y93980D01*
X148590Y106680D01*
X142240Y113030D01*
X129540Y113030D02*
X123190Y106680D01*
X123190Y93980D01*
X129540Y87630D01*
X129540Y62230D02*
X142240Y62230D01*
X148590Y68580D01*
X129540Y62230D02*
X123190Y68580D01*
X123190Y81280D01*
X129540Y113030D02*
X142240Y113030D01*
D10*
X154813Y64010D02*
X156720Y62103D01*
X154813Y64010D02*
X154813Y65916D01*
X156720Y67823D01*
X166253Y67823D01*
X166253Y65916D02*
X166253Y69730D01*
X166253Y73797D02*
X154813Y73797D01*
X166253Y73797D02*
X166253Y79517D01*
X164346Y81423D01*
X160533Y81423D01*
X158626Y79517D01*
X158626Y73797D01*
X164346Y85491D02*
X166253Y87398D01*
X166253Y91211D01*
X164346Y93117D01*
X162440Y93117D01*
X160533Y91211D01*
X160533Y89304D01*
X160533Y91211D02*
X158626Y93117D01*
X156720Y93117D01*
X154813Y91211D01*
X154813Y87398D01*
X156720Y85491D01*
M02*
