G04 EAGLE Gerber RS-274X export*
G75*
%MOMM*%
%FSLAX34Y34*%
%LPD*%
%INSolderpaste Top*%
%IPPOS*%
%AMOC8*
5,1,8,0,0,1.08239X$1,22.5*%
G01*
%ADD10R,1.100000X1.000000*%
%ADD11R,1.600000X1.400000*%
%ADD12C,0.300000*%
%ADD13R,1.000000X1.100000*%
%ADD14R,1.200000X0.550000*%
%ADD15R,1.270000X0.558800*%
%ADD16R,0.558800X1.270000*%
%ADD17R,1.270000X0.635000*%
%ADD18R,2.286000X2.438400*%
%ADD19R,1.524000X0.762000*%
%ADD20C,0.450000*%


D10*
X80382Y204216D03*
X63382Y204216D03*
D11*
X46990Y274350D03*
X46990Y246350D03*
D10*
X97400Y266700D03*
X80400Y266700D03*
D12*
X94424Y222194D02*
X94424Y215194D01*
X94424Y222194D02*
X101424Y222194D01*
X101424Y215194D01*
X94424Y215194D01*
X94424Y218044D02*
X101424Y218044D01*
X101424Y220894D02*
X94424Y220894D01*
X76884Y222194D02*
X76884Y215194D01*
X76884Y222194D02*
X83884Y222194D01*
X83884Y215194D01*
X76884Y215194D01*
X76884Y218044D02*
X83884Y218044D01*
X83884Y220894D02*
X76884Y220894D01*
D13*
X45466Y43824D03*
X45466Y60824D03*
D10*
X98670Y72390D03*
X81670Y72390D03*
D13*
X45466Y12074D03*
X45466Y29074D03*
X137160Y57522D03*
X137160Y40522D03*
D12*
X133660Y12002D02*
X140660Y12002D01*
X140660Y5002D01*
X133660Y5002D01*
X133660Y12002D01*
X133660Y7852D02*
X140660Y7852D01*
X140660Y10702D02*
X133660Y10702D01*
X133660Y29542D02*
X140660Y29542D01*
X140660Y22542D01*
X133660Y22542D01*
X133660Y29542D01*
X133660Y25392D02*
X140660Y25392D01*
X140660Y28242D02*
X133660Y28242D01*
D14*
X101901Y232308D03*
X101901Y241808D03*
X101901Y251308D03*
X75899Y251308D03*
X75899Y232308D03*
D11*
X132080Y227300D03*
X132080Y255300D03*
D15*
G36*
X80860Y183387D02*
X71881Y192366D01*
X75832Y196317D01*
X84811Y187338D01*
X80860Y183387D01*
G37*
G36*
X75203Y177730D02*
X66224Y186709D01*
X70175Y190660D01*
X79154Y181681D01*
X75203Y177730D01*
G37*
G36*
X69546Y172074D02*
X60567Y181053D01*
X64518Y185004D01*
X73497Y176025D01*
X69546Y172074D01*
G37*
G36*
X63889Y166417D02*
X54910Y175396D01*
X58861Y179347D01*
X67840Y170368D01*
X63889Y166417D01*
G37*
G36*
X58232Y160760D02*
X49253Y169739D01*
X53204Y173690D01*
X62183Y164711D01*
X58232Y160760D01*
G37*
G36*
X52575Y155103D02*
X43596Y164082D01*
X47547Y168033D01*
X56526Y159054D01*
X52575Y155103D01*
G37*
G36*
X46919Y149446D02*
X37940Y158425D01*
X41891Y162376D01*
X50870Y153397D01*
X46919Y149446D01*
G37*
G36*
X41262Y143789D02*
X32283Y152768D01*
X36234Y156719D01*
X45213Y147740D01*
X41262Y143789D01*
G37*
D16*
G36*
X36234Y122681D02*
X32283Y126632D01*
X41262Y135611D01*
X45213Y131660D01*
X36234Y122681D01*
G37*
G36*
X41891Y117024D02*
X37940Y120975D01*
X46919Y129954D01*
X50870Y126003D01*
X41891Y117024D01*
G37*
G36*
X47547Y111367D02*
X43596Y115318D01*
X52575Y124297D01*
X56526Y120346D01*
X47547Y111367D01*
G37*
G36*
X53204Y105710D02*
X49253Y109661D01*
X58232Y118640D01*
X62183Y114689D01*
X53204Y105710D01*
G37*
G36*
X58861Y100053D02*
X54910Y104004D01*
X63889Y112983D01*
X67840Y109032D01*
X58861Y100053D01*
G37*
G36*
X64518Y94396D02*
X60567Y98347D01*
X69546Y107326D01*
X73497Y103375D01*
X64518Y94396D01*
G37*
G36*
X70175Y88740D02*
X66224Y92691D01*
X75203Y101670D01*
X79154Y97719D01*
X70175Y88740D01*
G37*
G36*
X75832Y83083D02*
X71881Y87034D01*
X80860Y96013D01*
X84811Y92062D01*
X75832Y83083D01*
G37*
D15*
G36*
X101968Y83083D02*
X92989Y92062D01*
X96940Y96013D01*
X105919Y87034D01*
X101968Y83083D01*
G37*
G36*
X107625Y88740D02*
X98646Y97719D01*
X102597Y101670D01*
X111576Y92691D01*
X107625Y88740D01*
G37*
G36*
X113282Y94396D02*
X104303Y103375D01*
X108254Y107326D01*
X117233Y98347D01*
X113282Y94396D01*
G37*
G36*
X118939Y100053D02*
X109960Y109032D01*
X113911Y112983D01*
X122890Y104004D01*
X118939Y100053D01*
G37*
G36*
X124596Y105710D02*
X115617Y114689D01*
X119568Y118640D01*
X128547Y109661D01*
X124596Y105710D01*
G37*
G36*
X130253Y111367D02*
X121274Y120346D01*
X125225Y124297D01*
X134204Y115318D01*
X130253Y111367D01*
G37*
G36*
X135909Y117024D02*
X126930Y126003D01*
X130881Y129954D01*
X139860Y120975D01*
X135909Y117024D01*
G37*
G36*
X141566Y122681D02*
X132587Y131660D01*
X136538Y135611D01*
X145517Y126632D01*
X141566Y122681D01*
G37*
D16*
G36*
X136538Y143789D02*
X132587Y147740D01*
X141566Y156719D01*
X145517Y152768D01*
X136538Y143789D01*
G37*
G36*
X130881Y149446D02*
X126930Y153397D01*
X135909Y162376D01*
X139860Y158425D01*
X130881Y149446D01*
G37*
G36*
X125225Y155103D02*
X121274Y159054D01*
X130253Y168033D01*
X134204Y164082D01*
X125225Y155103D01*
G37*
G36*
X119568Y160760D02*
X115617Y164711D01*
X124596Y173690D01*
X128547Y169739D01*
X119568Y160760D01*
G37*
G36*
X113911Y166417D02*
X109960Y170368D01*
X118939Y179347D01*
X122890Y175396D01*
X113911Y166417D01*
G37*
G36*
X108254Y172074D02*
X104303Y176025D01*
X113282Y185004D01*
X117233Y181053D01*
X108254Y172074D01*
G37*
G36*
X102597Y177730D02*
X98646Y181681D01*
X107625Y190660D01*
X111576Y186709D01*
X102597Y177730D01*
G37*
G36*
X96940Y183387D02*
X92989Y187338D01*
X101968Y196317D01*
X105919Y192366D01*
X96940Y183387D01*
G37*
D10*
X136516Y292100D03*
X119516Y292100D03*
D17*
X46990Y226369D03*
X46990Y218131D03*
D18*
X46990Y222250D03*
D19*
X118110Y7620D03*
X62230Y7620D03*
X118110Y45720D03*
X62230Y45720D03*
D20*
X49693Y178246D02*
X35143Y178246D01*
X35143Y190246D02*
X49693Y190246D01*
X49693Y202246D02*
X35143Y202246D01*
M02*
