G04 EAGLE Gerber RS-274X export*
G75*
%MOMM*%
%FSLAX34Y34*%
%LPD*%
%INSoldermask Top*%
%IPPOS*%
%AMOC8*
5,1,8,0,0,1.08239X$1,22.5*%
G01*
%ADD10R,1.303200X1.203200*%
%ADD11R,1.803200X1.603200*%
%ADD12C,0.505344*%
%ADD13R,1.203200X1.303200*%
%ADD14R,1.403200X0.753200*%
%ADD15C,2.082800*%
%ADD16R,1.473200X0.762000*%
%ADD17R,0.762000X1.473200*%
%ADD18C,0.838200*%
%ADD19R,1.473200X0.838200*%
%ADD20R,1.727200X0.965200*%
%ADD21C,0.653200*%
%ADD22R,1.534159X3.495041*%


D10*
X80382Y204216D03*
X63382Y204216D03*
D11*
X46990Y274350D03*
X46990Y246350D03*
D10*
X97400Y266700D03*
X80400Y266700D03*
D12*
X94434Y222184D02*
X94434Y215204D01*
X94434Y222184D02*
X101414Y222184D01*
X101414Y215204D01*
X94434Y215204D01*
X94434Y220004D02*
X101414Y220004D01*
X76894Y222184D02*
X76894Y215204D01*
X76894Y222184D02*
X83874Y222184D01*
X83874Y215204D01*
X76894Y215204D01*
X76894Y220004D02*
X83874Y220004D01*
D13*
X45466Y43824D03*
X45466Y60824D03*
D10*
X98670Y72390D03*
X81670Y72390D03*
D13*
X45466Y12074D03*
X45466Y29074D03*
X137160Y57522D03*
X137160Y40522D03*
D12*
X133670Y11992D02*
X140650Y11992D01*
X140650Y5012D01*
X133670Y5012D01*
X133670Y11992D01*
X133670Y9812D02*
X140650Y9812D01*
X140650Y29532D02*
X133670Y29532D01*
X140650Y29532D02*
X140650Y22552D01*
X133670Y22552D01*
X133670Y29532D01*
X133670Y27352D02*
X140650Y27352D01*
D14*
X101901Y232308D03*
X101901Y241808D03*
X101901Y251308D03*
X75899Y251308D03*
X75899Y232308D03*
D11*
X132080Y227300D03*
X132080Y255300D03*
D15*
X165100Y292100D03*
X165100Y266700D03*
X165100Y241300D03*
X165100Y215900D03*
X165100Y190500D03*
X165100Y165100D03*
X165100Y139700D03*
X165100Y114300D03*
X165100Y88900D03*
X165100Y63500D03*
X165100Y38100D03*
X165100Y12700D03*
X12700Y12700D03*
X12700Y38100D03*
X12700Y63500D03*
X12700Y88900D03*
X12700Y114300D03*
X12700Y139700D03*
X12700Y165100D03*
X12700Y190500D03*
X12700Y215900D03*
X12700Y241300D03*
X12700Y266700D03*
X12700Y292100D03*
X135890Y179070D03*
X135890Y204470D03*
D16*
G36*
X80860Y181950D02*
X70444Y192366D01*
X75832Y197754D01*
X86248Y187338D01*
X80860Y181950D01*
G37*
G36*
X75203Y176293D02*
X64787Y186709D01*
X70175Y192097D01*
X80591Y181681D01*
X75203Y176293D01*
G37*
G36*
X69546Y170637D02*
X59130Y181053D01*
X64518Y186441D01*
X74934Y176025D01*
X69546Y170637D01*
G37*
G36*
X63889Y164980D02*
X53473Y175396D01*
X58861Y180784D01*
X69277Y170368D01*
X63889Y164980D01*
G37*
G36*
X58232Y159323D02*
X47816Y169739D01*
X53204Y175127D01*
X63620Y164711D01*
X58232Y159323D01*
G37*
G36*
X52575Y153666D02*
X42159Y164082D01*
X47547Y169470D01*
X57963Y159054D01*
X52575Y153666D01*
G37*
G36*
X46919Y148009D02*
X36503Y158425D01*
X41891Y163813D01*
X52307Y153397D01*
X46919Y148009D01*
G37*
G36*
X41262Y142352D02*
X30846Y152768D01*
X36234Y158156D01*
X46650Y147740D01*
X41262Y142352D01*
G37*
D17*
G36*
X36234Y121244D02*
X30846Y126632D01*
X41262Y137048D01*
X46650Y131660D01*
X36234Y121244D01*
G37*
G36*
X41891Y115587D02*
X36503Y120975D01*
X46919Y131391D01*
X52307Y126003D01*
X41891Y115587D01*
G37*
G36*
X47547Y109930D02*
X42159Y115318D01*
X52575Y125734D01*
X57963Y120346D01*
X47547Y109930D01*
G37*
G36*
X53204Y104273D02*
X47816Y109661D01*
X58232Y120077D01*
X63620Y114689D01*
X53204Y104273D01*
G37*
G36*
X58861Y98616D02*
X53473Y104004D01*
X63889Y114420D01*
X69277Y109032D01*
X58861Y98616D01*
G37*
G36*
X64518Y92959D02*
X59130Y98347D01*
X69546Y108763D01*
X74934Y103375D01*
X64518Y92959D01*
G37*
G36*
X70175Y87303D02*
X64787Y92691D01*
X75203Y103107D01*
X80591Y97719D01*
X70175Y87303D01*
G37*
G36*
X75832Y81646D02*
X70444Y87034D01*
X80860Y97450D01*
X86248Y92062D01*
X75832Y81646D01*
G37*
D16*
G36*
X101968Y81646D02*
X91552Y92062D01*
X96940Y97450D01*
X107356Y87034D01*
X101968Y81646D01*
G37*
G36*
X107625Y87303D02*
X97209Y97719D01*
X102597Y103107D01*
X113013Y92691D01*
X107625Y87303D01*
G37*
G36*
X113282Y92959D02*
X102866Y103375D01*
X108254Y108763D01*
X118670Y98347D01*
X113282Y92959D01*
G37*
G36*
X118939Y98616D02*
X108523Y109032D01*
X113911Y114420D01*
X124327Y104004D01*
X118939Y98616D01*
G37*
G36*
X124596Y104273D02*
X114180Y114689D01*
X119568Y120077D01*
X129984Y109661D01*
X124596Y104273D01*
G37*
G36*
X130253Y109930D02*
X119837Y120346D01*
X125225Y125734D01*
X135641Y115318D01*
X130253Y109930D01*
G37*
G36*
X135909Y115587D02*
X125493Y126003D01*
X130881Y131391D01*
X141297Y120975D01*
X135909Y115587D01*
G37*
G36*
X141566Y121244D02*
X131150Y131660D01*
X136538Y137048D01*
X146954Y126632D01*
X141566Y121244D01*
G37*
D17*
G36*
X136538Y142352D02*
X131150Y147740D01*
X141566Y158156D01*
X146954Y152768D01*
X136538Y142352D01*
G37*
G36*
X130881Y148009D02*
X125493Y153397D01*
X135909Y163813D01*
X141297Y158425D01*
X130881Y148009D01*
G37*
G36*
X125225Y153666D02*
X119837Y159054D01*
X130253Y169470D01*
X135641Y164082D01*
X125225Y153666D01*
G37*
G36*
X119568Y159323D02*
X114180Y164711D01*
X124596Y175127D01*
X129984Y169739D01*
X119568Y159323D01*
G37*
G36*
X113911Y164980D02*
X108523Y170368D01*
X118939Y180784D01*
X124327Y175396D01*
X113911Y164980D01*
G37*
G36*
X108254Y170637D02*
X102866Y176025D01*
X113282Y186441D01*
X118670Y181053D01*
X108254Y170637D01*
G37*
G36*
X102597Y176293D02*
X97209Y181681D01*
X107625Y192097D01*
X113013Y186709D01*
X102597Y176293D01*
G37*
G36*
X96940Y181950D02*
X91552Y187338D01*
X101968Y197754D01*
X107356Y192366D01*
X96940Y181950D01*
G37*
D15*
X152400Y317500D03*
X127000Y317500D03*
X101600Y317500D03*
X76200Y317500D03*
X50800Y317500D03*
X25400Y317500D03*
D10*
X136516Y292100D03*
X119516Y292100D03*
D18*
X39370Y292100D03*
X124460Y25400D03*
D19*
X46990Y226369D03*
X46990Y218131D03*
D20*
X118110Y7620D03*
X62230Y7620D03*
X118110Y45720D03*
X62230Y45720D03*
D15*
X135890Y74930D03*
X135890Y100330D03*
D21*
X49693Y178246D02*
X35143Y178246D01*
X35143Y190246D02*
X49693Y190246D01*
X49693Y202246D02*
X35143Y202246D01*
D22*
X42443Y190221D03*
M02*
