M48
;GenerationSoftware,Autodesk,EAGLE,9.6.2*%
;CreationDate,2021-02-01T16:14:31Z*%
FMAT,2
ICI,OFF
METRIC,TZ,000.000
T2C0.508
T1C1.016
%
G90
M71
T1
X16510Y24130
X13589Y7493
X2540Y31750
X5080Y31750
X7620Y31750
X10160Y31750
X12700Y31750
X15240Y31750
X13589Y20447
X13589Y17907
X1270Y29210
X1270Y26670
X1270Y24130
X1270Y21590
X1270Y19050
X1270Y16510
X1270Y13970
X1270Y11430
X1270Y8890
X1270Y6350
X1270Y3810
X1270Y1270
X16510Y1270
X16510Y3810
X16510Y6350
X16510Y8890
X16510Y11430
X16510Y13970
X16510Y16510
X16510Y29210
X16510Y26670
X13589Y10033
X16510Y21590
X16510Y19050
T2
X12192Y13970
X2794Y2159
X8890Y15621
X9525Y16891
X9322Y19812
X15367Y15240
X14046Y27280
X11176Y26162
X6350Y26416
X6629Y22200
X7366Y11557
X8001Y12700
X11303Y14986
X8890Y4572
X5969Y3048
X10414Y11557
X11811Y5842
X8153Y29261
X6401Y24130
X11405Y24130
X3683Y26035
X7722Y16942
X14757Y25400
X6350Y14478
X10414Y20447
X5105Y29286
X8890Y2667
X9652Y14478
X11430Y12700
M30